<?xml version="1.0" encoding="UTF-8" standalone="no"?>
<svg
   xmlns:dc="http://purl.org/dc/elements/1.1/"
   xmlns:cc="http://creativecommons.org/ns#"
   xmlns:rdf="http://www.w3.org/1999/02/22-rdf-syntax-ns#"
   xmlns:svg="http://www.w3.org/2000/svg"
   xmlns="http://www.w3.org/2000/svg"
   id="svg4510"
   version="1.1"
   viewBox="0 0 54.660583 18.141043"
   height="18.141043mm"
   width="54.660583mm">
  <defs
     id="defs4504" />
  <metadata
     id="metadata4507">
    <rdf:RDF>
      <cc:Work
         rdf:about="">
        <dc:format>image/svg+xml</dc:format>
        <dc:type
           rdf:resource="http://purl.org/dc/dcmitype/StillImage" />
        <dc:title></dc:title>
      </cc:Work>
    </rdf:RDF>
  </metadata>
  <g
     transform="translate(-28.052703,-58.905121)"
     id="layer1">
    <g
       id="g1539"
       style="fill:none;fill-rule:evenodd;enable-background:new"
       transform="matrix(0.20792979,0,0,0.20792979,27.862447,58.905121)">
      <path
         id="path1535"
         d="m 11.083,0 h 242.544 c 3.535,0 4.817,0.368 6.11,1.06 a 7.207,7.207 0 0 1 2.998,2.998 c 0.691,1.292 1.06,2.574 1.06,6.11 v 66.91 c 0,3.536 -0.369,4.818 -1.06,6.11 a 7.207,7.207 0 0 1 -2.998,2.998 c -1.293,0.692 -2.575,1.06 -6.11,1.06 H 11.083 c -3.536,0 -4.818,-0.368 -6.11,-1.06 A 7.207,7.207 0 0 1 1.974,83.188 C 1.284,81.896 0.915,80.614 0.915,77.078 v -66.91 c 0,-3.536 0.368,-4.818 1.06,-6.11 A 7.207,7.207 0 0 1 4.973,1.059 C 6.265,0.37 7.547,0 11.083,0 Z"
         style="fill:#ffffff" />
      <path
         id="path1537"
         d="m 59.821,41.49 c -0.052,-5.693 4.775,-8.462 4.996,-8.591 -2.734,-3.892 -6.972,-4.423 -8.46,-4.466 -3.56,-0.366 -7.012,2.08 -8.825,2.08 -1.849,0 -4.64,-2.045 -7.65,-1.984 -3.871,0.058 -7.494,2.246 -9.48,5.645 -4.1,6.93 -1.042,17.114 2.886,22.715 1.964,2.745 4.26,5.806 7.266,5.699 2.94,-0.117 4.038,-1.829 7.586,-1.829 3.516,0 4.547,1.829 7.612,1.76 3.155,-0.048 5.142,-2.756 7.038,-5.524 2.27,-3.143 3.183,-6.241 3.219,-6.4 -0.072,-0.025 -6.126,-2.282 -6.188,-9.104 z m -5.79,-16.742 c 1.582,-1.93 2.664,-4.557 2.363,-7.223 -2.289,0.1 -5.15,1.546 -6.8,3.434 -1.457,1.664 -2.76,4.392 -2.424,6.957 2.571,0.187 5.211,-1.267 6.861,-3.168 z M 99.501,18.4 h 4.036 c 1.304,0 2.444,0.265 3.419,0.794 a 5.478,5.478 0 0 1 2.247,2.23 c 0.523,0.957 0.785,2.053 0.785,3.286 0,1.234 -0.262,2.33 -0.785,3.287 a 5.478,5.478 0 0 1 -2.247,2.23 c -0.975,0.529 -2.115,0.793 -3.42,0.793 H 99.5 V 18.4 Z m 4,10.734 c 1.41,0 2.512,-0.39 3.305,-1.172 0.793,-0.781 1.19,-1.865 1.19,-3.252 0,-1.374 -0.397,-2.455 -1.19,-3.243 -0.793,-0.787 -1.895,-1.18 -3.305,-1.18 h -2.027 v 8.847 z m 12.373,2.168 c -0.904,0 -1.715,-0.208 -2.432,-0.625 a 4.4,4.4 0 0 1 -1.674,-1.719 c -0.4,-0.728 -0.6,-1.54 -0.6,-2.432 0,-0.893 0.2,-1.704 0.6,-2.433 a 4.4,4.4 0 0 1 1.674,-1.718 c 0.717,-0.417 1.528,-0.626 2.432,-0.626 0.905,0 1.716,0.212 2.433,0.635 a 4.462,4.462 0 0 1 1.674,1.727 c 0.4,0.729 0.6,1.533 0.6,2.415 0,0.893 -0.2,1.704 -0.6,2.432 a 4.4,4.4 0 0 1 -1.674,1.719 c -0.717,0.417 -1.528,0.625 -2.433,0.625 z m 0,-1.78 c 0.494,0 0.952,-0.12 1.375,-0.361 0.423,-0.241 0.761,-0.588 1.014,-1.04 0.252,-0.453 0.379,-0.984 0.379,-1.595 0,-0.611 -0.127,-1.14 -0.38,-1.587 a 2.672,2.672 0 0 0 -1.013,-1.03 2.732,2.732 0 0 0 -1.375,-0.362 c -0.493,0 -0.951,0.12 -1.374,0.361 -0.423,0.241 -0.761,0.585 -1.014,1.031 -0.252,0.447 -0.379,0.976 -0.379,1.587 0,0.61 0.127,1.142 0.38,1.595 0.252,0.452 0.59,0.799 1.013,1.04 0.423,0.24 0.88,0.361 1.374,0.361 z m 5.306,-7.49 h 2.097 l 1.816,6.433 h 0.07 l 2.027,-6.434 h 1.992 l 2.009,6.434 h 0.07 l 1.816,-6.434 h 2.062 l -2.873,8.99 h -2.044 l -2.063,-6.452 h -0.053 l -2.044,6.451 h -2.01 l -2.872,-8.989 z m 15.21,0 h 1.851 v 1.18 h 0.088 c 0.259,-0.423 0.644,-0.772 1.155,-1.049 a 3.38,3.38 0 0 1 1.63,-0.414 c 1.093,0 1.924,0.32 2.494,0.96 0.57,0.641 0.855,1.514 0.855,2.618 v 5.693 h -1.939 v -5.428 c 0,-0.705 -0.173,-1.222 -0.52,-1.551 -0.347,-0.33 -0.825,-0.494 -1.436,-0.494 -0.435,0 -0.823,0.12 -1.164,0.361 -0.34,0.241 -0.605,0.561 -0.793,0.96 -0.188,0.4 -0.282,0.83 -0.282,1.288 V 31.02 H 136.39 V 22.031 Z M 146.648,18.4 h 1.94 v 12.62 h -1.94 z m 8.337,12.902 c -0.905,0 -1.715,-0.208 -2.432,-0.625 a 4.4,4.4 0 0 1 -1.675,-1.719 c -0.399,-0.728 -0.599,-1.54 -0.599,-2.432 0,-0.893 0.2,-1.704 0.6,-2.433 a 4.4,4.4 0 0 1 1.674,-1.718 c 0.717,-0.417 1.527,-0.626 2.432,-0.626 0.905,0 1.716,0.212 2.433,0.635 a 4.462,4.462 0 0 1 1.674,1.727 c 0.4,0.729 0.6,1.533 0.6,2.415 0,0.893 -0.2,1.704 -0.6,2.432 a 4.4,4.4 0 0 1 -1.674,1.719 c -0.717,0.417 -1.528,0.625 -2.433,0.625 z m 0,-1.78 c 0.494,0 0.952,-0.12 1.375,-0.361 0.423,-0.241 0.76,-0.588 1.013,-1.04 0.253,-0.453 0.38,-0.984 0.38,-1.595 0,-0.611 -0.127,-1.14 -0.38,-1.587 a 2.672,2.672 0 0 0 -1.013,-1.03 2.732,2.732 0 0 0 -1.375,-0.362 c -0.493,0 -0.952,0.12 -1.375,0.361 -0.423,0.241 -0.76,0.585 -1.013,1.031 -0.253,0.447 -0.379,0.976 -0.379,1.587 0,0.61 0.126,1.142 0.379,1.595 0.253,0.452 0.59,0.799 1.013,1.04 0.423,0.24 0.882,0.361 1.375,0.361 z m 9.306,1.78 c -0.646,0 -1.222,-0.126 -1.727,-0.379 a 2.83,2.83 0 0 1 -1.18,-1.075 2.977,2.977 0 0 1 -0.424,-1.577 c 0,-0.929 0.35,-1.663 1.049,-2.204 0.7,-0.54 1.583,-0.81 2.653,-0.81 0.528,0 1.004,0.05 1.427,0.15 0.423,0.1 0.758,0.208 1.005,0.326 v -0.459 c 0,-0.552 -0.206,-1.001 -0.617,-1.348 -0.411,-0.347 -0.94,-0.52 -1.586,-0.52 -0.459,0 -0.89,0.1 -1.296,0.3 a 2.54,2.54 0 0 0 -0.978,0.828 l -1.357,-1.04 c 0.4,-0.552 0.916,-0.981 1.55,-1.286 0.635,-0.306 1.34,-0.459 2.116,-0.459 1.304,0 2.309,0.32 3.014,0.96 0.705,0.641 1.057,1.543 1.057,2.706 v 5.605 h -1.903 v -1.075 h -0.088 c -0.259,0.388 -0.623,0.711 -1.093,0.97 -0.47,0.258 -1.01,0.387 -1.622,0.387 z m 0.335,-1.604 c 0.47,0 0.893,-0.111 1.27,-0.335 0.375,-0.223 0.67,-0.522 0.88,-0.898 a 2.44,2.44 0 0 0 0.318,-1.217 3.945,3.945 0 0 0 -0.943,-0.37 4.393,4.393 0 0 0 -1.12,-0.14 c -0.728,0 -1.262,0.143 -1.603,0.431 -0.341,0.288 -0.511,0.661 -0.511,1.12 0,0.41 0.158,0.748 0.476,1.013 0.317,0.264 0.728,0.396 1.233,0.396 z m 10.24,1.604 c -0.81,0 -1.544,-0.205 -2.202,-0.617 a 4.365,4.365 0 0 1 -1.56,-1.7 c -0.382,-0.723 -0.573,-1.543 -0.573,-2.46 0,-0.916 0.19,-1.735 0.573,-2.458 a 4.365,4.365 0 0 1 1.56,-1.7 4.072,4.072 0 0 1 2.203,-0.618 c 0.634,0 1.204,0.141 1.71,0.423 0.505,0.282 0.887,0.629 1.145,1.04 h 0.088 l -0.088,-1.269 V 18.4 h 1.939 v 12.62 h -1.85 v -1.163 h -0.089 c -0.258,0.4 -0.64,0.74 -1.146,1.022 a 3.447,3.447 0 0 1 -1.71,0.423 z m 0.283,-1.78 c 0.47,0 0.907,-0.123 1.313,-0.37 0.405,-0.247 0.731,-0.6 0.978,-1.058 0.247,-0.458 0.37,-0.98 0.37,-1.568 0,-0.588 -0.123,-1.108 -0.37,-1.56 a 2.722,2.722 0 0 0 -0.978,-1.049 2.526,2.526 0 0 0 -2.635,0 2.7,2.7 0 0 0 -0.987,1.049 c -0.247,0.452 -0.37,0.972 -0.37,1.56 0,0.587 0.123,1.11 0.37,1.568 0.247,0.459 0.576,0.811 0.987,1.058 0.411,0.247 0.852,0.37 1.322,0.37 z m 15.105,1.78 c -0.905,0 -1.716,-0.208 -2.433,-0.625 a 4.4,4.4 0 0 1 -1.674,-1.719 c -0.4,-0.728 -0.6,-1.54 -0.6,-2.432 0,-0.893 0.2,-1.704 0.6,-2.433 a 4.4,4.4 0 0 1 1.674,-1.718 c 0.717,-0.417 1.528,-0.626 2.433,-0.626 0.904,0 1.715,0.212 2.432,0.635 a 4.462,4.462 0 0 1 1.674,1.727 c 0.4,0.729 0.6,1.533 0.6,2.415 0,0.893 -0.2,1.704 -0.6,2.432 a 4.4,4.4 0 0 1 -1.674,1.719 c -0.717,0.417 -1.528,0.625 -2.432,0.625 z m 0,-1.78 c 0.493,0 0.951,-0.12 1.374,-0.361 0.423,-0.241 0.761,-0.588 1.014,-1.04 0.253,-0.453 0.379,-0.984 0.379,-1.595 0,-0.611 -0.126,-1.14 -0.38,-1.587 a 2.672,2.672 0 0 0 -1.013,-1.03 2.732,2.732 0 0 0 -1.374,-0.362 c -0.494,0 -0.952,0.12 -1.375,0.361 -0.423,0.241 -0.76,0.585 -1.014,1.031 -0.252,0.447 -0.379,0.976 -0.379,1.587 0,0.61 0.127,1.142 0.38,1.595 0.252,0.452 0.59,0.799 1.013,1.04 0.423,0.24 0.881,0.361 1.375,0.361 z m 6.31,-7.49 h 1.85 v 1.18 h 0.088 c 0.259,-0.423 0.644,-0.772 1.155,-1.049 a 3.38,3.38 0 0 1 1.63,-0.414 c 1.093,0 1.924,0.32 2.494,0.96 0.57,0.641 0.855,1.514 0.855,2.618 v 5.693 h -1.939 v -5.428 c 0,-0.705 -0.173,-1.222 -0.52,-1.551 -0.346,-0.33 -0.825,-0.494 -1.436,-0.494 -0.435,0 -0.823,0.12 -1.163,0.361 -0.341,0.241 -0.606,0.561 -0.794,0.96 -0.188,0.4 -0.282,0.83 -0.282,1.288 v 4.864 h -1.938 v -8.989 z m 18.066,9.13 c -0.4,0 -0.776,-0.065 -1.128,-0.195 -0.353,-0.129 -0.64,-0.3 -0.864,-0.51 -0.505,-0.506 -0.758,-1.193 -0.758,-2.063 v -4.653 h -1.569 v -1.71 h 1.57 v -2.538 h 1.938 v 2.538 h 2.185 v 1.71 h -2.185 v 4.23 c 0,0.482 0.094,0.823 0.282,1.022 0.176,0.235 0.482,0.353 0.916,0.353 0.2,0 0.376,-0.027 0.53,-0.08 0.152,-0.052 0.316,-0.138 0.493,-0.255 v 1.886 c -0.388,0.176 -0.858,0.264 -1.41,0.264 z M 217.943,18.4 h 1.939 v 3.437 l -0.088,1.375 h 0.088 c 0.259,-0.423 0.643,-0.772 1.154,-1.049 a 3.414,3.414 0 0 1 1.648,-0.414 c 1.093,0 1.928,0.32 2.503,0.96 0.576,0.641 0.864,1.514 0.864,2.618 v 5.693 h -1.939 v -5.428 c 0,-0.682 -0.18,-1.193 -0.537,-1.534 -0.359,-0.34 -0.826,-0.511 -1.402,-0.511 -0.434,0 -0.825,0.123 -1.172,0.37 a 2.57,2.57 0 0 0 -0.82,0.978 c -0.2,0.406 -0.299,0.838 -0.299,1.296 v 4.83 h -1.939 z m 14.418,12.902 c -0.881,0 -1.672,-0.205 -2.37,-0.617 a 4.347,4.347 0 0 1 -1.64,-1.7 c -0.394,-0.723 -0.59,-1.537 -0.59,-2.442 a 5.1,5.1 0 0 1 0.572,-2.388 4.505,4.505 0 0 1 1.596,-1.754 c 0.681,-0.434 1.457,-0.652 2.326,-0.652 0.905,0 1.69,0.2 2.353,0.6 0.664,0.399 1.17,0.945 1.516,1.639 0.346,0.693 0.52,1.474 0.52,2.344 0,0.164 -0.018,0.37 -0.053,0.617 h -6.892 c 0.07,0.834 0.368,1.477 0.89,1.93 a 2.703,2.703 0 0 0 1.825,0.678 c 0.552,0 1.03,-0.126 1.436,-0.379 0.406,-0.252 0.732,-0.596 0.978,-1.03 l 1.64,0.775 a 4.83,4.83 0 0 1 -1.657,1.745 c -0.682,0.423 -1.498,0.634 -2.45,0.634 z m 2.309,-5.834 a 2.24,2.24 0 0 0 -0.3,-0.943 2.144,2.144 0 0 0 -0.802,-0.784 c -0.358,-0.212 -0.796,-0.317 -1.313,-0.317 -0.623,0 -1.149,0.185 -1.577,0.555 -0.43,0.37 -0.726,0.866 -0.89,1.49 h 4.882 z M 104.743,44.063 h 4.76 l 8.262,21.989 h -4.576 L 111.346,60.8 h -8.415 l -1.842,5.252 h -4.576 z m 5.252,12.93 -1.935,-5.529 -0.798,-2.64 h -0.246 l -0.799,2.64 -1.965,5.528 h 5.743 z m 8.97,-6.603 h 3.777 v 1.904 h 0.246 c 0.43,-0.676 1.055,-1.244 1.873,-1.705 0.82,-0.46 1.761,-0.69 2.826,-0.69 1.413,0 2.697,0.352 3.854,1.059 1.157,0.706 2.063,1.694 2.718,2.963 0.655,1.27 0.983,2.703 0.983,4.3 0,1.617 -0.328,3.056 -0.983,4.315 -0.655,1.259 -1.561,2.242 -2.718,2.948 -1.157,0.706 -2.441,1.06 -3.854,1.06 -1.065,0 -2.012,-0.226 -2.84,-0.676 -0.83,-0.45 -1.45,-1.014 -1.859,-1.69 h -0.246 l 0.246,2.212 v 6.295 h -4.023 z m 8.016,12.437 c 0.757,0 1.463,-0.194 2.119,-0.583 a 4.278,4.278 0 0 0 1.566,-1.628 c 0.389,-0.696 0.583,-1.494 0.583,-2.395 0,-0.901 -0.194,-1.7 -0.583,-2.396 a 4.164,4.164 0 0 0 -1.566,-1.612 4.163,4.163 0 0 0 -2.12,-0.568 c -0.737,0 -1.433,0.19 -2.088,0.568 a 4.164,4.164 0 0 0 -1.566,1.612 c -0.389,0.696 -0.584,1.495 -0.584,2.396 0,0.9 0.195,1.7 0.584,2.395 a 4.278,4.278 0 0 0 1.566,1.628 4.025,4.025 0 0 0 2.089,0.583 z m 9.676,-12.437 h 3.778 v 1.904 h 0.245 c 0.43,-0.676 1.055,-1.244 1.874,-1.705 0.818,-0.46 1.76,-0.69 2.825,-0.69 1.413,0 2.697,0.352 3.854,1.059 1.157,0.706 2.063,1.694 2.718,2.963 0.655,1.27 0.983,2.703 0.983,4.3 0,1.617 -0.328,3.056 -0.983,4.315 -0.655,1.259 -1.561,2.242 -2.718,2.948 -1.157,0.706 -2.441,1.06 -3.854,1.06 -1.065,0 -2.012,-0.226 -2.84,-0.676 -0.83,-0.45 -1.45,-1.014 -1.859,-1.69 h -0.245 l 0.245,2.212 v 6.295 h -4.023 z m 8.016,12.437 c 0.757,0 1.463,-0.194 2.119,-0.583 a 4.278,4.278 0 0 0 1.566,-1.628 c 0.389,-0.696 0.583,-1.494 0.583,-2.395 0,-0.901 -0.194,-1.7 -0.583,-2.396 a 4.164,4.164 0 0 0 -1.566,-1.612 4.163,4.163 0 0 0 -2.12,-0.568 c -0.736,0 -1.433,0.19 -2.088,0.568 a 4.164,4.164 0 0 0 -1.566,1.612 c -0.389,0.696 -0.583,1.495 -0.583,2.396 0,0.9 0.194,1.7 0.583,2.395 a 4.278,4.278 0 0 0 1.566,1.628 4.025,4.025 0 0 0 2.089,0.583 z m 22.301,3.716 c -1.925,0 -3.624,-0.542 -5.098,-1.627 -1.474,-1.085 -2.508,-2.62 -3.102,-4.607 l 3.9,-1.535 c 0.308,1.167 0.83,2.098 1.567,2.794 0.737,0.696 1.658,1.044 2.764,1.044 0.921,0 1.71,-0.23 2.364,-0.69 0.656,-0.461 0.983,-1.101 0.983,-1.92 0,-0.819 -0.312,-1.49 -0.937,-2.012 -0.624,-0.522 -1.735,-1.08 -3.332,-1.673 l -1.35,-0.492 c -1.414,-0.491 -2.621,-1.243 -3.625,-2.257 -1.003,-1.013 -1.505,-2.288 -1.505,-3.823 0,-1.147 0.297,-2.191 0.891,-3.133 0.594,-0.942 1.433,-1.684 2.518,-2.226 1.085,-0.543 2.314,-0.814 3.686,-0.814 1.986,0 3.552,0.466 4.698,1.397 1.147,0.932 1.935,2.022 2.365,3.27 l -3.655,1.536 a 3.66,3.66 0 0 0 -1.182,-1.704 c -0.563,-0.46 -1.285,-0.691 -2.165,-0.691 -0.9,0 -1.643,0.21 -2.226,0.63 -0.584,0.42 -0.876,0.967 -0.876,1.643 0,0.655 0.277,1.213 0.83,1.673 0.552,0.461 1.463,0.906 2.733,1.336 l 1.382,0.46 c 1.904,0.656 3.362,1.521 4.376,2.596 1.013,1.075 1.52,2.482 1.52,4.223 0,1.433 -0.368,2.646 -1.105,3.639 a 6.765,6.765 0 0 1 -2.841,2.226 9.065,9.065 0 0 1 -3.578,0.737 z m 15.696,-0.245 a 6.314,6.314 0 0 1 -2.15,-0.353 c -0.655,-0.236 -1.187,-0.558 -1.597,-0.968 -0.962,-0.921 -1.443,-2.231 -1.443,-3.93 v -7.218 h -2.733 v -3.44 h 2.733 v -4.422 h 4.023 v 4.423 h 3.839 v 3.44 h -3.84 v 6.48 c 0,0.798 0.175,1.37 0.523,1.719 0.287,0.327 0.778,0.491 1.474,0.491 0.39,0 0.712,-0.05 0.967,-0.153 a 7.45,7.45 0 0 0 0.999,-0.522 v 3.93 a 7.532,7.532 0 0 1 -2.795,0.523 z m 11.703,0.245 c -1.617,0 -3.06,-0.363 -4.33,-1.09 a 7.744,7.744 0 0 1 -2.963,-2.979 c -0.707,-1.259 -1.06,-2.677 -1.06,-4.253 0,-1.556 0.353,-2.969 1.06,-4.238 a 7.714,7.714 0 0 1 2.963,-2.995 c 1.27,-0.726 2.713,-1.09 4.33,-1.09 1.597,0 3.03,0.364 4.3,1.09 a 7.714,7.714 0 0 1 2.963,2.995 c 0.707,1.27 1.06,2.682 1.06,4.238 0,1.576 -0.353,2.994 -1.06,4.253 a 7.744,7.744 0 0 1 -2.963,2.98 c -1.27,0.726 -2.703,1.09 -4.3,1.09 z m 0,-3.716 a 4.31,4.31 0 0 0 2.15,-0.552 4.054,4.054 0 0 0 1.566,-1.597 c 0.39,-0.696 0.584,-1.515 0.584,-2.457 0,-0.922 -0.195,-1.73 -0.584,-2.426 a 4.054,4.054 0 0 0 -1.566,-1.597 4.31,4.31 0 0 0 -2.15,-0.553 4.31,4.31 0 0 0 -2.15,0.553 c -0.655,0.368 -1.182,0.9 -1.58,1.597 -0.4,0.696 -0.6,1.504 -0.6,2.426 0,0.921 0.2,1.735 0.6,2.441 0.398,0.707 0.925,1.244 1.58,1.613 a 4.31,4.31 0 0 0 2.15,0.552 z m 9.83,-12.437 h 3.778 v 2.088 h 0.246 c 0.389,-0.737 0.993,-1.346 1.812,-1.827 a 5.238,5.238 0 0 1 2.702,-0.722 c 0.717,0 1.372,0.113 1.966,0.338 v 4.023 a 13.04,13.04 0 0 0 -1.398,-0.445 5.12,5.12 0 0 0 -1.213,-0.139 c -1.187,0 -2.13,0.43 -2.825,1.29 -0.696,0.86 -1.044,1.945 -1.044,3.256 v 7.8 h -4.023 V 50.39 Z m 18.276,16.153 c -1.556,0 -2.958,-0.358 -4.207,-1.075 a 7.696,7.696 0 0 1 -2.933,-2.963 c -0.706,-1.26 -1.06,-2.677 -1.06,-4.253 a 8.57,8.57 0 0 1 1.045,-4.162 8.041,8.041 0 0 1 2.886,-3.055 c 1.229,-0.758 2.6,-1.137 4.116,-1.137 1.617,0 3.01,0.348 4.176,1.044 a 6.808,6.808 0 0 1 2.657,2.856 c 0.604,1.208 0.906,2.55 0.906,4.024 0,0.47 -0.031,0.92 -0.093,1.35 H 218.21 c 0.205,1.25 0.702,2.197 1.49,2.842 0.788,0.644 1.735,0.967 2.84,0.967 0.922,0 1.715,-0.2 2.38,-0.599 a 4.423,4.423 0 0 0 1.582,-1.612 l 3.256,1.597 c -1.597,2.784 -4.024,4.176 -7.279,4.176 z m 3.716,-10.226 c -0.04,-0.492 -0.22,-0.978 -0.537,-1.459 -0.318,-0.481 -0.758,-0.88 -1.32,-1.198 -0.564,-0.317 -1.224,-0.476 -1.982,-0.476 -0.962,0 -1.786,0.282 -2.472,0.845 -0.686,0.563 -1.182,1.325 -1.49,2.288 z"
         style="fill:#022b69;fill-rule:nonzero" />
    </g>
  </g>
</svg>
