<?xml version="1.0" encoding="UTF-8" standalone="no"?>
<svg
   xmlns:dc="http://purl.org/dc/elements/1.1/"
   xmlns:cc="http://creativecommons.org/ns#"
   xmlns:rdf="http://www.w3.org/1999/02/22-rdf-syntax-ns#"
   xmlns:svg="http://www.w3.org/2000/svg"
   xmlns="http://www.w3.org/2000/svg"
   id="svg4510"
   version="1.1"
   viewBox="0 0 54.660583 18.141043"
   height="18.141043mm"
   width="54.660583mm">
  <defs
     id="defs4504" />
  <metadata
     id="metadata4507">
    <rdf:RDF>
      <cc:Work
         rdf:about="">
        <dc:format>image/svg+xml</dc:format>
        <dc:type
           rdf:resource="http://purl.org/dc/dcmitype/StillImage" />
        <dc:title></dc:title>
      </cc:Work>
    </rdf:RDF>
  </metadata>
  <g
     transform="translate(-27.854233,-58.119955)"
     id="layer1">
    <g
       id="g1556"
       style="fill:none;fill-rule:evenodd;enable-background:new"
       transform="matrix(0.20792979,0,0,0.20792979,27.854233,58.119955)">
      <path
         id="path1552"
         d="m 10.168,0 h 242.544 c 3.535,0 4.817,0.368 6.11,1.06 a 7.207,7.207 0 0 1 2.998,2.998 c 0.691,1.292 1.06,2.574 1.06,6.11 v 66.91 c 0,3.536 -0.369,4.818 -1.06,6.11 a 7.207,7.207 0 0 1 -2.998,2.998 c -1.293,0.692 -2.575,1.06 -6.11,1.06 H 10.168 c -3.536,0 -4.818,-0.368 -6.11,-1.06 A 7.207,7.207 0 0 1 1.059,83.188 C 0.37,81.896 0,80.614 0,77.078 V 10.168 C 0,6.632 0.368,5.35 1.06,4.058 A 7.207,7.207 0 0 1 4.058,1.059 C 5.35,0.37 6.632,0 10.168,0 Z"
         style="fill:#ffffff" />
      <path
         id="path1554"
         d="m 34.333,64.665 c 0.942,0.165 2.055,-0.038 3.245,-0.67 l 20.867,-11.082 -6.07,-5.96 z M 32.61,26.65 c -0.517,0.746 -0.815,1.773 -0.815,3.037 v 30.788 c 0,1.231 0.282,2.237 0.773,2.977 L 50.83,45.029 Z M 59.714,37.196 38.784,26.109 c -1.163,-0.616 -2.253,-0.827 -3.182,-0.686 l 18.05,17.724 z m 1.552,14.835 6.062,-3.15 c 3.386,-1.757 3.384,-4.63 -0.004,-6.384 L 61.229,39.34 54.638,45.667 Z M 104.56,31.302 a 6.578,6.578 0 0 1 -3.313,-0.863 6.468,6.468 0 0 1 -2.406,-2.371 c -0.593,-1.005 -0.89,-2.124 -0.89,-3.358 0,-1.233 0.297,-2.353 0.89,-3.357 a 6.468,6.468 0 0 1 2.406,-2.37 6.578,6.578 0 0 1 3.313,-0.865 c 0.952,0 1.84,0.17 2.662,0.512 0.822,0.34 1.51,0.816 2.062,1.427 l -1.375,1.375 a 4.191,4.191 0 0 0 -1.471,-1.058 4.72,4.72 0 0 0 -1.895,-0.37 c -0.811,0 -1.569,0.194 -2.274,0.582 a 4.404,4.404 0 0 0 -1.692,1.657 c -0.423,0.717 -0.634,1.539 -0.634,2.467 0,0.929 0.211,1.751 0.634,2.468 a 4.404,4.404 0 0 0 1.692,1.657 4.678,4.678 0 0 0 2.291,0.581 c 0.752,0 1.381,-0.111 1.886,-0.335 a 4.79,4.79 0 0 0 1.357,-0.898 c 0.259,-0.259 0.48,-0.582 0.661,-0.97 a 4.23,4.23 0 0 0 0.362,-1.269 h -4.283 v -1.762 h 6.151 c 0.059,0.329 0.088,0.67 0.088,1.022 0,0.799 -0.123,1.566 -0.37,2.3 a 4.852,4.852 0 0 1 -1.18,1.912 c -1.188,1.258 -2.745,1.886 -4.672,1.886 z m 12.197,0 c -0.881,0 -1.671,-0.205 -2.37,-0.617 a 4.347,4.347 0 0 1 -1.64,-1.7 c -0.393,-0.723 -0.59,-1.537 -0.59,-2.442 a 5.1,5.1 0 0 1 0.573,-2.388 4.505,4.505 0 0 1 1.595,-1.754 c 0.681,-0.434 1.457,-0.652 2.326,-0.652 0.905,0 1.69,0.2 2.353,0.6 0.664,0.399 1.17,0.945 1.516,1.639 0.347,0.693 0.52,1.474 0.52,2.344 0,0.164 -0.017,0.37 -0.053,0.617 h -6.891 c 0.07,0.834 0.367,1.477 0.89,1.93 a 2.703,2.703 0 0 0 1.824,0.678 c 0.552,0 1.031,-0.126 1.437,-0.379 0.405,-0.252 0.731,-0.596 0.978,-1.03 l 1.639,0.775 a 4.83,4.83 0 0 1 -1.657,1.745 c -0.681,0.423 -1.498,0.634 -2.45,0.634 z m 2.31,-5.834 a 2.24,2.24 0 0 0 -0.3,-0.943 2.144,2.144 0 0 0 -0.802,-0.784 c -0.359,-0.212 -0.797,-0.317 -1.314,-0.317 -0.622,0 -1.148,0.185 -1.577,0.555 -0.429,0.37 -0.726,0.866 -0.89,1.49 h 4.882 z m 7.155,5.693 c -0.4,0 -0.775,-0.064 -1.128,-0.194 -0.352,-0.129 -0.64,-0.3 -0.864,-0.51 -0.505,-0.506 -0.758,-1.193 -0.758,-2.063 v -4.653 h -1.568 v -1.71 h 1.568 v -2.538 h 1.94 v 2.538 h 2.185 v 1.71 h -2.186 v 4.23 c 0,0.482 0.094,0.823 0.282,1.022 0.177,0.235 0.482,0.353 0.917,0.353 0.2,0 0.376,-0.027 0.529,-0.08 0.152,-0.052 0.317,-0.138 0.493,-0.255 v 1.886 c -0.388,0.176 -0.858,0.264 -1.41,0.264 z m 8.46,-10.434 c -0.364,0 -0.672,-0.126 -0.925,-0.379 a 1.259,1.259 0 0 1 -0.379,-0.925 c 0,-0.365 0.126,-0.673 0.379,-0.926 0.253,-0.252 0.561,-0.379 0.925,-0.379 0.365,0 0.673,0.127 0.926,0.38 0.252,0.252 0.379,0.56 0.379,0.925 0,0.364 -0.127,0.672 -0.38,0.925 a 1.259,1.259 0 0 1 -0.925,0.379 z m -0.97,1.304 h 1.94 v 8.99 h -1.94 z m 7.95,9.13 c -0.4,0 -0.776,-0.064 -1.128,-0.194 -0.353,-0.129 -0.64,-0.3 -0.864,-0.51 -0.505,-0.506 -0.758,-1.193 -0.758,-2.063 v -4.653 h -1.568 v -1.71 h 1.568 v -2.538 h 1.94 v 2.538 h 2.185 v 1.71 h -2.186 v 4.23 c 0,0.482 0.094,0.823 0.282,1.022 0.176,0.235 0.482,0.353 0.917,0.353 0.2,0 0.376,-0.027 0.528,-0.08 0.153,-0.052 0.318,-0.138 0.494,-0.255 v 1.886 c -0.388,0.176 -0.858,0.264 -1.41,0.264 z m 11.562,0.141 c -0.905,0 -1.715,-0.208 -2.432,-0.625 a 4.4,4.4 0 0 1 -1.675,-1.719 c -0.399,-0.728 -0.599,-1.54 -0.599,-2.432 0,-0.893 0.2,-1.704 0.6,-2.433 a 4.4,4.4 0 0 1 1.674,-1.718 c 0.717,-0.417 1.527,-0.626 2.432,-0.626 0.905,0 1.716,0.212 2.433,0.635 a 4.462,4.462 0 0 1 1.674,1.727 c 0.4,0.729 0.6,1.533 0.6,2.415 0,0.893 -0.2,1.704 -0.6,2.432 a 4.4,4.4 0 0 1 -1.674,1.719 c -0.717,0.417 -1.528,0.625 -2.433,0.625 z m 0,-1.78 c 0.494,0 0.952,-0.12 1.375,-0.361 0.423,-0.241 0.76,-0.588 1.013,-1.04 0.253,-0.453 0.38,-0.984 0.38,-1.595 0,-0.611 -0.127,-1.14 -0.38,-1.587 a 2.672,2.672 0 0 0 -1.013,-1.03 2.732,2.732 0 0 0 -1.375,-0.362 c -0.493,0 -0.952,0.12 -1.375,0.361 -0.423,0.241 -0.76,0.585 -1.013,1.031 -0.253,0.447 -0.379,0.976 -0.379,1.587 0,0.61 0.126,1.142 0.379,1.595 0.253,0.452 0.59,0.799 1.013,1.04 0.423,0.24 0.882,0.361 1.375,0.361 z m 6.31,-7.49 h 1.85 v 1.18 h 0.089 c 0.258,-0.423 0.643,-0.772 1.154,-1.049 a 3.38,3.38 0 0 1 1.63,-0.414 c 1.093,0 1.925,0.32 2.495,0.96 0.57,0.641 0.855,1.514 0.855,2.618 v 5.693 h -1.94 v -5.428 c 0,-0.705 -0.173,-1.222 -0.52,-1.551 -0.346,-0.33 -0.825,-0.494 -1.436,-0.494 -0.434,0 -0.822,0.12 -1.163,0.361 -0.34,0.241 -0.605,0.561 -0.793,0.96 -0.188,0.4 -0.282,0.83 -0.282,1.288 v 4.864 h -1.939 v -8.989 z m -61.879,22.03 h 7.74 c 1.392,0 2.661,0.292 3.808,0.876 1.146,0.583 2.047,1.402 2.702,2.456 0.655,1.055 0.983,2.258 0.983,3.609 0,1.351 -0.328,2.559 -0.983,3.624 a 6.64,6.64 0 0 1 -2.702,2.472 c -1.147,0.583 -2.416,0.875 -3.808,0.875 H 101.8 v 8.077 H 97.654 V 44.063 Z m 7.862,9.981 c 1.024,0 1.828,-0.297 2.411,-0.89 0.584,-0.594 0.875,-1.31 0.875,-2.15 0,-0.84 -0.291,-1.551 -0.875,-2.135 -0.583,-0.583 -1.387,-0.875 -2.41,-0.875 H 101.8 v 6.05 h 3.716 z m 9.216,-9.98 h 4.023 v 21.988 h -4.023 z m 11.366,22.48 c -1.658,0 -3.02,-0.487 -4.084,-1.46 -1.065,-0.972 -1.597,-2.246 -1.597,-3.823 0,-1.044 0.276,-1.965 0.829,-2.764 0.553,-0.798 1.31,-1.412 2.272,-1.842 0.963,-0.43 2.027,-0.645 3.194,-0.645 1.618,0 3,0.235 4.146,0.706 v -0.676 c 0,-0.86 -0.322,-1.556 -0.967,-2.088 -0.645,-0.532 -1.51,-0.798 -2.595,-0.798 -0.737,0 -1.449,0.168 -2.135,0.506 a 5.029,5.029 0 0 0 -1.704,1.336 l -2.58,-2.027 a 7.579,7.579 0 0 1 2.856,-2.272 c 1.147,-0.533 2.396,-0.799 3.747,-0.799 2.395,0 4.218,0.553 5.466,1.659 1.25,1.105 1.874,2.723 1.874,4.852 v 9.643 h -3.962 v -1.597 h -0.246 c -0.47,0.614 -1.09,1.116 -1.858,1.505 -0.767,0.389 -1.653,0.583 -2.656,0.583 z m 0.952,-3.133 c 1.167,0 2.093,-0.374 2.78,-1.121 0.685,-0.747 1.028,-1.623 1.028,-2.626 a 7.627,7.627 0 0 0 -3.286,-0.737 c -2.088,0 -3.132,0.778 -3.132,2.334 0,0.635 0.225,1.152 0.675,1.551 0.45,0.4 1.096,0.599 1.935,0.599 z m 14.805,1.904 -6.602,-14.925 h 4.575 l 4.054,9.735 h 0.246 l 3.9,-9.735 h 4.484 l -9.674,22.295 h -4.33 z m 23.807,1.228 c -1.925,0 -3.624,-0.542 -5.098,-1.627 -1.475,-1.085 -2.508,-2.62 -3.102,-4.607 l 3.9,-1.535 c 0.307,1.167 0.83,2.098 1.566,2.794 0.737,0.696 1.659,1.044 2.764,1.044 0.922,0 1.71,-0.23 2.365,-0.69 0.655,-0.461 0.983,-1.101 0.983,-1.92 0,-0.819 -0.313,-1.49 -0.937,-2.012 -0.624,-0.522 -1.735,-1.08 -3.332,-1.673 l -1.351,-0.492 c -1.413,-0.491 -2.62,-1.243 -3.624,-2.257 -1.003,-1.013 -1.505,-2.288 -1.505,-3.823 0,-1.147 0.297,-2.191 0.89,-3.133 0.594,-0.942 1.434,-1.684 2.519,-2.226 1.085,-0.543 2.313,-0.814 3.685,-0.814 1.986,0 3.552,0.466 4.699,1.397 1.146,0.932 1.935,2.022 2.365,3.27 l -3.655,1.536 a 3.66,3.66 0 0 0 -1.182,-1.704 c -0.563,-0.46 -1.285,-0.691 -2.165,-0.691 -0.901,0 -1.643,0.21 -2.227,0.63 -0.583,0.42 -0.875,0.967 -0.875,1.643 0,0.655 0.276,1.213 0.829,1.673 0.553,0.461 1.464,0.906 2.733,1.336 l 1.382,0.46 c 1.904,0.656 3.363,1.521 4.376,2.596 1.014,1.075 1.52,2.482 1.52,4.223 0,1.433 -0.368,2.646 -1.105,3.639 a 6.765,6.765 0 0 1 -2.84,2.226 9.065,9.065 0 0 1 -3.578,0.737 z m 15.695,-0.245 a 6.314,6.314 0 0 1 -2.15,-0.353 c -0.654,-0.236 -1.187,-0.558 -1.596,-0.968 -0.963,-0.921 -1.444,-2.231 -1.444,-3.93 v -7.218 h -2.733 v -3.44 h 2.733 v -4.422 h 4.023 v 4.423 h 3.84 v 3.44 h -3.84 v 6.48 c 0,0.798 0.174,1.37 0.523,1.719 0.286,0.327 0.778,0.491 1.474,0.491 0.389,0 0.711,-0.05 0.967,-0.153 a 7.45,7.45 0 0 0 0.998,-0.522 v 3.93 a 7.532,7.532 0 0 1 -2.795,0.523 z m 11.704,0.245 c -1.617,0 -3.06,-0.363 -4.33,-1.09 a 7.744,7.744 0 0 1 -2.964,-2.979 c -0.706,-1.259 -1.06,-2.677 -1.06,-4.253 0,-1.556 0.354,-2.969 1.06,-4.238 a 7.714,7.714 0 0 1 2.964,-2.995 c 1.27,-0.726 2.713,-1.09 4.33,-1.09 1.597,0 3.03,0.364 4.3,1.09 a 7.714,7.714 0 0 1 2.963,2.995 c 0.706,1.27 1.06,2.682 1.06,4.238 0,1.576 -0.354,2.994 -1.06,4.253 a 7.744,7.744 0 0 1 -2.964,2.98 c -1.269,0.726 -2.702,1.09 -4.3,1.09 z m 0,-3.716 a 4.31,4.31 0 0 0 2.15,-0.552 4.054,4.054 0 0 0 1.566,-1.597 c 0.389,-0.696 0.583,-1.515 0.583,-2.457 0,-0.922 -0.194,-1.73 -0.583,-2.426 a 4.054,4.054 0 0 0 -1.566,-1.597 4.31,4.31 0 0 0 -2.15,-0.553 4.31,4.31 0 0 0 -2.15,0.553 c -0.655,0.368 -1.182,0.9 -1.581,1.597 -0.4,0.696 -0.6,1.504 -0.6,2.426 0,0.921 0.2,1.735 0.6,2.441 0.399,0.707 0.926,1.244 1.581,1.613 a 4.31,4.31 0 0 0 2.15,0.552 z m 9.83,-12.437 h 3.777 v 2.088 h 0.246 c 0.39,-0.737 0.993,-1.346 1.812,-1.827 a 5.238,5.238 0 0 1 2.703,-0.722 c 0.716,0 1.371,0.113 1.965,0.338 v 4.023 a 13.04,13.04 0 0 0 -1.397,-0.445 5.12,5.12 0 0 0 -1.213,-0.139 c -1.188,0 -2.13,0.43 -2.826,1.29 -0.696,0.86 -1.044,1.945 -1.044,3.256 v 7.8 h -4.023 V 50.39 Z m 18.276,16.153 c -1.556,0 -2.959,-0.358 -4.208,-1.075 a 7.696,7.696 0 0 1 -2.933,-2.963 c -0.706,-1.26 -1.06,-2.677 -1.06,-4.253 a 8.57,8.57 0 0 1 1.045,-4.162 8.041,8.041 0 0 1 2.887,-3.055 c 1.228,-0.758 2.6,-1.137 4.115,-1.137 1.618,0 3.01,0.348 4.177,1.044 a 6.808,6.808 0 0 1 2.656,2.856 c 0.604,1.208 0.906,2.55 0.906,4.024 0,0.47 -0.03,0.92 -0.092,1.35 h -11.762 c 0.205,1.25 0.701,2.197 1.49,2.842 0.788,0.644 1.734,0.967 2.84,0.967 0.921,0 1.715,-0.2 2.38,-0.599 a 4.423,4.423 0 0 0 1.582,-1.612 l 3.255,1.597 c -1.597,2.784 -4.023,4.176 -7.278,4.176 z m 3.716,-10.226 c -0.041,-0.492 -0.22,-0.978 -0.538,-1.459 -0.317,-0.481 -0.757,-0.88 -1.32,-1.198 -0.563,-0.317 -1.224,-0.476 -1.981,-0.476 -0.962,0 -1.787,0.282 -2.472,0.845 -0.686,0.563 -1.183,1.325 -1.49,2.288 h 7.8 z"
         style="fill:#022b69;fill-rule:nonzero" />
    </g>
  </g>
</svg>
