<?xml version="1.0" encoding="UTF-8" standalone="no"?>
<svg
   xmlns:dc="http://purl.org/dc/elements/1.1/"
   xmlns:cc="http://creativecommons.org/ns#"
   xmlns:rdf="http://www.w3.org/1999/02/22-rdf-syntax-ns#"
   xmlns:svg="http://www.w3.org/2000/svg"
   xmlns="http://www.w3.org/2000/svg"
   id="svg3177"
   version="1.1"
   viewBox="0 0 14.045213 14.045213"
   height="14.045213mm"
   width="14.045213mm">
  <defs
     id="defs3171" />
  <metadata
     id="metadata3174">
    <rdf:RDF>
      <cc:Work
         rdf:about="">
        <dc:format>image/svg+xml</dc:format>
        <dc:type
           rdf:resource="http://purl.org/dc/dcmitype/StillImage" />
        <dc:title></dc:title>
      </cc:Work>
    </rdf:RDF>
  </metadata>
  <g
     transform="translate(-233.17298,-219.11467)"
     id="layer1">
    <g
       style="fill:#008000;enable-background:new"
       transform="matrix(0.02926086,0,0,0.02926086,233.17298,219.11467)"
       id="g1468">
      <g
         style="fill:#008000"
         id="g1177">
        <g
           style="fill:#008000"
           id="g1175">
          <path
             style="fill:#008000"
             d="m 436.68,137.504 c -2.104,-1.504 -4.784,-1.928 -7.208,-1.096 l -21.472,7.16 -21.472,-7.16 c -2.024,-0.688 -4.208,-0.52 -6.112,0.432 L 376,139.056 V 136 40 C 376,17.944 358.056,0 336,0 H 144 c -22.056,0 -40,17.944 -40,40 v 400 c 0,22.056 17.944,40 40,40 h 192 c 22.056,0 40,-17.944 40,-40 V 208 h 24 c 22.056,0 40,-17.944 40,-40 v -24 c 0,-2.568 -1.232,-4.984 -3.32,-6.496 z M 120,40 c 0,-13.232 10.768,-24 24,-24 h 192 c 13.232,0 24,10.768 24,24 V 56 H 120 Z m 240,400 c 0,13.232 -10.768,24 -24,24 H 144 c -13.232,0 -24,-10.768 -24,-24 v -16 h 240 z m 0,-32 H 120 V 72 h 240 v 32.208 C 353.296,99.128 345.04,96 336,96 H 208 c -22.056,0 -40,17.944 -40,40 v 136 c -13.232,0 -24,10.768 -24,24 0,13.232 10.768,24 24,24 h 8 128 8 c 13.232,0 24,-10.768 24,-24 0,-13.232 -10.768,-24 -24,-24 v -64 h 48 z M 312,288 c 4.416,0 8,3.584 8,8 0,4.416 -3.584,8 -8,8 z m -7.984,-176 c -0.24,0.312 -0.408,0.672 -0.632,1 -0.456,0.648 -0.848,1.32 -1.272,1.992 -0.848,1.368 -1.624,2.776 -2.304,4.248 -0.36,0.768 -0.696,1.528 -1,2.32 -0.608,1.552 -1.08,3.16 -1.496,4.8 -0.184,0.744 -0.416,1.464 -0.56,2.224 C 296.296,130.992 296,133.456 296,136 v 64 104 H 184 V 136 c 0,-13.232 10.768,-24 24,-24 z M 168,288 v 16 c -4.416,0 -8,-3.584 -8,-8 0,-4.416 3.584,-8 8,-8 z m 144,-95.992 v -56 c 0,-13.232 10.768,-24 24,-24 13.232,0 24,10.768 24,24 v 16 8 7.992 c 0,2.544 0.296,5.008 0.752,7.424 0.144,0.76 0.376,1.48 0.56,2.224 0.408,1.64 0.888,3.248 1.496,4.8 0.312,0.792 0.648,1.552 1,2.32 0.688,1.472 1.456,2.88 2.304,4.248 0.416,0.672 0.816,1.352 1.272,1.992 0.224,0.32 0.4,0.68 0.632,1 z M 424,168 c 0,13.232 -10.768,24 -24,24 -13.232,0 -24,-10.768 -24,-24 v -8 -3.056 l 8.616,-4.304 20.848,6.944 c 1.64,0.544 3.424,0.544 5.064,0 L 424,155.104 Z"
             id="path1173" />
        </g>
      </g>
      <g
         style="fill:#008000"
         id="g1183">
        <g
           style="fill:#008000"
           id="g1181">
          <rect
             style="fill:#008000"
             x="200"
             y="264"
             width="40"
             height="16"
             id="rect1179" />
        </g>
      </g>
      <g
         style="fill:#008000"
         id="g1189">
        <g
           style="fill:#008000"
           id="g1187">
          <rect
             style="fill:#008000"
             x="264"
             y="264"
             width="16"
             height="16"
             id="rect1185" />
        </g>
      </g>
      <g
         style="fill:#008000"
         id="g1195">
        <g
           style="fill:#008000"
           id="g1193">
          <rect
             style="fill:#008000"
             x="200"
             y="232"
             width="40"
             height="16"
             id="rect1191" />
        </g>
      </g>
      <g
         style="fill:#008000"
         id="g1201">
        <g
           style="fill:#008000"
           id="g1199">
          <rect
             style="fill:#008000"
             x="264"
             y="232"
             width="16"
             height="16"
             id="rect1197" />
        </g>
      </g>
      <g
         style="fill:#008000"
         id="g1207">
        <g
           style="fill:#008000"
           id="g1205">
          <rect
             style="fill:#008000"
             x="200"
             y="200"
             width="40"
             height="16"
             id="rect1203" />
        </g>
      </g>
      <g
         style="fill:#008000"
         id="g1213">
        <g
           style="fill:#008000"
           id="g1211">
          <rect
             style="fill:#008000"
             x="264"
             y="200"
             width="16"
             height="16"
             id="rect1209" />
        </g>
      </g>
      <g
         style="fill:#008000"
         id="g1219">
        <g
           style="fill:#008000"
           id="g1217">
          <rect
             style="fill:#008000"
             x="200"
             y="168"
             width="40"
             height="16"
             id="rect1215" />
        </g>
      </g>
      <g
         style="fill:#008000"
         id="g1225">
        <g
           style="fill:#008000"
           id="g1223">
          <rect
             style="fill:#008000"
             x="264"
             y="168"
             width="16"
             height="16"
             id="rect1221" />
        </g>
      </g>
      <g
         style="fill:#008000"
         id="g1231">
        <g
           style="fill:#008000"
           id="g1229">
          <rect
             style="fill:#008000"
             x="200"
             y="136"
             width="40"
             height="16"
             id="rect1227" />
        </g>
      </g>
      <g
         style="fill:#008000"
         id="g1237">
        <g
           style="fill:#008000"
           id="g1235">
          <rect
             style="fill:#008000"
             x="264"
             y="136"
             width="16"
             height="16"
             id="rect1233" />
        </g>
      </g>
      <g
         style="fill:#008000"
         id="g1243">
        <g
           style="fill:#008000"
           id="g1241">
          <rect
             style="fill:#008000"
             x="184"
             y="336"
             width="16"
             height="16"
             id="rect1239" />
        </g>
      </g>
      <g
         style="fill:#008000"
         id="g1249">
        <g
           style="fill:#008000"
           id="g1247">
          <rect
             style="fill:#008000"
             x="216"
             y="336"
             width="16"
             height="16"
             id="rect1245" />
        </g>
      </g>
      <g
         style="fill:#008000"
         id="g1255">
        <g
           style="fill:#008000"
           id="g1253">
          <rect
             style="fill:#008000"
             x="248"
             y="336"
             width="16"
             height="16"
             id="rect1251" />
        </g>
      </g>
      <g
         style="fill:#008000"
         id="g1261">
        <g
           style="fill:#008000"
           id="g1259">
          <rect
             style="fill:#008000"
             x="280"
             y="336"
             width="16"
             height="16"
             id="rect1257" />
        </g>
      </g>
      <g
         style="fill:#008000"
         id="g1267">
        <g
           style="fill:#008000"
           id="g1265">
          <rect
             style="fill:#008000"
             x="184"
             y="368"
             width="16"
             height="16"
             id="rect1263" />
        </g>
      </g>
      <g
         style="fill:#008000"
         id="g1273">
        <g
           style="fill:#008000"
           id="g1271">
          <rect
             style="fill:#008000"
             x="216"
             y="368"
             width="16"
             height="16"
             id="rect1269" />
        </g>
      </g>
      <g
         style="fill:#008000"
         id="g1279">
        <g
           style="fill:#008000"
           id="g1277">
          <rect
             style="fill:#008000"
             x="248"
             y="368"
             width="16"
             height="16"
             id="rect1275" />
        </g>
      </g>
      <g
         style="fill:#008000"
         id="g1285">
        <g
           style="fill:#008000"
           id="g1283">
          <rect
             style="fill:#008000"
             x="280"
             y="368"
             width="16"
             height="16"
             id="rect1281" />
        </g>
      </g>
      <g
         style="fill:#008000"
         id="g1291">
        <g
           style="fill:#008000"
           id="g1289">
          <rect
             style="fill:#008000"
             x="32"
             y="232"
             width="16"
             height="16"
             id="rect1287" />
        </g>
      </g>
      <g
         style="fill:#008000"
         id="g1297">
        <g
           style="fill:#008000"
           id="g1295">
          <rect
             style="fill:#008000"
             x="0"
             y="264"
             width="16"
             height="16"
             id="rect1293" />
        </g>
      </g>
      <g
         style="fill:#008000"
         id="g1303">
        <g
           style="fill:#008000"
           id="g1301">
          <rect
             style="fill:#008000"
             x="0"
             y="232"
             width="16"
             height="16"
             id="rect1299" />
        </g>
      </g>
      <g
         style="fill:#008000"
         id="g1309">
        <g
           style="fill:#008000"
           id="g1307">
          <rect
             style="fill:#008000"
             x="0"
             y="200"
             width="16"
             height="16"
             id="rect1305" />
        </g>
      </g>
      <g
         style="fill:#008000"
         id="g1315">
        <g
           style="fill:#008000"
           id="g1313">
          <rect
             style="fill:#008000"
             x="432"
             y="232"
             width="16"
             height="16"
             id="rect1311" />
        </g>
      </g>
      <g
         style="fill:#008000"
         id="g1321">
        <g
           style="fill:#008000"
           id="g1319">
          <rect
             style="fill:#008000"
             x="464"
             y="200"
             width="16"
             height="16"
             id="rect1317" />
        </g>
      </g>
      <g
         style="fill:#008000"
         id="g1327">
        <g
           style="fill:#008000"
           id="g1325">
          <rect
             style="fill:#008000"
             x="464"
             y="232"
             width="16"
             height="16"
             id="rect1323" />
        </g>
      </g>
      <g
         style="fill:#008000"
         id="g1333">
        <g
           style="fill:#008000"
           id="g1331">
          <rect
             style="fill:#008000"
             x="464"
             y="264"
             width="16"
             height="16"
             id="rect1329" />
        </g>
      </g>
      <g
         style="fill:#008000"
         id="g1335" />
      <g
         style="fill:#008000"
         id="g1337" />
      <g
         style="fill:#008000"
         id="g1339" />
      <g
         style="fill:#008000"
         id="g1341" />
      <g
         style="fill:#008000"
         id="g1343" />
      <g
         style="fill:#008000"
         id="g1345" />
      <g
         style="fill:#008000"
         id="g1347" />
      <g
         style="fill:#008000"
         id="g1349" />
      <g
         style="fill:#008000"
         id="g1351" />
      <g
         style="fill:#008000"
         id="g1353" />
      <g
         style="fill:#008000"
         id="g1355" />
      <g
         style="fill:#008000"
         id="g1357" />
      <g
         style="fill:#008000"
         id="g1359" />
      <g
         style="fill:#008000"
         id="g1361" />
      <g
         style="fill:#008000"
         id="g1363" />
    </g>
  </g>
</svg>
