<?xml version="1.0" encoding="UTF-8" standalone="no"?>
<svg
   xmlns:dc="http://purl.org/dc/elements/1.1/"
   xmlns:cc="http://creativecommons.org/ns#"
   xmlns:rdf="http://www.w3.org/1999/02/22-rdf-syntax-ns#"
   xmlns:svg="http://www.w3.org/2000/svg"
   xmlns="http://www.w3.org/2000/svg"
   id="svg3177"
   version="1.1"
   viewBox="0 0 13.650829 13.651"
   height="13.651mm"
   width="13.650829mm">
  <defs
     id="defs3171" />
  <metadata
     id="metadata3174">
    <rdf:RDF>
      <cc:Work
         rdf:about="">
        <dc:format>image/svg+xml</dc:format>
        <dc:type
           rdf:resource="http://purl.org/dc/dcmitype/StillImage" />
        <dc:title></dc:title>
      </cc:Work>
    </rdf:RDF>
  </metadata>
  <g
     transform="translate(-99.007918,-113.28165)"
     id="layer1">
    <g
       style="fill:#008000;enable-background:new"
       transform="matrix(0.0146,0,0,0.0146,99.000618,113.28165)"
       id="surface1">
      <path
         d="M 924.64844,125.42578 535.07812,0.761719 c -3.08593,-1.015625 -6.41796,-1.015625 -9.51171,0 L 135.99609,125.42578 c -6.45312,2.06641 -10.82812,8.06641 -10.82812,14.83984 v 62.32813 c 0,8.60547 6.97656,15.58594 15.58594,15.58594 H 187.5 v 109.07812 h 31.16406 V 218.17969 H 281 v 140.25 h 31.16797 v -140.25 H 374.5 v 140.25 h 31.16406 v -140.25 H 468 v 140.25 h 31.15625 v -140.25 h 62.33594 v 155.82812 h 31.17187 V 218.17969 h 62.32422 v 218.16015 h 31.16797 V 218.17969 h 62.33594 v 296.07812 h -15.58594 v 31.16406 h 171.41797 v 62.33204 H 748.49219 v 31.16406 h 171.41015 c 8.60547,0 15.58594,-6.96875 15.58594,-15.57813 v -93.5 c 0,-8.60937 -6.98047,-15.58203 -15.58594,-15.58203 h -46.75 V 218.17969 h 46.75 c 8.60547,0 15.58594,-6.98047 15.58594,-15.58594 v -62.32813 c 0,-6.77343 -4.38672,-12.77343 -10.83984,-14.83984 z M 841.98828,514.25781 H 779.65625 V 218.17969 h 62.33203 z M 904.32422,187.01562 H 156.33984 V 151.62109 L 530.32812,31.957031 904.32422,151.62109 Z m 0,0"
         style="fill:#008000;fill-opacity:1;fill-rule:nonzero;stroke:none"
         id="path1054" />
      <path
         d="m 483.58203,109.09375 c 0,25.82031 20.92578,46.75 46.74609,46.75 25.8125,0 46.75,-20.92969 46.75,-46.75 0,-25.824219 -20.9375,-46.75 -46.75,-46.75 -25.82031,0 -46.74609,20.925781 -46.74609,46.75 z m 62.32422,0 c 0,8.60547 -6.96875,15.58594 -15.57813,15.58594 -8.60546,0 -15.58593,-6.98047 -15.58593,-15.58594 0,-8.60547 6.98047,-15.585938 15.58593,-15.585938 8.60938,0 15.57813,6.980468 15.57813,15.585938 z m 0,0"
         style="fill:#008000;fill-opacity:1;fill-rule:nonzero;stroke:none"
         id="path1056-3" />
      <path
         d="m 16.082031,716.83984 h 59.433594 c 10.570313,31.91016 27.457035,61.36328 49.652345,86.60157 v 115.97265 c 0,8.60938 6.97656,15.58594 15.58594,15.58594 H 265.41797 C 274.01953,935 281,928.02344 281,919.41406 v -33.11328 c 10.33984,1.29297 20.75,1.94141 31.16797,1.95313 H 468 c 10.41406,-0.0117 20.82031,-0.66016 31.15625,-1.95313 v 33.11328 c 0,8.60938 6.98047,15.58594 15.58594,15.58594 h 124.67187 c 8.60156,0 15.57422,-6.97656 15.57422,-15.58594 V 803.46484 c 30.30078,-34.32422 50.53906,-76.33984 58.5,-121.42578 2.50781,-6.28125 3.80469,-12.98047 3.83594,-19.74609 v -23.375 C 717.15625,501.28516 605.62891,389.75 468,389.59375 H 312.16797 c -25.42188,-0.008 -50.69531,3.92187 -74.91406,11.66016 -18.85547,-35.85938 -55.99219,-58.33594 -96.5,-58.41016 -8.60938,0 -15.58594,6.98047 -15.58594,15.58594 v 115.91797 c -22.17969,25.27343 -39.066408,54.73828 -49.652345,86.66015 H 16.082031 C 7.480469,561.00781 0.5,567.98437 0.5,576.59375 v 124.66016 c 0,8.60546 6.980469,15.58593 15.582031,15.58593 z M 31.667969,592.16797 h 55.417969 c 6.996093,0 13.148442,-4.66797 15.015622,-11.41797 9.33985,-33.51172 26.5,-64.3125 50.10156,-89.86719 2.65235,-2.8789 4.1211,-6.64453 4.13672,-10.55469 V 375.55859 c 26.72657,5.52344 48.625,24.60547 57.77735,50.32032 1.39843,3.96093 4.34765,7.1875 8.15625,8.94921 3.8125,1.75391 8.17578,1.90625 12.09765,0.40235 24.81641,-9.5625 51.1875,-14.47656 77.79688,-14.47656 H 468 c 120.42969,0.13671 218.03125,97.73437 218.15625,218.16406 -0.0586,11.57031 -1.04688,23.11328 -2.96094,34.51562 -5.08203,9.39063 -15.89453,14.12891 -26.23047,11.5 -10.34765,-2.63672 -17.58593,-11.96093 -17.55078,-22.64062 v -23.375 h -31.17187 v 23.375 c 0,30.12109 24.41406,54.54687 54.54687,54.54687 3.0625,-0.0586 6.1211,-0.36718 9.14063,-0.92187 -9.94141,26.28515 -24.875,50.40234 -43.96094,71.03906 -2.66797,2.87891 -4.14063,6.66016 -4.14063,10.57813 v 106.29296 h -93.5 v -35.84375 c 0,-4.67187 -2.10156,-9.10546 -5.72656,-12.0664 -3.6289,-2.95703 -8.39062,-4.13672 -12.97656,-3.19922 -14.35938,2.89453 -28.98047,4.35937 -43.625,4.36328 H 312.16797 c -14.65625,-0.0117 -29.27735,-1.47656 -43.64063,-4.38281 -4.57812,-0.9336 -9.34375,0.24219 -12.97265,3.20703 -3.625,2.95703 -5.72266,7.38672 -5.72266,12.07031 v 35.85156 H 156.33984 V 797.46094 c 0,-3.92578 -1.48828,-7.69922 -4.15234,-10.58594 -23.59375,-25.51953 -40.76172,-56.29688 -50.08594,-89.78906 -1.86718,-6.7461 -8.019529,-11.42578 -15.015622,-11.41407 H 31.667969 Z m 0,0"
         style="fill:#008000;fill-opacity:1;fill-rule:nonzero;stroke:none"
         id="path1058" />
      <path
         d="m 203.08203,638.91797 c 25.82031,0 46.75,-20.92969 46.75,-46.75 0,-25.82422 -20.92969,-46.7461 -46.75,-46.7461 -25.81641,0 -46.74219,20.92188 -46.74219,46.7461 0,25.82031 20.92578,46.75 46.74219,46.75 z m 0,-62.32422 c 8.60547,0 15.58203,6.96875 15.58203,15.57422 0,8.60937 -6.97656,15.58594 -15.58203,15.58594 -8.60156,0 -15.58203,-6.97657 -15.58203,-15.58594 0,-8.60547 6.98047,-15.57422 15.58203,-15.57422 z m 0,0"
         style="fill:#008000;fill-opacity:1;fill-rule:nonzero;stroke:none"
         id="path1060" />
      <path
         d="M 312.16797,451.92578 H 468 v 31.16406 H 312.16797 Z m 0,0"
         style="fill:#008000;fill-opacity:1;fill-rule:nonzero;stroke:none"
         id="path1062" />
    </g>
  </g>
</svg>
