<?xml version="1.0" encoding="UTF-8" standalone="no"?>
<svg
   xmlns:dc="http://purl.org/dc/elements/1.1/"
   xmlns:cc="http://creativecommons.org/ns#"
   xmlns:rdf="http://www.w3.org/1999/02/22-rdf-syntax-ns#"
   xmlns:svg="http://www.w3.org/2000/svg"
   xmlns="http://www.w3.org/2000/svg"
   width="140"
   height="29.819"
   viewBox="0 0 140 29.819"
   version="1.2"
   id="svg244">
  <defs
     id="defs18943" />
  <metadata
     id="metadata248">
    <rdf:RDF>
      <cc:Work
         rdf:about="">
        <dc:format>image/svg+xml</dc:format>
        <dc:type
           rdf:resource="http://purl.org/dc/dcmitype/StillImage" />
        <dc:title></dc:title>
      </cc:Work>
    </rdf:RDF>
  </metadata>
  <g
     id="g1305"
     transform="matrix(1.3211502,0,0,1.3211502,6.2478068e-8,9.4891165e-5)">
    <path
       style="fill:#ffffff;fill-opacity:1;fill-rule:evenodd;stroke:none;stroke-width:0.13197844"
       d="m 30.394044,5.6695862 c -0.599759,0.017394 -1.057731,0.2585439 -1.40625,0.665039 l -5.100587,7.0664068 -0.180175,2.075683 h 5.913574 l -0.221191,2.557617 h 1.949707 c 0.430332,-0.03736 0.690787,-0.246718 0.739746,-0.673828 l 0.164062,-1.883789 h 1.59375 c 0.289893,-0.0084 0.404898,-2.383091 0.200684,-2.317383 h -1.59375 l 0.647461,-7.4897458 z m 66.514162,0.3076172 c -0.510217,0 -0.905437,0.1310989 -1.22754,0.4145508 -0.31953,0.2834518 -0.489255,0.6422871 -0.489255,1.0751953 0,0.4354859 0.169725,0.7752779 0.489255,1.0561522 0.322103,0.283452 0.717323,0.4350585 1.22754,0.4350585 0.34014,0 0.641325,-0.07401 0.906735,-0.2080073 0.262838,-0.131418 0.470633,-0.301587 0.602056,-0.546387 0.131415,-0.2267618 0.206542,-0.4899855 0.206542,-0.7734375 0,-0.2834518 -0.07513,-0.5481409 -0.206542,-0.7749023 C 98.285574,6.4492793 98.077779,6.2785447 97.814941,6.1471252 97.549531,6.0337441 97.248346,5.9772034 96.908206,5.9772034 Z M 61.589357,6.881012 c -0.226761,0 -0.417438,0.077594 -0.566895,0.2270508 -0.17007,0.1700711 -0.244629,0.3577111 -0.244629,0.5844723 v 2.1708991 l 1.035645,1.5087878 C 60.89097,10.25903 59.813919,9.7140199 58.55127,9.7140199 c -1.133806,0 -2.076532,0.3758461 -2.831542,1.1308591 -0.755015,0.773051 -1.13086,1.775895 -1.13086,3.020508 0,1.24461 0.375845,2.243415 1.13086,3.019043 0.75501,0.77305 1.697736,1.149902 2.831542,1.149902 1.035888,0 1.830147,-0.319765 2.358399,-0.94336 v 0.811524 h 1.959961 c 0.208725,0 0.379814,-0.07502 0.51123,-0.227051 0.131426,-0.131416 0.208008,-0.30104 0.208008,-0.509765 V 6.881012 Z m -31.322755,1.1249999 -0.411621,4.7666011 1.473633,0.404297 -4.844238,-0.01758 z m 70.476568,0.045413 v 1.3037108 l 1.90429,0.7910153 h -3.074706 v 2.113769 h 1.170416 v 2.699707 c 0,1.01785 0.28236,1.791057 0.84667,2.30127 0.56691,0.510213 1.37854,0.773437 2.417,0.773437 0.82974,0 1.48986,-0.149574 1.96143,-0.471679 l -0.45264,-1.245118 c -0.0567,-0.170071 -0.16876,-0.301633 -0.3208,-0.396973 -0.17007,-0.09534 -0.34025,-0.113254 -0.54639,-0.09521 -0.0773,0.02062 -0.1508,0.0205 -0.2461,0.0205 -0.24479,0 -0.45148,-0.07456 -0.60351,-0.244629 -0.1701,-0.152034 -0.24463,-0.378198 -0.24463,-0.679688 v -2.661621 h 1.84717 V 10.146148 H 103.5542 V 8.8058157 c 0,-0.1314173 -0.0386,-0.2616188 -0.0952,-0.3750001 -0.0567,-0.1133805 -0.15029,-0.2094502 -0.26367,-0.2841795 -0.11337,-0.056692 -0.24393,-0.095215 -0.37793,-0.095215 z M 50.336426,9.7140222 c -0.58494,0 -1.205076,0.149574 -1.864746,0.4716788 -0.662244,0.319527 -1.24714,0.810573 -1.77539,1.488282 l 1.07666,-1.8105466 h -1.700683 c -0.262838,0 -0.490113,0.094606 -0.678223,0.2827146 -0.208719,0.188107 -0.300293,0.415277 -0.300293,0.698728 v 7.057617 h 1.697754 c 0.319528,0 0.584869,-0.113082 0.791015,-0.339843 0.208724,-0.206148 0.322266,-0.471947 0.322266,-0.773438 v -2.774414 c 0,-0.641633 0.14857,-1.113089 0.452636,-1.432617 0.280877,-0.322106 0.678343,-0.47168 1.149903,-0.47168 0.886431,0 1.321289,0.545469 1.321289,1.640625 v 4.151367 h 2.830078 v -4.604004 c 0,-0.811704 -0.149682,-1.490196 -0.451172,-2.039062 C 52.903454,10.71314 52.508671,10.31624 52.03711,10.071441 51.544935,9.8266414 50.978059,9.7140199 50.336426,9.7140199 Z m 19.577638,0 c -0.718936,0 -1.360479,0.091568 -1.924805,0.3002918 -0.584942,0.208722 -1.208006,0.660509 -1.867676,1.322754 l 1.094239,-1.4736316 h -2.02002 c -0.170071,0 -0.320106,0.056437 -0.454101,0.1904296 -0.131418,0.13142 -0.205079,0.280993 -0.205079,0.471679 v 7.376954 h 2.112305 c 0.206147,0 0.377235,-0.07401 0.51123,-0.208008 0.131418,-0.131419 0.1875,-0.302154 0.1875,-0.508302 v -2.980956 c 0,-0.680284 0.170628,-1.190727 0.528809,-1.510254 0.340142,-0.322105 0.810594,-0.47168 1.413574,-0.47168 0.170071,0 0.379224,0.01858 0.624024,0.03662 z m 5.36133,0 c -1.262651,0 -2.318562,0.3958948 -3.150881,1.1689448 -0.847777,0.773051 -1.262695,1.773885 -1.262695,2.982422 0,1.226573 0.432387,2.225485 1.300781,2.998535 0.868392,0.773051 1.999869,1.17041 3.41455,1.17041 1.226572,0 2.189782,-0.283818 2.926762,-0.848145 0.149453,-0.11338 0.224018,-0.265991 0.244628,-0.454101 0.018,-0.170071 -0.03847,-0.321218 -0.169928,-0.452637 l -1.05615,-1.095702 c -0.548865,0.474138 -1.151775,0.69873 -1.8501,0.69873 -0.904465,0 -1.527991,-0.32031 -1.850094,-0.97998 -0.05669,-0.09534 -0.09319,-0.207421 -0.131836,-0.320802 h 5.849118 c 0.02063,-0.432909 0.03953,-0.66008 0.03953,-0.69873 0,-1.283264 -0.415838,-2.300651 -1.22754,-3.055664 -0.811703,-0.736975 -1.849598,-1.1132808 -3.07617,-1.1132808 z m 10.344727,0 c -1.208535,0 -2.320995,0.5665228 -3.320805,1.6977538 l 0.906743,-1.5483396 h -1.945313 c -0.206152,0 -0.376882,0.076588 -0.508305,0.2080066 -0.152032,0.131418 -0.227047,0.301042 -0.227047,0.509766 v 7.32129 h 2.170897 c 0.17007,0 0.318638,-0.05608 0.452633,-0.1875 0.131422,-0.131421 0.18897,-0.284031 0.18897,-0.454102 v -3.357422 c 0,-0.58494 0.131557,-1.038841 0.396967,-1.340332 0.2448,-0.304066 0.602738,-0.452637 1.035645,-0.452637 0.81171,0 1.208498,0.545469 1.208498,1.640625 v 4.151368 h 1.999515 c 0.226762,0 0.414397,-0.07456 0.584467,-0.244629 0.170078,-0.170072 0.244635,-0.357712 0.244635,-0.584473 v -3.169922 c 0,-0.396832 0.0564,-0.737544 0.190425,-1.020996 0.113385,-0.262837 0.28458,-0.453055 0.490725,-0.584473 0.208725,-0.13142 0.435435,-0.1875 0.71631,-0.1875 0.811703,0 1.22607,0.545469 1.22607,1.640625 v 4.151368 h 2.81397 v -4.604004 c 0,-0.811704 -0.134032,-1.490196 -0.41748,-2.039063 -0.280882,-0.546289 -0.678345,-0.94319 -1.149907,-1.187989 -0.471563,-0.2447993 -1.03854,-0.3574208 -1.680173,-0.3574208 -1.793475,0 -3.076102,0.6410818 -3.867187,1.9423828 0.09277,-0.376218 0.263497,-0.811184 0.508297,-1.300781 C 87.110424,9.9201372 86.431824,9.7140222 85.620121,9.7140222 Z M 42.295899,9.8443909 c -0.262837,0 -0.489001,0.096071 -0.679688,0.2841791 -0.188104,0.188108 -0.28125,0.414273 -0.28125,0.679688 v 2.925293 c 0,0.641633 -0.134028,1.113549 -0.41748,1.415039 -0.280874,0.319528 -0.63925,0.47168 -1.092774,0.47168 -0.886431,0 -1.340331,-0.585459 -1.340331,-1.737305 V 10.60025 c 0,-0.208722 -0.07401,-0.397391 -0.208008,-0.528809 C 38.144948,9.9400227 37.956283,9.8634342 37.747559,9.8634342 H 35.67334 v 4.4912108 c 0,1.226574 0.302187,2.132889 0.925782,2.753906 0.621018,0.623594 1.450305,0.925781 2.48877,0.925781 0.528251,0 1.077655,-0.170735 1.662597,-0.5083 0.584941,-0.340143 1.129951,-0.907127 1.658203,-1.680177 l -0.941895,2.056641 h 1.810548 c 0.2448,0 0.453952,-0.09507 0.624023,-0.265137 0.167497,-0.167495 0.262207,-0.376293 0.262207,-0.621093 V 9.8443909 Z m 53.197267,0.019043 v 7.0004871 c 0,0.283452 0.09303,0.528092 0.301755,0.736817 0.208725,0.206148 0.453368,0.301758 0.736815,0.301758 h 1.790041 v -7.114747 c 0,-0.262837 -0.09213,-0.489108 -0.262208,-0.65918 C 97.871461,9.9585002 97.643836,9.8634339 97.378419,9.8634339 Z M 75.295899,11.731109 c 0.432907,0 0.809325,0.112975 1.092772,0.360351 0.283455,0.244799 0.472005,0.585159 0.549315,1.018067 h -4.548337 c 0,-0.05669 0.225813,-0.112668 0.676758,-0.208008 0.435486,-0.07473 0.663113,-0.131271 0.681153,-0.169922 0.283452,-0.659668 0.793326,-1.000488 1.548339,-1.000488 z m -16.160156,0.22705 c 0.489599,0 0.887504,0.169625 1.207031,0.509767 0.322104,0.340142 0.471681,0.812518 0.471681,1.397461 -1e-6,0.584939 -0.149577,1.055854 -0.471681,1.395996 -0.319527,0.358179 -0.717432,0.528808 -1.207031,0.528808 -0.492176,0 -0.888968,-0.171088 -1.208496,-0.51123 -0.322103,-0.340142 -0.47168,-0.810595 -0.47168,-1.413574 0,-0.584943 0.149577,-1.057319 0.47168,-1.397461 0.319528,-0.340142 0.71632,-0.509767 1.208496,-0.509767 z"
       id="path12510" />
    <g
       id="g7151"
       transform="matrix(0.13197745,0,0,0.13197745,-10.813387,-27.996233)">
      <path
         id="path87"
         d="m 101.36719,381.96094 33.90234,-84.52344 c 0,0 4.55469,-12.07813 16.25391,-18.11328 11.69531,-6.03516 22.7539,-5.10938 22.7539,-5.10938 l 59.44922,-0.46484 -38.54687,94.27734 c 0,0 -4.64453,12.53907 -20.4336,14.39844 -15.79297,1.85938 -73.3789,-0.46484 -73.3789,-0.46484"
         style="fill:#05d1dc;fill-opacity:1;fill-rule:evenodd;stroke:none" />
      <path
         id="path89"
         d="m 232.92187,273.75781 c 0,0 -30.99218,32.27735 -37.3164,38.83985 -6.32813,6.5625 -11.95313,10.28906 -19.6836,13.33593 -7.73437,3.04297 -52.15234,0.87891 -52.15234,0.87891 l 22.21094,-54.22656 z m 0,0"
         style="fill:#3d35a1;fill-opacity:1;fill-rule:evenodd;stroke:none" />
      <path
         id="path91"
         d="m 81.933594,320.33984 33.902346,-84.52343 c 0,0 4.55859,-12.07813 16.2539,-18.11329 11.69532,-6.03515 22.75391,-5.10937 22.75391,-5.10937 l 59.44922,-0.46484 -38.54688,94.27734 c 0,0 -4.64453,12.53516 -20.43359,14.39453 -5.44531,0.64063 -15.86719,0.78906 -27.17578,0.69922 -21.48828,-0.16016 -46.203126,-1.16016 -46.203126,-1.16016"
         style="fill:#7342fa;fill-opacity:1;fill-rule:evenodd;stroke:none" />
    </g>
  </g>
</svg>
