<?xml version="1.0" encoding="UTF-8" standalone="no"?>
<svg
   xmlns:dc="http://purl.org/dc/elements/1.1/"
   xmlns:cc="http://creativecommons.org/ns#"
   xmlns:rdf="http://www.w3.org/1999/02/22-rdf-syntax-ns#"
   xmlns:svg="http://www.w3.org/2000/svg"
   xmlns="http://www.w3.org/2000/svg"
   viewBox="0 0 906.3639 906.3639"
   height="906.36389"
   width="906.36389"
   xml:space="preserve"
   id="svg2"
   version="1.1"><metadata
     id="metadata8"><rdf:RDF><cc:Work
         rdf:about=""><dc:format>image/svg+xml</dc:format><dc:type
           rdf:resource="http://purl.org/dc/dcmitype/StillImage" /><dc:title></dc:title></cc:Work></rdf:RDF></metadata><defs
     id="defs6" /><g
     transform="matrix(1.3333333,0,0,-1.3333333,119.84861,786.51526)"
     id="g10"><g
       transform="scale(0.1)"
       id="g12"><path
         id="path14"
         style="fill:#ffffff;fill-opacity:1;fill-rule:nonzero;stroke:none;stroke-width:1.35954583"
         d="M -898.8646,-898.8646 H 5898.8646 V 5898.8646 H -898.8646 Z" /><path
         id="path16"
         style="fill:#80d4de;fill-opacity:1;fill-rule:nonzero;stroke:none"
         d="m 4453.8,796.441 c 0,-36.73 -851.62,-66.511 -1902.13,-66.511 -1050.53,0 -1902.143,29.781 -1902.143,66.511 0,36.731 851.613,66.508 1902.143,66.508 1050.51,0 1902.13,-29.777 1902.13,-66.508" /><path
         id="path18"
         style="fill:#c6faf8;fill-opacity:1;fill-rule:nonzero;stroke:none"
         d="m 3081.28,2994.39 1.8,96.42 h -948.99 l -68.13,-954.08 h 949 l 12.33,101.5 53.99,756.16 M 3547.49,1563.26 3493.5,807.109 h -573.47 l 53.98,756.151 h -954.07 l -53.99,-756.151 h -568.39 l 53.99,756.151 H 690.32 l 40.946,573.47 H 1492.5 l 68.12,954.08 H 799.391 l 40.945,573.46 H 1606.65 L 1661,4425.5 h 568.39 l -54.36,-761.23 h 954.09 l 54.35,761.23 h 568.38 l -54.34,-761.23 h 756.15 l -40.95,-573.46 h -756.15 l -68.13,-954.08 h 756.16 l -40.95,-573.47 h -756.15" /><path
         id="path20"
         style="fill:#c8edf9;fill-opacity:1;fill-rule:nonzero;stroke:none"
         d="M 1159.43,3913.46 H 778.113 c -30.484,0 -55.425,24.94 -55.425,55.42 0,30.49 24.941,55.42 55.425,55.42 h 381.317 c 30.48,0 55.42,-24.93 55.42,-55.42 0,-30.48 -24.94,-55.42 -55.42,-55.42" /><path
         id="path22"
         style="fill:#c8edf9;fill-opacity:1;fill-rule:nonzero;stroke:none"
         d="m 1401.07,4090.81 h -261.6 c -26.82,0 -48.77,21.95 -48.77,48.78 0,26.82 21.95,48.77 48.77,48.77 h 261.6 c 26.83,0 48.77,-21.95 48.77,-48.77 0,-26.83 -21.94,-48.78 -48.77,-48.78" /><path
         id="path24"
         style="fill:#c8edf9;fill-opacity:1;fill-rule:nonzero;stroke:none"
         d="m 2981.75,4059.78 h -580.84 c -25.61,0 -46.55,20.95 -46.55,46.55 0,25.61 20.94,46.56 46.55,46.56 h 580.84 c 25.61,0 46.56,-20.95 46.56,-46.56 0,-25.6 -20.95,-46.55 -46.56,-46.55" /><path
         id="path26"
         style="fill:#c8edf9;fill-opacity:1;fill-rule:nonzero;stroke:none"
         d="m 1392.2,2605.47 h -354.71 c -21.94,0 -39.9,17.95 -39.9,39.9 0,21.95 17.96,39.91 39.9,39.91 h 354.71 c 21.95,0 39.91,-17.96 39.91,-39.91 0,-21.95 -17.96,-39.9 -39.91,-39.9" /><path
         id="path28"
         style="fill:#c8edf9;fill-opacity:1;fill-rule:nonzero;stroke:none"
         d="M 4830.68,2778.39 H 4178.9 c -30.49,0 -55.43,24.94 -55.43,55.42 0,30.48 24.94,55.42 55.43,55.42 h 651.78 c 30.48,0 55.42,-24.94 55.42,-55.42 0,-30.48 -24.94,-55.42 -55.42,-55.42" /><path
         id="path30"
         style="fill:#c8edf9;fill-opacity:1;fill-rule:nonzero;stroke:none"
         d="m 2808.82,1315.2 h -345.84 c -20.72,0 -37.68,16.97 -37.68,37.69 0,20.73 16.96,37.69 37.68,37.69 h 345.84 c 20.74,0 37.7,-16.96 37.7,-37.69 0,-20.72 -16.96,-37.69 -37.7,-37.69" /><path
         id="path32"
         style="fill:#c8edf9;fill-opacity:1;fill-rule:nonzero;stroke:none"
         d="m 893.391,2441.41 h -97.543 c -23.164,0 -42.121,18.96 -42.121,42.12 0,23.17 18.957,42.13 42.121,42.13 h 97.543 c 23.168,0 42.125,-18.96 42.125,-42.13 0,-23.16 -18.957,-42.12 -42.125,-42.12" /><path
         id="path34"
         style="fill:#c8edf9;fill-opacity:1;fill-rule:nonzero;stroke:none"
         d="m 4272.01,3904.59 h -172.92 c -23.17,0 -42.12,18.96 -42.12,42.12 0,23.17 18.95,42.12 42.12,42.12 h 172.92 c 23.16,0 42.12,-18.95 42.12,-42.12 0,-23.16 -18.96,-42.12 -42.12,-42.12" /><path
         id="path36"
         style="fill:#c8edf9;fill-opacity:1;fill-rule:nonzero;stroke:none"
         d="m 3963.85,2538.96 h -75.37 c -24.39,0 -44.34,19.95 -44.34,44.33 0,24.39 19.95,44.34 44.34,44.34 h 75.37 c 24.39,0 44.34,-19.95 44.34,-44.34 0,-24.38 -19.95,-44.33 -44.34,-44.33" /><path
         id="path38"
         style="fill:#c8edf9;fill-opacity:1;fill-rule:nonzero;stroke:none"
         d="m 2305.58,1137.85 h -66.51 c -26.82,0 -48.77,21.95 -48.77,48.77 0,26.82 21.95,48.78 48.77,48.78 h 66.51 c 26.83,0 48.78,-21.96 48.78,-48.78 0,-26.82 -21.95,-48.77 -48.78,-48.77" /><path
         id="path40"
         style="fill:#c8edf9;fill-opacity:1;fill-rule:nonzero;stroke:none"
         d="m 620.711,1998.02 h -283.77 c -21.949,0 -39.91,17.96 -39.91,39.91 0,21.95 17.961,39.9 39.91,39.9 h 283.77 c 21.945,0 39.898,-17.95 39.898,-39.9 0,-21.95 -17.953,-39.91 -39.898,-39.91" /><path
         id="path42"
         style="fill:#c8edf9;fill-opacity:1;fill-rule:nonzero;stroke:none"
         d="M 827.102,3478.94 H 505.426 c -26.821,0 -48.77,21.95 -48.77,48.77 0,26.83 21.949,48.77 48.77,48.77 h 328.64 l -6.964,-97.54" /><path
         id="path44"
         style="fill:#ffffff;fill-opacity:1;fill-rule:nonzero;stroke:none"
         d="M 939.949,3478.94 H 827.102 l 6.964,97.54 h 105.883 c 26.824,0 48.774,-21.94 48.774,-48.77 0,-26.82 -21.95,-48.77 -48.774,-48.77" /><path
         id="path46"
         style="fill:#c8edf9;fill-opacity:1;fill-rule:nonzero;stroke:none"
         d="m 1500,2241.88 h -216.42 c -28.05,0 -51,22.95 -51,51 0,28.03 22.95,50.98 51,50.98 h 223.71 L 1500,2241.88" /><path
         id="path48"
         style="fill:#ffffff;fill-opacity:1;fill-rule:nonzero;stroke:none"
         d="M 1638.28,2241.88 H 1500 l 7.29,101.98 h 130.99 c 28.05,0 50.99,-22.95 50.99,-50.98 0,-28.05 -22.94,-51 -50.99,-51" /><path
         id="path50"
         style="fill:#c8edf9;fill-opacity:1;fill-rule:nonzero;stroke:none"
         d="m 3072.83,2875.93 h -108.82 c -25.61,0 -46.55,20.95 -46.55,46.56 0,25.6 20.94,46.55 46.55,46.55 h 115.46 l -6.64,-93.11" /><path
         id="path52"
         style="fill:#ffffff;fill-opacity:1;fill-rule:nonzero;stroke:none"
         d="m 3203.44,2875.93 h -130.61 l 6.64,93.11 h 123.97 c 25.61,0 46.56,-20.95 46.56,-46.55 0,-25.61 -20.95,-46.56 -46.56,-46.56" /><path
         id="path54"
         style="fill:#c8edf9;fill-opacity:1;fill-rule:nonzero;stroke:none"
         d="m 698.25,1674.35 h -50.937 c -26.829,0 -48.77,21.95 -48.77,48.77 0,26.83 21.941,48.77 48.77,48.77 h 57.902 l -6.965,-97.54" /><path
         id="path56"
         style="fill:#ffffff;fill-opacity:1;fill-rule:nonzero;stroke:none"
         d="M 767.027,1674.35 H 698.25 l 6.965,97.54 h 61.812 c 26.825,0 48.77,-21.94 48.77,-48.77 0,-26.82 -21.945,-48.77 -48.77,-48.77" /><path
         id="path58"
         style="fill:#204172;fill-opacity:1;fill-rule:nonzero;stroke:none"
         d="m 2527.78,2787.35 v 0 c -91.64,0 -166.62,74.98 -166.62,166.61 v 289.17 c 0,91.64 74.98,166.61 166.62,166.61 91.64,0 166.61,-74.97 166.61,-166.61 v -289.17 c 0,-91.63 -74.97,-166.61 -166.61,-166.61" /><path
         id="path60"
         style="fill:#f14352;fill-opacity:1;fill-rule:nonzero;stroke:none"
         d="m 2470.35,1918.31 c 0,0 -43.55,-53.02 -51.12,-73.84 -7.58,-20.83 1.89,-71.95 26.5,-79.52 24.62,-7.58 62.48,15.14 73.85,30.29 11.35,15.15 11.35,88.99 11.35,88.99 l -60.58,34.08" /><path
         id="path62"
         style="fill:#f14352;fill-opacity:1;fill-rule:nonzero;stroke:none"
         d="m 2574.48,1886.12 c 0,0 3.79,-94.67 18.93,-111.71 15.15,-17.04 70.05,-24.61 90.88,-17.04 20.83,7.58 24.61,62.48 17.04,79.52 -7.57,17.04 -60.58,85.21 -60.58,85.21 l -66.27,-35.98" /><path
         id="path64"
         style="fill:#204172;fill-opacity:1;fill-rule:nonzero;stroke:none"
         d="m 2330.24,2550.68 c 0,0 -35.98,-238.55 11.36,-340.8 47.33,-102.24 206.38,-62.48 206.38,-62.48 0,0 160.92,-28.4 210.15,34.08 49.23,62.48 15.15,386.24 15.15,386.24 l -443.04,-17.04" /><path
         id="path66"
         style="fill:#ee8751;fill-opacity:1;fill-rule:nonzero;stroke:none"
         d="m 2434.37,3111.11 c 0,0 -43.54,13.25 -47.33,49.23 -3.79,35.97 28.4,26.5 28.4,26.5 l 18.93,-75.73" /><path
         id="path68"
         style="fill:#ee8751;fill-opacity:1;fill-rule:nonzero;stroke:none"
         d="m 2623.71,3109.22 26.5,75.73 c 0,0 27.7,-12.66 24.62,-32.18 -5.68,-35.98 -51.12,-43.55 -51.12,-43.55" /><path
         id="path70"
         style="fill:#f14352;fill-opacity:1;fill-rule:nonzero;stroke:none"
         d="m 2269.65,2662.39 c 0,0 7.58,193.12 35.98,238.56 28.39,45.44 238.56,88.99 238.56,88.99 0,0 149.57,-22.73 193.12,-70.06 43.55,-47.33 64.37,-355.94 64.37,-355.94 l -253.7,-337.02 -196.91,369.2 -81.42,66.27" /><path
         id="path72"
         style="fill:#ee8751;fill-opacity:1;fill-rule:nonzero;stroke:none"
         d="m 2568.8,3078.92 c 0,0 5.68,-71.94 13.26,-128.74 -66.27,-17.04 -92.78,-1.9 -92.78,-1.9 l 3.79,126.86 75.73,3.78" /><path
         id="path74"
         style="fill:#f8a475;fill-opacity:1;fill-rule:nonzero;stroke:none"
         d="m 2404.08,3222.82 c 0,0 -3.79,-189.34 124.96,-189.34 106.02,0 121.17,151.47 121.17,151.47 0,0 -113.59,60.59 -117.38,121.17 -26.51,-30.29 -81.42,-77.62 -128.75,-83.3" /><path
         id="path76"
         style="fill:#2555a3;fill-opacity:1;fill-rule:nonzero;stroke:none"
         d="m 2597.2,2098.17 -88.99,-30.29 c 0,0 -183.65,416.53 -200.69,467.65 -17.04,51.13 90.67,103.23 126.65,71.04 35.97,-32.18 115.7,-324.74 115.7,-324.74 0,0 95.6,291.12 112.64,321.42 17.04,30.29 142.96,-22.28 129.7,-94.22 -13.25,-71.94 -195.01,-410.86 -195.01,-410.86" /><path
         id="path78"
         style="fill:#f7925b;fill-opacity:1;fill-rule:nonzero;stroke:none"
         d="m 2445.73,1886.12 c 3.79,5.68 47.34,81.42 47.34,81.42 l 15.14,100.34 53.02,-70.05 -24.61,-51.12 -7.58,-94.67 c 0,0 -24.61,-24.61 -51.12,-22.72 -26.51,1.9 -32.19,56.8 -32.19,56.8" /><path
         id="path80"
         style="fill:#f9af7e;fill-opacity:1;fill-rule:nonzero;stroke:none"
         d="m 2597.2,2098.17 c -9.47,-1.89 -88.99,-30.29 -88.99,-30.29 l 58.7,-104.13 c 0,0 5.67,-109.82 17.04,-132.53 11.36,-22.73 88.99,-7.58 88.99,28.4 0,35.96 -66.27,130.63 -66.27,130.63 l -9.47,107.92" /><path
         id="path82"
         style="fill:#ffffff;fill-opacity:1;fill-rule:nonzero;stroke:none"
         d="m 2426.8,3008.87 11.36,-187.44 h 111.71 l -3.79,187.44 H 2426.8" /><path
         id="path84"
         style="fill:#f8a475;fill-opacity:1;fill-rule:nonzero;stroke:none"
         d="m 2474.13,2823.32 -32.19,106.03 111.72,-37.87 24.61,-77.63 164.71,-111.7 c 0,0 11.36,-75.73 -54.9,-96.56 -35.97,24.61 -147.68,159.04 -147.68,159.04 l -66.27,58.69" /><path
         id="path86"
         style="fill:#f14352;fill-opacity:1;fill-rule:nonzero;stroke:none"
         d="m 2742.98,2702.15 -54.9,-96.56 96.56,-73.84 c 0,0 39.76,11.36 47.33,51.12 7.58,39.76 -7.57,70.05 -88.99,119.28" /><path
         id="path88"
         style="fill:#f7925b;fill-opacity:1;fill-rule:nonzero;stroke:none"
         d="m 2430.59,2624.52 -18.94,-115.49 219.63,-32.19 124.96,-51.12 c 0,0 64.37,45.44 37.87,111.71 -20.83,13.25 -145.79,-11.36 -145.79,-11.36 l -217.73,98.45" /><path
         id="path90"
         style="fill:#f14352;fill-opacity:1;fill-rule:nonzero;stroke:none"
         d="m 2438.16,2632.1 -98.46,35.97 -70.05,-5.68 c 0,0 -24.61,-66.27 15.15,-98.45 39.76,-32.19 126.85,-54.91 126.85,-54.91 l 26.51,123.07" /><path
         id="path92"
         style="fill:#80d4de;fill-opacity:1;fill-rule:nonzero;stroke:none"
         d="m 4424.98,703.332 c 0,-34.281 -309.68,-62.07 -691.68,-62.07 -382.01,0 -691.69,27.789 -691.69,62.07 0,34.277 309.68,62.078 691.69,62.078 382,0 691.68,-27.801 691.68,-62.078" /><path
         id="path94"
         style="fill:#dbdcd9;fill-opacity:1;fill-rule:nonzero;stroke:none"
         d="m 3631.31,1576.8 -90.47,217.86 -27.03,793.07 c 0,0 -159.04,-54.6 -199.52,-113.07 -99.76,-144.1 152.97,-1004.27 152.97,-1004.27 l -35.47,-483.288 -66.51,-79.813 31.03,-100.18 h 97.18 l 54,756.151 h 84.54 l -0.72,13.54" /><path
         id="path96"
         style="fill:#7e8182;fill-opacity:1;fill-rule:nonzero;stroke:none"
         d="m 3644.53,694.129 -4.84,33.832 324.59,-4.992 c 0,0 -107.64,-43.129 -319.75,-28.84" /><path
         id="path98"
         style="fill:#0c1824;fill-opacity:1;fill-rule:nonzero;stroke:none"
         d="m 3643.81,807.242 c 0,0 -4.71,-52.152 -4.42,-65.711 0.3,-13.57 0.3,-13.57 0.3,-13.57 0,0 170.27,-24.719 324.59,-4.992 -85.09,41.551 -201.19,72.91 -201.19,72.91 l -1.95,26.652 -117.33,-15.289" /><path
         id="path100"
         style="fill:#204172;fill-opacity:1;fill-rule:nonzero;stroke:none"
         d="m 3463.63,1837.27 99.81,-473.47 c 0,0 5.13,-197.07 20.48,-278.98 15.35,-81.89 48.5,-278.961 48.5,-278.961 l 143,9.422 -60.97,507.559 9.97,355.95 -27.89,207.12 -232.9,-48.64" /><path
         id="path102"
         style="fill:#1a3454;fill-opacity:1;fill-rule:nonzero;stroke:none"
         d="m 3613.56,916.75 132.79,140.46 -12.52,104.22 -137.51,-145.35 c 5.62,-31.861 11.7,-67.01 17.24,-99.33" /><path
         id="path104"
         style="fill:#7e8182;fill-opacity:1;fill-rule:nonzero;stroke:none"
         d="m 3349.1,954.941 21.11,26.868 220.75,-238.02 c 0,0 -105.57,47.981 -241.86,211.152" /><path
         id="path106"
         style="fill:#0c1824;fill-opacity:1;fill-rule:nonzero;stroke:none"
         d="m 3430.36,1033.64 c 0,0 -40.95,-32.64 -50.55,-42.242 -9.6,-9.589 -9.6,-9.589 -9.6,-9.589 0,0 99.82,-140.118 220.75,-238.02 -28.8,90.223 -86.37,195.793 -86.37,195.793 l 17.91,19.828 -92.14,74.23" /><path
         id="path108"
         style="fill:#4d2016;fill-opacity:1;fill-rule:nonzero;stroke:none"
         d="m 3693.97,2791.92 c 0,0 61.43,-28.15 94.7,28.15 33.27,56.3 -12.79,115.17 -12.79,115.17 0,0 -23.04,-40.95 -56.31,-23.03 -33.27,17.91 -92.14,117.73 -189.4,84.46 -97.25,-33.27 -63.98,-171.48 -40.95,-199.64 23.04,-28.15 204.75,-5.11 204.75,-5.11" /><path
         id="path110"
         style="fill:#204172;fill-opacity:1;fill-rule:nonzero;stroke:none"
         d="m 3825.3,1962.56 -162.04,-74.1 56.73,-220.76 65.4,-203.96 -374.28,-410.86 105.62,-121.919 484.81,496.199 -176.24,535.4" /><path
         id="path112"
         style="fill:#f7925b;fill-opacity:1;fill-rule:nonzero;stroke:none"
         d="m 3798.91,2405.46 63.98,-440.22 c 0,0 26.11,-97.31 5.63,-135.7 -2.56,5.12 -56.52,93.1 -56.52,93.1 l -82.2,306.21 -7.67,184.28 58.86,17.92 17.92,-25.59" /><path
         id="path114"
         style="fill:#ffffff;fill-opacity:1;fill-rule:nonzero;stroke:none"
         d="m 3522.5,2597.4 c 0,0 -158.69,-33.27 -194.52,-94.69 -35.83,-61.42 25.6,-220.11 25.6,-220.11 l 94.7,-212.43 -2.56,-240.57 c 0,0 114.88,-40.46 223.28,-13.36 119.72,29.92 176.25,83.13 176.25,83.13 0,0 -59.14,268.06 -66.82,293.65 -7.67,25.6 -12.79,202.19 -12.79,202.19 l 33.27,10.25 c 0,0 -28.15,120.28 -58.86,145.87 -30.72,25.6 -217.55,46.07 -217.55,46.07" /><path
         id="path116"
         style="fill:#f7925b;fill-opacity:1;fill-rule:nonzero;stroke:none"
         d="m 3522.5,2727.93 -46.07,-138.2 c 0,0 63.99,-58.87 133.09,-53.75 5.12,-2.56 43.5,117.73 43.5,117.73 l -130.52,74.22" /><path
         id="path118"
         style="fill:#f8a475;fill-opacity:1;fill-rule:nonzero;stroke:none"
         d="m 3530.17,2809.83 c 0,0 -33.27,56.31 -56.3,20.48 -23.03,-35.84 23.03,-79.34 23.03,-79.34 0,0 7.69,-133.09 156.12,-145.89 79.35,148.45 75.84,208.77 75.84,208.77 0,0 -66.51,4.44 -127.03,80.44 -56.3,-25.59 -2.56,-89.58 -71.66,-84.46" /><path
         id="path120"
         style="fill:#f8a475;fill-opacity:1;fill-rule:nonzero;stroke:none"
         d="m 3509.7,2305.64 -92.14,-102.37 102.38,-151.01 c 0,0 186.83,2.56 286.65,115.17 15.35,-7.68 87.02,10.24 104.93,30.71 17.92,20.48 20.48,61.43 20.48,61.43 l 28.15,10.24 v 40.95 l -112.61,-30.71 23.03,53.75 h -33.27 l -43.51,-84.47 -204.75,-53.75 -79.34,110.06" /><path
         id="path122"
         style="fill:#0c1824;fill-opacity:1;fill-rule:nonzero;stroke:none"
         d="m 3847.54,2280.05 74.19,158.03 106.41,9.98 -67.99,-137.3 -112.61,-30.71" /><path
         id="path124"
         style="fill:#1a3454;fill-opacity:1;fill-rule:nonzero;stroke:none"
         d="m 3702.25,1672.14 -93.1,-59.87 159.62,70.95 -48.78,137.45 26.61,-128.58 -26.61,-13.3 -62.07,119.7 44.33,-126.35" /><path
         id="path126"
         style="fill:#80d4de;fill-opacity:1;fill-rule:nonzero;stroke:none"
         d="m 1983.02,693.902 c 0,-33.972 -352.11,-61.511 -786.46,-61.511 -434.353,0 -786.462,27.539 -786.462,61.511 0,33.989 352.109,61.528 786.462,61.528 434.35,0 786.46,-27.539 786.46,-61.528" /><path
         id="path128"
         style="fill:#404242;fill-opacity:1;fill-rule:nonzero;stroke:none"
         d="m 496.559,976.57 -29.926,4.989 c 0,0 -16.625,-56.528 -6.653,-94.778 9.977,-38.242 43.231,-98.101 43.231,-98.101 0,0 -3.328,-61.52 13.305,-73.16 16.625,-11.641 53.203,0 53.203,0 l -73.16,261.05" /><path
         id="path130"
         style="fill:#7b391b;fill-opacity:1;fill-rule:nonzero;stroke:none"
         d="m 680.566,796.441 -88.675,35.469 v -97.551 l 70.941,11.102 17.734,50.98" /><path
         id="path132"
         style="fill:#040606;fill-opacity:1;fill-rule:nonzero;stroke:none"
         d="m 604.637,826.922 c 0,0 -89.785,141.328 -104.754,146.316 -14.961,4.992 -28.266,-71.496 -9.973,-108.078 18.289,-36.57 38.242,-74.808 38.242,-74.808 0,0 0,-51.551 14.965,-73.172 14.965,-21.61 61.52,1.66 61.52,1.66 0,0 -8.317,96.441 0,108.082" /><path
         id="path134"
         style="fill:#204172;fill-opacity:1;fill-rule:nonzero;stroke:none"
         d="m 1640.5,947.191 c 0,0 -303.72,192.879 -356.92,206.179 -53.21,13.3 -93.12,2.21 -128.59,-44.34 -35.47,-46.55 -170.701,-274.901 -170.701,-274.901 0,0 157.401,2.211 159.621,11.082 2.21,8.871 95.32,146.32 95.32,146.32 l 181.79,-124.152 361.36,6.652 -141.88,73.16" /><path
         id="path136"
         style="fill:#2555a3;fill-opacity:1;fill-rule:nonzero;stroke:none"
         d="m 1753.57,896.211 -645.14,-44.352 -456.684,-37.679 -2.219,-110.848 607.443,4.43 c 0,0 556.45,-31.032 596.36,-22.172 39.9,8.871 46.55,117.5 46.55,117.5 l -146.31,93.121" /><path
         id="path138"
         style="fill:#69b942;fill-opacity:1;fill-rule:nonzero;stroke:none"
         d="m 1556.26,1388.37 c 0,0 -31.04,-57.65 -26.61,-104.2 4.44,-46.56 44.34,-152.97 44.34,-152.97 l 66.51,-184.009 259.38,-164.05 c 0,0 33.26,370.229 -22.16,501.029 -64.74,152.78 -157.41,188.43 -188.45,199.52 -31.03,11.08 -64.29,-15.52 -64.29,-15.52 l -68.72,-79.8" /><path
         id="path140"
         style="fill:#7b391b;fill-opacity:1;fill-rule:nonzero;stroke:none"
         d="m 1589.51,1093.51 -168.49,-144.1 -31.59,0.559 -64.84,-29.93 98.1,-9.98 62.62,21.621 139.67,73.15 -35.47,88.68" /><path
         id="path142"
         style="fill:#040606;fill-opacity:1;fill-rule:nonzero;stroke:none"
         d="m 1221.5,1603.41 c 0,0 -15.52,-77.59 37.69,-93.11 53.2,-15.53 121.93,39.9 121.93,39.9 l 115.28,-28.82 c 0,0 25.5,-43.23 58.75,-18.84 -6.65,2.21 -14.41,109.73 -25.5,134.12 -11.08,24.39 -24.38,99.76 -117.5,84.25 -93.11,-15.52 -124.14,-97.55 -141.88,-110.85 -17.73,-13.31 -48.77,-6.65 -48.77,-6.65" /><path
         id="path144"
         style="fill:#8d8f8f;fill-opacity:1;fill-rule:nonzero;stroke:none"
         d="m 1455.39,906.18 -232.78,-6.649 -64.29,-53.199 h 352.49 l -55.42,59.848" /><path
         id="path146"
         style="fill:#7b391b;fill-opacity:1;fill-rule:nonzero;stroke:none"
         d="m 1491.96,1423.83 64.3,-35.46 68.72,79.8 -119.71,73.16 -13.31,-117.5" /><path
         id="path148"
         style="fill:#95502b;fill-opacity:1;fill-rule:nonzero;stroke:none"
         d="m 1301.31,1523.6 c 36.82,-108.83 105.01,-156.42 206.18,-139.67 l -2.22,157.4 c 0,0 -22.17,70.94 -44.34,59.86 -22.17,-11.09 -15.52,-53.2 -15.52,-53.2 0,0 -24.39,-6.66 -62.07,26.6 -4.44,-4.44 -48.78,-48.77 -82.03,-50.99" /><path
         id="path150"
         style="fill:#626567;fill-opacity:1;fill-rule:nonzero;stroke:none"
         d="m 1510.81,846.332 -357.48,-0.562 2.77,-21.622 356.37,-3.316 -1.66,25.5" /><path
         id="path152"
         style="fill:#9fa2a1;fill-opacity:1;fill-rule:nonzero;stroke:none"
         d="m 934.406,1056.93 223.914,-210.598 64.29,53.199 -159.62,161.829 -128.584,-4.43" /><path
         id="path154"
         style="fill:#353638;fill-opacity:1;fill-rule:nonzero;stroke:none"
         d="M 973.758,1038.64 1150,867.379 l 51.55,43.23 -134.68,138.011 -93.112,-9.98" /><path
         id="path156"
         style="fill:#95502b;fill-opacity:1;fill-rule:nonzero;stroke:none"
         d="m 1573.99,1131.2 139.67,13.3 22.17,-170.699 -288.2,-110.852 -135.24,-4.437 -8.86,31.039 -46.56,-28.821 -19.95,2.219 75.37,64.289 124.15,4.442 177.36,97.54 -39.91,101.98" /><path
         id="path158"
         style="fill:#626567;fill-opacity:1;fill-rule:nonzero;stroke:none"
         d="m 937.73,1058.04 -7.207,-16.07 216.157,-207.841 11.64,12.203 -220.59,211.708" /></g></g></svg>