<?xml version="1.0" standalone="no"?>
<!DOCTYPE svg PUBLIC "-//W3C//DTD SVG 1.1//EN" "http://www.w3.org/Graphics/SVG/1.1/DTD/svg11.dtd" >
<svg>
<metadata>
Created by FontForge 20120731 at Sat Jul 14 21:25:42 2018
 By www
Copyright 2015 Indian Type Foundry. All rights reserved.
</metadata>
<defs>
<font id="Diodrum-Bold" horiz-adv-x="500" >
  <font-face 
    font-family="Diodrum Bold"
    font-weight="700"
    font-stretch="normal"
    units-per-em="1000"
    panose-1="2 0 0 0 0 0 0 0 0 0"
    ascent="800"
    descent="-200"
    x-height="515"
    cap-height="700"
    bbox="-210 -245 1579 1015"
    underline-thickness="50"
    underline-position="-75"
    unicode-range="U+0020-FB02"
  />
<missing-glyph horiz-adv-x="756" 
d="M160 0v701h436v-701h-436zM241 625v-549h275v549h-275z" />
    <glyph glyph-name="uniFB01" unicode="fi" horiz-adv-x="616" 
d="M15 515h65v3q0 99 50 157t143 58q51 0 88 -10l-22 -133q-15 3 -35 3q-23 0 -38.5 -13.5t-15.5 -57.5v-7h311v-515h-170v380h-141v-380h-170v380h-65v135zM382 656q0 41 25.5 66t70.5 25q44 0 69.5 -25t25.5 -66q0 -42 -25.5 -67t-69.5 -25q-45 0 -70.5 25t-25.5 67z" />
    <glyph glyph-name="uniFB02" unicode="fl" horiz-adv-x="665" 
d="M15 515h65v3q0 61 25.5 112t82 77t129.5 26q129 0 243 -30v-498q0 -77 48 -77q14 0 30 3l12 -134q-41 -9 -83 -9q-58 0 -96.5 23.5t-59.5 70t-21 121.5v388l-39 2q-101 0 -101 -71v-7h88v-135h-88v-380h-170v380h-65v135z" />
    <glyph glyph-name=".notdef" horiz-adv-x="756" 
d="M160 0v701h436v-701h-436zM241 625v-549h275v549h-275z" />
    <glyph glyph-name=".null" horiz-adv-x="0" 
 />
    <glyph glyph-name="nonmarkingreturn" horiz-adv-x="333" 
 />
    <glyph glyph-name="space" unicode=" " horiz-adv-x="230" 
 />
    <glyph glyph-name="exclam" unicode="!" horiz-adv-x="335" 
d="M265 700v-146q0 -40 -4.5 -111t-28.5 -216h-130q-32 183 -32 327v146h195zM263 80q0 -42 -25 -67t-70 -25t-70.5 24.5t-25.5 67.5q0 42 25.5 66.5t70.5 24.5t70 -24.5t25 -66.5z" />
    <glyph glyph-name="quotedbl" unicode="&#x22;" horiz-adv-x="446" 
d="M270 433q-2 14 -8 70t-10 104t-4 93h158q0 -12 -1.5 -48t-10 -114.5t-10.5 -104.5h-114zM62 433q-2 14 -8 70t-10 104t-4 93h158q0 -12 -1.5 -48t-10 -114.5t-10.5 -104.5h-114z" />
    <glyph glyph-name="numbersign" unicode="#" horiz-adv-x="704" 
d="M337 0l34 150h-121l-34 -150h-140l34 150h-80v128h108l26 115h-84v128h112l34 150h140l-34 -150h121l34 150h141l-34 -150h80v-128h-108l-26 -115h86v-128h-114l-34 -150h-141zM399 278l26 115h-121l-26 -115h121z" />
    <glyph glyph-name="dollar" unicode="$" horiz-adv-x="579" 
d="M487 654l-29 -144q-28 9 -71.5 15t-77.5 6q-46 0 -65.5 -10t-19.5 -34q0 -22 24 -35t116 -40q98 -29 136.5 -81t38.5 -129q0 -84 -42 -135.5t-123 -68.5v-114h-155v106q-99 7 -174 34l26 148q40 -12 97 -22t98 -10q53 0 75.5 13.5t22.5 45.5q0 27 -29.5 44t-105.5 38
q-89 23 -134.5 72t-45.5 133q0 74 45.5 123t124.5 66v115h155v-111q63 -7 113 -25z" />
    <glyph glyph-name="percent" unicode="%" horiz-adv-x="886" 
d="M375 508q0 -83 -47.5 -130t-124.5 -47t-125 47t-48 130q0 81 48 128t125 47t124.5 -47t47.5 -128zM161 508q0 -70 42 -70q41 0 41 70q0 69 -41 69q-21 0 -31.5 -18.5t-10.5 -50.5zM565 671h127l-371 -671h-127zM856 165q0 -83 -47.5 -130t-124.5 -47t-125 47t-48 130
q0 81 48 128t125 47t124.5 -47t47.5 -128zM642 165q0 -70 42 -70q41 0 41 70q0 69 -41 69q-21 0 -31.5 -18.5t-10.5 -50.5z" />
    <glyph glyph-name="ampersand" unicode="&#x26;" horiz-adv-x="758" 
d="M278 520q0 -15 5.5 -33.5t30.5 -48.5q31 16 49.5 36t18.5 49q0 23 -14 37t-41 14q-23 0 -36 -14t-13 -40zM541 0l-45 43q-89 -55 -198 -55q-121 0 -192 56t-71 156q0 28 12.5 62t43.5 65.5t73 53.5q-28 39 -38 71.5t-10 71.5q0 83 58 135.5t154 52.5t152.5 -47t56.5 -121
q0 -68 -36 -114.5t-103 -79.5l97 -97q26 52 36 128h158q-5 -62 -27 -124t-59 -112l145 -145h-207zM305 134q47 0 83 15l-120 117l-18 18q-40 -29 -40 -76q0 -25 16.5 -43t38.5 -24.5t40 -6.5z" />
    <glyph glyph-name="quotesingle" unicode="'" horiz-adv-x="238" 
d="M62 433q-2 14 -8 70t-10 104t-4 93h158q0 -12 -1.5 -48t-10 -114.5t-10.5 -104.5h-114z" />
    <glyph glyph-name="parenleft" unicode="(" horiz-adv-x="354" 
d="M339 761q-67 -121 -96.5 -226.5t-29.5 -225.5q0 -105 25.5 -211t100.5 -242h-166q-39 54 -68.5 125.5t-47 154.5t-17.5 173q0 72 13 148.5t43.5 158t76.5 145.5h166z" />
    <glyph glyph-name="parenright" unicode=")" horiz-adv-x="354" 
d="M141 309q0 105 -25.5 210.5t-100.5 241.5h166q39 -54 68.5 -125.5t47 -154t17.5 -172.5t-17.5 -173t-47 -154.5t-68.5 -125.5h-166q67 121 96.5 227t29.5 226z" />
    <glyph glyph-name="asterisk" unicode="*" horiz-adv-x="385" 
d="M137 740h110q0 -42 -5 -95q45 19 90 35l33 -105q-49 -15 -95 -25q42 -47 63 -77l-89 -64q-24 34 -53 81q-29 -50 -51 -80l-89 65q28 37 61 75q-56 13 -92 25l34 104q43 -14 88 -34q-5 53 -5 95z" />
    <glyph glyph-name="plus" unicode="+" horiz-adv-x="559" 
d="M40 268v146h163v168h155v-168h161v-146h-161v-172h-155v172h-163z" />
    <glyph glyph-name="comma" unicode="," horiz-adv-x="281" 
d="M69 156h163q0 -60 -20 -124.5t-44.5 -109.5t-43.5 -70h-89q14 69 23 150t11 154z" />
    <glyph glyph-name="hyphen" unicode="-" horiz-adv-x="367" 
d="M40 251v143h287v-143h-287z" />
    <glyph glyph-name="period" unicode="." horiz-adv-x="281" 
d="M141 -12q-45 0 -70.5 24.5t-25.5 67.5q0 42 25.5 66.5t70.5 24.5t70 -24.5t25 -66.5t-25 -67t-70 -25z" />
    <glyph glyph-name="slash" unicode="/" horiz-adv-x="527" 
d="M327 755h170l-297 -811h-170z" />
    <glyph glyph-name="zero" unicode="0" horiz-adv-x="626" 
d="M314 -12q-70 0 -123 27t-86.5 75t-49 110.5t-15.5 133.5t15.5 134t49 111.5t86.5 76t123 27.5q52 0 102.5 -18.5t88 -61.5t59.5 -110t22 -159t-22 -158.5t-59.5 -109t-88 -60.5t-102.5 -18zM314 136q50 0 72 49t22 149q0 75 -11 118.5t-32.5 63t-50.5 19.5
q-50 0 -73 -50.5t-23 -150.5q0 -99 23 -148.5t73 -49.5z" />
    <glyph glyph-name="one" unicode="1" horiz-adv-x="422" 
d="M75 435l-70 132q39 27 96.5 56.5t106.5 47.5h154v-671h-174v493q-53 -23 -113 -58z" />
    <glyph glyph-name="two" unicode="2" horiz-adv-x="537" 
d="M37 0v142l94 88q99 92 129.5 139.5t30.5 91.5q0 74 -73 74q-26 0 -54 -9t-69 -38l-75 122q90 73 219 73q109 0 168.5 -54t59.5 -151q0 -76 -49 -156t-155 -175h239v-147h-465z" />
    <glyph glyph-name="three" unicode="3" horiz-adv-x="517" 
d="M31 31l43 135q28 -13 64 -21.5t71 -8.5q45 0 71 18t26 54q0 29 -17.5 43t-45 17t-54.5 3h-47v144h30q52 0 79.5 14t27.5 48q0 30 -23 44t-60 14q-52 0 -107 -38l-69 123q87 63 208 63q108 0 167.5 -47.5t59.5 -128.5q0 -51 -23.5 -90t-66.5 -62q40 -16 68 -43t38.5 -60.5
t10.5 -63.5q0 -61 -29.5 -105t-86.5 -69.5t-140 -25.5q-114 0 -195 43z" />
    <glyph glyph-name="four" unicode="4" horiz-adv-x="624" 
d="M507 260h97v-142h-97v-118h-163v118h-324v128q54 111 139.5 231t172.5 208h175v-425zM354 513q-99 -137 -161 -253h151v37q0 99 10 216z" />
    <glyph glyph-name="five" unicode="5" horiz-adv-x="548" 
d="M457 524h-233l-8 -84l42 1q127 0 191 -58t64 -158q0 -112 -75.5 -174.5t-204.5 -62.5q-116 0 -213 51l48 136q35 -15 80.5 -27t82.5 -12q54 0 80 20.5t26 64.5q0 38 -35.5 57.5t-96.5 19.5q-74 0 -150 -17l36 390h366v-147z" />
    <glyph glyph-name="six" unicode="6" horiz-adv-x="590" 
d="M495 664l-33 -139q-46 12 -86 12q-68 0 -105.5 -33.5t-50.5 -102.5q28 17 64 27t71 10t71 -10.5t65.5 -36t49 -67t19.5 -97.5q0 -111 -66 -175t-183 -64q-61 0 -111.5 23.5t-86 66t-54.5 100.5t-19 124q0 79 19.5 148.5t58.5 121.5t100.5 81.5t140.5 29.5q85 0 136 -19z
M313 136q34 0 53 21.5t19 56.5q0 76 -86 76q-37 0 -86 -21q4 -46 19.5 -78t37.5 -43.5t43 -11.5z" />
    <glyph glyph-name="seven" unicode="7" horiz-adv-x="502" 
d="M252 0h-185q83 291 218 524h-260v147h447v-129q-157 -310 -220 -542z" />
    <glyph glyph-name="eight" unicode="8" horiz-adv-x="601" 
d="M556 202q0 -99 -67.5 -156.5t-191.5 -57.5q-54 0 -100.5 12.5t-80.5 37.5t-52.5 61.5t-18.5 82.5q0 50 22 88.5t61 63.5q-69 52 -69 146q0 33 11.5 68t44 68.5t82.5 50t102 16.5q46 0 90.5 -9.5t82 -35.5t54 -65t16.5 -78q0 -45 -19.5 -82t-54.5 -62q88 -58 88 -149z
M328 411l11 -3q31 33 31 76q0 30 -18 47.5t-54 17.5q-30 0 -48 -16t-18 -43q0 -23 15 -41t81 -38zM304 122q38 0 58 17t20 48q0 24 -18.5 42.5t-98.5 43.5l-6 2q-17 -13 -28.5 -33.5t-11.5 -45.5q0 -34 23.5 -54t61.5 -20z" />
    <glyph glyph-name="nine" unicode="9" horiz-adv-x="589" 
d="M287 370q47 0 90 16q-7 149 -96 149q-35 0 -56.5 -22.5t-21.5 -66.5q0 -35 21.5 -55.5t62.5 -20.5zM72 10l24 142q57 -16 110 -16q55 0 89 15t50 42t22 54q-24 -11 -55.5 -18t-60.5 -7q-40 0 -79.5 10.5t-74.5 40.5t-51 76.5t-16 95.5q0 51 18 95t51 76t79.5 49.5
t100.5 17.5q64 0 115 -22t85.5 -63.5t52 -101t17.5 -131.5q0 -84 -16 -152t-54 -118.5t-103 -78.5t-157 -28q-85 0 -147 22z" />
    <glyph glyph-name="colon" unicode=":" horiz-adv-x="311" 
d="M251 80q0 -42 -25 -67t-70 -25t-70.5 24.5t-25.5 67.5q0 42 25.5 66.5t70.5 24.5t70 -24.5t25 -66.5zM251 426q0 -42 -25 -67t-70 -25t-70.5 24.5t-25.5 67.5q0 42 25.5 66.5t70.5 24.5t70 -24.5t25 -66.5z" />
    <glyph glyph-name="semicolon" unicode=";" horiz-adv-x="311" 
d="M251 426q0 -42 -25 -67t-70 -25t-70.5 24.5t-25.5 67.5q0 42 25.5 66.5t70.5 24.5t70 -24.5t25 -66.5zM79 156h163q0 -60 -20 -124.5t-44.5 -109.5t-43.5 -70h-89q14 69 23 150t11 154z" />
    <glyph glyph-name="less" unicode="&#x3c;" horiz-adv-x="559" 
d="M519 92l-479 167v163l479 167v-168l-289 -80l289 -81v-168z" />
    <glyph glyph-name="equal" unicode="=" horiz-adv-x="559" 
d="M40 173v146h479v-146h-479zM40 363v146h479v-146h-479z" />
    <glyph glyph-name="greater" unicode="&#x3e;" horiz-adv-x="559" 
d="M40 92v168l289 81l-289 80v168l479 -167v-163z" />
    <glyph glyph-name="question" unicode="?" horiz-adv-x="462" 
d="M191 171q45 0 70 -24.5t25 -66.5t-25 -67t-70 -25t-70.5 24.5t-25.5 67.5q0 42 25.5 66.5t70.5 24.5zM49 532l-34 145q37 16 82.5 25.5t85.5 9.5q123 0 188.5 -53.5t65.5 -147.5q0 -84 -64 -143q-3 -3 -9 -8.5t-51.5 -43.5t-45.5 -83v-6h-157v35q0 31 12.5 61.5
t48.5 59.5q6 5 33.5 26.5t38.5 39.5t11 39q0 35 -24 51.5t-66 16.5q-46 0 -115 -24z" />
    <glyph glyph-name="at" unicode="@" horiz-adv-x="968" 
d="M418 188q0 -34 18 -54.5t49 -20.5q22 0 47 9q-8 36 -2 88l9 75q-16 3 -36 3q-38 0 -61.5 -26t-23.5 -74zM492 511q-69 0 -126.5 -22.5t-98.5 -65.5t-63 -103.5t-22 -132.5q0 -78 24.5 -136.5t67.5 -94.5t100.5 -52.5t123.5 -16.5q48 0 104.5 8t105.5 22l19 -123
q-107 -39 -233 -39q-107 0 -193.5 30t-145.5 86.5t-89.5 136.5t-30.5 177q0 90 30 173.5t88 146.5t144.5 100.5t199.5 37.5q101 0 183 -28.5t138.5 -79t85.5 -119t29 -145.5q0 -95 -28.5 -157.5t-76.5 -94t-116 -31.5q-43 0 -78 15t-57 41q-49 -56 -127 -56q-83 0 -130 53.5
t-47 145.5q0 50 15.5 92t45.5 72t72 46t92 16q91 0 188 -34l-22 -198q-4 -32 10.5 -50.5t46.5 -18.5q17 0 32 15.5t24 55t9 87.5q0 116 -78.5 178.5t-215.5 62.5z" />
    <glyph glyph-name="A" unicode="A" horiz-adv-x="677" 
d="M338 511q-29 -63 -75 -232h150q-46 169 -75 232zM484 0l-32 129h-228l-32 -129h-182q47 182 112 379t124 321h184q59 -125 125 -322.5t112 -377.5h-183z" />
    <glyph glyph-name="B" unicode="B" horiz-adv-x="606" 
d="M322 0h-262v700h244q117 0 184.5 -48t67.5 -134q0 -43 -18.5 -79t-50.5 -60q46 -25 70 -69t24 -96q0 -102 -69.5 -158t-189.5 -56zM232 289v-139h75q99 0 99 66q0 73 -99 73h-75zM232 550v-129h82q67 0 67 68q0 14 -7.5 29t-26 23.5t-41.5 8.5h-74z" />
    <glyph glyph-name="C" unicode="C" horiz-adv-x="580" 
d="M370 -12q-79 0 -142 25.5t-106 73t-65 114t-22 146.5q0 81 22.5 149t66.5 116t109 74t147 26q40 0 87.5 -11t80.5 -25l-39 -150q-37 14 -67.5 22t-59.5 8q-85 0 -124.5 -52.5t-39.5 -155.5t38.5 -153.5t121.5 -50.5q70 0 143 40l34 -152q-35 -20 -85.5 -32t-99.5 -12z
" />
    <glyph glyph-name="D" unicode="D" horiz-adv-x="693" 
d="M480 353q0 101 -43 149t-130 48h-70v-400h70q87 0 130 49.5t43 153.5zM60 0v700h252q76 0 140.5 -23.5t112 -68.5t73 -110.5t25.5 -144.5q0 -81 -25.5 -147.5t-73 -112t-112 -69.5t-140.5 -24h-252z" />
    <glyph glyph-name="E" unicode="E" horiz-adv-x="550" 
d="M510 150v-150h-450v700h450v-150h-273v-122h232v-150h-232v-128h273z" />
    <glyph glyph-name="F" unicode="F" horiz-adv-x="535" 
d="M237 0h-177v700h440v-150h-263v-153h222v-150h-222v-247z" />
    <glyph glyph-name="G" unicode="G" horiz-adv-x="657" 
d="M612 48q-111 -60 -233 -60q-78 0 -142.5 25t-109.5 71.5t-68.5 112t-23.5 143.5q0 82 25 151.5t72 118.5t114.5 75.5t148.5 26.5q41 0 94.5 -8.5t93.5 -25.5l-38 -148q-34 13 -73 19.5t-74 6.5q-89 0 -134.5 -55t-45.5 -161q0 -96 43.5 -146t126.5 -50q36 0 64 6v117h-98
v145h258v-364z" />
    <glyph glyph-name="H" unicode="H" horiz-adv-x="704" 
d="M644 0h-177v279h-230v-279h-177v700h177v-271h230v271h177v-700z" />
    <glyph glyph-name="I" unicode="I" horiz-adv-x="297" 
d="M60 0v700h177v-700h-177z" />
    <glyph glyph-name="J" unicode="J" horiz-adv-x="297" 
d="M-15 -94q34 51 54.5 119.5t20.5 143.5v531h177v-541q0 -75 -13 -139.5t-37 -112t-48 -80.5z" />
    <glyph glyph-name="K" unicode="K" horiz-adv-x="657" 
d="M619 700q-45 -202 -196 -346l235 -354h-201l-163 255l-57 -33v-222h-177v700h177v-300q81 56 133 132t72 168h177z" />
    <glyph glyph-name="L" unicode="L" horiz-adv-x="527" 
d="M60 0v700h177v-550h260v-150h-437z" />
    <glyph glyph-name="M" unicode="M" horiz-adv-x="882" 
d="M640 700h182v-700h-162v270q0 26 3 69.5t6 69.5q-74 -152 -159 -281h-136q-92 140 -161 283q9 -64 9 -141v-270h-162v700h182q48 -116 94 -208t106 -186q45 70 90.5 156.5t107.5 237.5z" />
    <glyph glyph-name="N" unicode="N" horiz-adv-x="713" 
d="M222 0h-162v700h171q108 -223 264 -453q-4 37 -4 84v369h162v-700h-172q-84 115 -142.5 202t-120.5 200q4 -41 4 -123v-279z" />
    <glyph glyph-name="O" unicode="O" horiz-adv-x="723" 
d="M688 350q0 -80 -22.5 -147.5t-65.5 -115t-104 -73.5t-134 -26q-74 0 -135 26t-104 73.5t-65.5 115t-22.5 147.5t22.5 147.5t65.5 115t104 73.5t135 26q73 0 134 -26t104 -73.5t65.5 -115t22.5 -147.5zM218 350q0 -99 37.5 -152.5t106.5 -53.5t106 53.5t37 152.5
t-37 152.5t-106 53.5t-106.5 -53.5t-37.5 -152.5z" />
    <glyph glyph-name="P" unicode="P" horiz-adv-x="608" 
d="M60 0v700h234q131 0 207.5 -66.5t76.5 -181.5t-76.5 -181t-207.5 -66h-57v-205h-177zM395 452q0 52 -26.5 75t-78.5 23h-53v-195h53q52 0 78.5 23t26.5 74z" />
    <glyph glyph-name="Q" unicode="Q" horiz-adv-x="723" 
d="M665 -154q-37 -6 -78 -6q-85 0 -144 38t-84 110q-73 1 -133.5 27t-103 73.5t-65 114.5t-22.5 147t22.5 147.5t65.5 115t104 73.5t135 26q73 0 134 -26t104 -73.5t65.5 -115t22.5 -147.5q0 -114 -45 -199.5t-125 -127.5q12 -16 31.5 -25t44.5 -9q36 0 59 5zM218 350
q0 -99 37.5 -152.5t106.5 -53.5t106 53.5t37 152.5t-37 152.5t-106 53.5t-106.5 -53.5t-37.5 -152.5z" />
    <glyph glyph-name="R" unicode="R" horiz-adv-x="628" 
d="M276 550h-38v-158h38q107 0 107 79q0 44 -27 61.5t-80 17.5zM610 0h-188l-82 194q-20 49 -75 49h-27v-243h-178v700h224q131 0 206 -57t75 -156q0 -73 -30 -118t-93 -69q50 -20 81 -94z" />
    <glyph glyph-name="S" unicode="S" horiz-adv-x="533" 
d="M30 30l32 149q39 -16 87.5 -27t93.5 -11q46 0 68.5 15.5t22.5 42.5q0 25 -14.5 40.5t-40.5 26t-60 22.5q-104 36 -146 87.5t-42 125.5q0 100 64.5 155.5t184.5 55.5q43 0 97.5 -9t99.5 -30l-34 -146q-77 32 -153 32q-80 0 -80 -52q0 -22 14 -38.5t82 -41.5
q91 -33 132 -65t58 -72.5t17 -89.5q0 -99 -70.5 -155.5t-191.5 -56.5q-46 0 -108 9.5t-113 32.5z" />
    <glyph glyph-name="T" unicode="T" horiz-adv-x="563" 
d="M193 0v550h-173v150h523v-150h-173v-550h-177z" />
    <glyph glyph-name="U" unicode="U" horiz-adv-x="686" 
d="M55 282v418h177v-405q0 -73 28 -112t83 -39t83 39t28 112v405h177v-418q0 -68 -19 -123t-55.5 -93t-91 -58t-122.5 -20t-122.5 20t-91 58t-55.5 93t-19 123z" />
    <glyph glyph-name="V" unicode="V" horiz-adv-x="674" 
d="M437 0h-200q-67 137 -130.5 334t-96.5 366h183q30 -144 71.5 -298.5t72.5 -232.5q31 78 72.5 232.5t71.5 298.5h183q-33 -169 -96.5 -366t-130.5 -334z" />
    <glyph glyph-name="W" unicode="W" horiz-adv-x="1004" 
d="M703 168q26 82 58 240.5t48 291.5h180q-25 -177 -75 -376.5t-106 -323.5h-194q-60 159 -112 369q-52 -210 -112 -369h-194q-54 128 -105.5 330.5t-75.5 369.5h180q16 -133 48 -291.5t58 -240.5q34 93 71.5 247t52.5 285h155q8 -67 25 -157.5t44 -195t54 -179.5z" />
    <glyph glyph-name="X" unicode="X" horiz-adv-x="669" 
d="M468 0l-163 250q-23 -37 -56 -103t-63 -147h-186q33 87 92 185.5t130 191.5l-211 323h201l144 -220q30 46 62.5 108.5t48.5 111.5h186q-26 -66 -78 -154.5t-138 -190.5l232 -355h-201z" />
    <glyph glyph-name="Y" unicode="Y" horiz-adv-x="634" 
d="M228 0v273q-81 122 -138.5 226.5t-89.5 200.5h181q25 -71 56 -137t80 -145q37 60 71 126.5t65 155.5h181q-57 -171 -229 -428v-272h-177z" />
    <glyph glyph-name="Z" unicode="Z" horiz-adv-x="567" 
d="M517 568q-92 -209 -268 -418h293v-150h-507v135q208 238 297 415h-286v150h471v-132z" />
    <glyph glyph-name="bracketleft" unicode="[" horiz-adv-x="350" 
d="M60 -144v905h265v-146h-98v-613h98v-146h-265z" />
    <glyph glyph-name="backslash" unicode="\" horiz-adv-x="527" 
d="M327 -56l-297 811h170l297 -811h-170z" />
    <glyph glyph-name="bracketright" unicode="]" horiz-adv-x="350" 
d="M25 761h265v-905h-265v146h98v613h-98v146z" />
    <glyph glyph-name="asciicircum" unicode="^" horiz-adv-x="569" 
d="M359 332l-74 180l-75 -180h-170l162 368h165l162 -368h-170z" />
    <glyph glyph-name="underscore" unicode="_" horiz-adv-x="526" 
d="M20 -146v126h486v-126h-486z" />
    <glyph glyph-name="grave" unicode="`" 
d="M195 566l-123 174h183l88 -174h-148z" />
    <glyph glyph-name="a" unicode="a" horiz-adv-x="517" 
d="M256 108q29 0 46 7v85q-27 6 -50 6q-25 0 -42 -12.5t-17 -36.5t16.5 -36.5t46.5 -12.5zM467 30q-35 -16 -96.5 -29t-132.5 -13q-65 0 -111 18.5t-74 54.5t-28 89q0 71 55 115t148 44q42 0 74 -5v8q0 75 -87 75q-32 0 -67.5 -6t-64.5 -17l-29 132q36 14 88 22.5t93 8.5
q114 0 173 -59t59 -167v-271z" />
    <glyph glyph-name="b" unicode="b" horiz-adv-x="578" 
d="M548 263q0 -62 -19.5 -113.5t-55.5 -87.5t-87 -55t-112 -19q-64 0 -124 9.5t-95 28.5v690l170 8v-200q21 3 56 3q59 0 108.5 -18t85 -52.5t54.5 -84t19 -109.5zM225 134q18 -6 41 -6q57 0 83 34.5t26 94.5q0 64 -25.5 97t-83.5 33q-14 0 -41 -5v-248z" />
    <glyph glyph-name="c" unicode="c" horiz-adv-x="469" 
d="M290 527q37 0 80.5 -8.5t73.5 -22.5l-31 -133q-57 24 -108 24q-47 0 -74.5 -33.5t-27.5 -91.5q0 -68 29 -101t79 -33q22 0 51.5 6.5t54.5 17.5l26 -136q-58 -28 -147 -28q-124 0 -195 73.5t-71 195.5q0 60 18 110t51.5 86t82.5 55t108 19z" />
    <glyph glyph-name="d" unicode="d" horiz-adv-x="578" 
d="M523 28q-41 -17 -99.5 -28.5t-111.5 -11.5q-65 0 -118 18.5t-89.5 52.5t-55.5 82.5t-19 106.5q0 61 20 113t57.5 89t88.5 57t111 20q24 0 46 -3v192l170 8v-696zM203 257q0 -64 28.5 -96.5t79.5 -32.5q25 0 42 7v247q-22 5 -36 5q-55 0 -84.5 -32.5t-29.5 -97.5z" />
    <glyph glyph-name="e" unicode="e" horiz-adv-x="539" 
d="M458 157l26 -135q-32 -15 -81 -24.5t-97 -9.5q-60 0 -111 19t-88 55t-57 86.5t-20 109.5t19 109t53.5 86t81.5 55t102 19q47 0 88.5 -16.5t71.5 -47.5t46.5 -74t16.5 -94q0 -43 -4 -83h-295q20 -82 115 -82q64 0 133 27zM286 392q-31 0 -52 -21t-28 -59h141v8
q0 34 -17 53t-44 19z" />
    <glyph glyph-name="f" unicode="f" horiz-adv-x="389" 
d="M15 515h65v3q0 98 51.5 156.5t145.5 58.5q53 0 112 -13l-26 -132q-27 5 -52 5q-61 0 -61 -71v-7h108v-135h-108v-380h-170v380h-65v135z" />
    <glyph glyph-name="g" unicode="g" horiz-adv-x="578" 
d="M523 49q0 -111 -73.5 -174.5t-199.5 -63.5q-44 0 -86.5 5.5t-95.5 26.5l35 134q27 -12 64.5 -19t71.5 -7q52 0 83 20t31 59v6q-36 -12 -79 -12q-114 0 -179 63t-65 175q0 59 20.5 108.5t57.5 84.5t89 53.5t113 18.5q57 0 114 -12.5t99 -28.5v-437zM203 277
q0 -51 26.5 -81t73.5 -30q24 0 50 8v207q-22 6 -42 6q-51 0 -79.5 -30.5t-28.5 -79.5z" />
    <glyph glyph-name="h" unicode="h" horiz-adv-x="582" 
d="M225 0h-170v718l170 8v-211q32 12 83 12q49 0 90 -14t71 -41.5t46.5 -68.5t16.5 -92v-311h-170v297q0 88 -83 88q-29 0 -54 -10v-375z" />
    <glyph glyph-name="i" unicode="i" horiz-adv-x="280" 
d="M225 515v-515h-170v515h170zM140 564q-45 0 -70.5 25t-25.5 67q0 41 25.5 66t70.5 25q44 0 69.5 -25t25.5 -66q0 -42 -25.5 -67t-69.5 -25z" />
    <glyph glyph-name="j" unicode="j" horiz-adv-x="280" 
d="M225 54q0 -89 -44 -147t-141 -89l-49 139q33 17 48.5 40.5t15.5 66.5v451h170v-461zM235 656q0 -42 -25.5 -67t-69.5 -25q-45 0 -70.5 25t-25.5 67q0 41 25.5 66t70.5 25q44 0 69.5 -25t25.5 -66z" />
    <glyph glyph-name="k" unicode="k" horiz-adv-x="555" 
d="M516 515q0 -120 -120 -237l159 -278h-184l-97 179l-49 -33v-146h-170v716l170 8v-413q100 76 121 204h170z" />
    <glyph glyph-name="l" unicode="l" horiz-adv-x="320" 
d="M220 726v-521q0 -77 48 -77q14 0 30 3l12 -134q-41 -9 -83 -9q-58 0 -96.5 23.5t-59.5 70t-21 121.5v513z" />
    <glyph glyph-name="m" unicode="m" horiz-adv-x="870" 
d="M820 0h-170v299q0 47 -17.5 67.5t-55.5 20.5t-68 -15q11 -44 11 -97v-275h-165v299q0 47 -18 67.5t-56 20.5q-26 0 -56 -10v-377h-170v486q49 19 112.5 30t122.5 11q87 0 140 -37q32 15 74.5 26t81.5 11q111 0 172.5 -55.5t61.5 -160.5v-311z" />
    <glyph glyph-name="n" unicode="n" horiz-adv-x="582" 
d="M225 0h-170v486q47 18 112 29.5t121 11.5q115 0 179.5 -55.5t64.5 -160.5v-311h-170v299q0 88 -76 88q-33 0 -61 -10v-377z" />
    <glyph glyph-name="o" unicode="o" horiz-adv-x="579" 
d="M549 258q0 -122 -70.5 -196t-188.5 -74t-189 74t-71 196q0 121 71 195t189 74q58 0 106.5 -19t82.5 -55t52 -86t18 -109zM203 258q0 -61 23 -95.5t64 -34.5q29 0 50 19.5t28.5 50.5t7.5 60q0 28 -7.5 59t-28.5 50.5t-50 19.5q-19 0 -39.5 -11t-34 -42.5t-13.5 -75.5z" />
    <glyph glyph-name="p" unicode="p" horiz-adv-x="578" 
d="M548 262q0 -60 -18 -111t-52 -86.5t-81 -55t-103 -19.5q-43 0 -69 8v-186h-170v674q43 17 103 29t115 12q61 0 112.5 -18t87.5 -52.5t55.5 -84t19.5 -110.5zM225 135q21 -7 43 -7q55 0 81 31.5t26 97.5q0 130 -112 130q-11 0 -38 -5v-247z" />
    <glyph glyph-name="q" unicode="q" horiz-adv-x="578" 
d="M523 -188h-170v188q-39 -12 -78 -12q-55 0 -101 18.5t-78 53t-49 82.5t-17 106q0 62 19 113.5t55 88.5t87 57t113 20q41 0 102 -9.5t117 -31.5v-674zM203 257q0 -61 28.5 -95t82.5 -34q18 0 39 7v247q-27 5 -39 5q-54 0 -82.5 -34.5t-28.5 -95.5z" />
    <glyph glyph-name="r" unicode="r" horiz-adv-x="381" 
d="M55 486q39 18 99 29.5t111 11.5q12 0 47 -2t59 -10l-24 -138q-27 10 -67 10q-32 0 -55 -9v-378h-170v486z" />
    <glyph glyph-name="s" unicode="s" horiz-adv-x="444" 
d="M407 496l-17 -138q-95 29 -145 29q-24 0 -38 -5.5t-14 -16.5q0 -13 13 -20t57 -19q58 -15 94 -34t56.5 -50t20.5 -84q0 -82 -60.5 -126t-161.5 -44q-44 0 -95.5 9t-91.5 26l22 138q33 -14 78 -23.5t84 -9.5q26 0 42.5 7t16.5 19q0 13 -10.5 21.5t-83.5 27.5
q-75 19 -111 56.5t-36 101.5q0 79 54 122.5t150 43.5q39 0 89 -8.5t87 -22.5z" />
    <glyph glyph-name="t" unicode="t" horiz-adv-x="379" 
d="M364 -4q-40 -8 -94 -8q-195 0 -195 215v177h-65v135h65v107l170 8v-115h99v-135h-99v-175q0 -37 16 -57t45 -20t49 4z" />
    <glyph glyph-name="u" unicode="u" horiz-adv-x="581" 
d="M526 29q-37 -13 -103.5 -27t-130.5 -14q-50 0 -96 11t-78 37.5t-50 70.5t-18 112v296h170v-297q0 -90 77 -90q32 0 59 10v377h170v-486z" />
    <glyph glyph-name="v" unicode="v" horiz-adv-x="549" 
d="M192 515q4 -121 24.5 -211t58.5 -169q39 79 60 169t23 211h171q-10 -116 -29 -199.5t-49.5 -156t-80.5 -159.5h-190q-86 142 -119.5 254t-40.5 261h172z" />
    <glyph glyph-name="w" unicode="w" horiz-adv-x="813" 
d="M480 515q6 -220 69 -385q37 76 56 169t20 216h168q-11 -158 -43 -270t-109 -245h-169q-47 91 -71 150q-27 -79 -66 -150h-163q-33 50 -57 97.5t-42 97.5t-32 122.5t-21 197.5h168q2 -60 9 -129t24.5 -134t42.5 -122q28 55 46 130.5t22 142.5q-7 47 -10 112h158z" />
    <glyph glyph-name="x" unicode="x" horiz-adv-x="538" 
d="M14 0q31 145 145 270q-72 80 -102 135.5t-44 109.5h184q10 -52 84 -155q50 93 54 155h173q-21 -81 -54 -143t-85 -117q59 -66 96 -125t60 -130h-184q-18 59 -97 166q-23 -41 -41 -82t-25 -84h-164z" />
    <glyph glyph-name="y" unicode="y" horiz-adv-x="521" 
d="M376 58q-125 -220 -312 -245l-25 144q40 4 87 28.5t65 53.5q-86 111 -127.5 220.5t-48.5 255.5h172q0 -103 22 -186.5t70 -162.5q31 73 44 149.5t13 199.5h170q-6 -124 -42 -244t-88 -213z" />
    <glyph glyph-name="z" unicode="z" horiz-adv-x="468" 
d="M38 515h389v-114q-42 -80 -85.5 -142t-102.5 -124h204v-135h-413v114q65 65 124.5 137.5t90.5 128.5h-207v135z" />
    <glyph glyph-name="braceleft" unicode="{" horiz-adv-x="373" 
d="M20 381q48 0 67.5 17.5t19.5 57.5q0 15 -5 63t-5 74q0 56 23 95t60.5 58.5t86.5 19.5q50 0 81 -6v-128h-26q-34 0 -48.5 -16.5t-14.5 -48.5q0 -16 5 -59.5t5 -59.5q0 -104 -92 -137q92 -33 92 -137q0 -16 -5 -59.5t-5 -59.5q0 -32 14.5 -48.5t48.5 -16.5h26v-128
q-31 -6 -83 -6q-78 0 -123 48t-45 125q0 26 5 74t5 63q0 40 -19.5 57.5t-67.5 17.5v140z" />
    <glyph glyph-name="bar" unicode="|" horiz-adv-x="292" 
d="M60 -244v1025h172v-1025h-172z" />
    <glyph glyph-name="braceright" unicode="}" horiz-adv-x="373" 
d="M266 456q0 -40 19.5 -57.5t67.5 -17.5v-140q-48 0 -67.5 -17.5t-19.5 -57.5q0 -15 5 -63t5 -74q0 -77 -45 -125t-123 -48q-51 0 -83 6v128h26q34 0 48.5 16.5t14.5 48.5q0 16 -5 59.5t-5 59.5q0 104 92 137q-92 33 -92 137q0 16 5 59.5t5 59.5q0 32 -14.5 48.5
t-48.5 16.5h-26v128q32 6 81 6t86.5 -19.5t60.5 -58.5t23 -95q0 -26 -5 -74t-5 -63z" />
    <glyph glyph-name="asciitilde" unicode="~" horiz-adv-x="559" 
d="M358 400q21 0 39 8t29 35l93 -60q-6 -53 -28 -86.5t-50 -45t-52 -11.5q-6 0 -22 1t-32 5t-59.5 20t-74.5 16q-46 0 -67 -36l-94 66q9 42 32 73.5t52 43t54 11.5q38 0 92 -20t88 -20z" />
    <glyph glyph-name="uni00A0" unicode="&#xa0;" horiz-adv-x="230" 
 />
    <glyph glyph-name="exclamdown" unicode="&#xa1;" horiz-adv-x="335" 
d="M70 -185v146q0 40 4.5 111t28.5 216h130q32 -183 32 -327v-146h-195zM72 435q0 42 25 67t70 25t70.5 -24.5t25.5 -67.5q0 -42 -25.5 -66.5t-70.5 -24.5t-70 24.5t-25 66.5z" />
    <glyph glyph-name="cent" unicode="&#xa2;" horiz-adv-x="489" 
d="M35 257q0 96 44 163.5t123 92.5v114h155v-103q62 -6 102 -23l-31 -133q-52 19 -102 19q-118 0 -118 -125q0 -134 117 -134q22 0 53.5 5t53.5 14l26 -136q-36 -16 -99 -21v-105h-155v117q-60 19 -97 58t-54.5 88.5t-17.5 108.5z" />
    <glyph glyph-name="sterling" unicode="&#xa3;" horiz-adv-x="566" 
d="M531 0h-424v272h-87v140h87v30q0 54 14.5 98.5t43 76.5t72 49t98.5 17q46 0 96 -8t93 -27l-45 -137q-60 20 -119 20q-43 0 -62.5 -22t-19.5 -67v-30h134v-140h-134v-124h253v-148z" />
    <glyph glyph-name="currency" unicode="&#xa4;" horiz-adv-x="676" 
d="M230 352q0 -23 9.5 -50t35.5 -44.5t63 -17.5q49 0 77.5 31t28.5 81q0 37 -16 64t-41 37t-49 10t-49.5 -10t-42 -37t-16.5 -64zM540 64l-81 77q-56 -27 -121 -27q-68 0 -122 27l-80 -77l-96 100l78 75q-25 50 -25 113q0 65 26 115l-79 76l96 100l83 -80q54 26 119 26
t119 -26l83 80l96 -100l-80 -77q11 -23 18 -53.5t7 -60.5q0 -61 -24 -112l79 -76z" />
    <glyph glyph-name="yen" unicode="&#xa5;" horiz-adv-x="683" 
d="M60 132v120h196v35l-21 31h-175v120h100q-63 109 -120 233h180q23 -60 55.5 -126t66.5 -122q34 56 66 122t55 126h180q-60 -132 -119 -233h99v-120h-174l-22 -32v-34h196v-120h-196v-132h-171v132h-196z" />
    <glyph glyph-name="brokenbar" unicode="&#xa6;" horiz-adv-x="292" 
d="M60 341v440h172v-440h-172zM60 -244v441h172v-441h-172z" />
    <glyph glyph-name="section" unicode="&#xa7;" horiz-adv-x="603" 
d="M340 192l22 -9q26 26 26 59q0 21 -15.5 38t-109.5 53l-22 9q-26 -26 -26 -59q0 -21 15.5 -38t109.5 -53zM280 -187q-54 0 -106 11t-85 26l30 138q30 -9 73.5 -16.5t75.5 -7.5q35 0 52.5 7t17.5 24q0 15 -13.5 27t-87.5 40q-76 28 -118 55t-63 63t-21 84q0 51 22.5 90
t63.5 63q-36 42 -36 108q0 57 28 97.5t81 65t129 24.5q54 0 106 -11t85 -26l-30 -138q-30 9 -73.5 16.5t-75.5 7.5q-35 0 -52.5 -7t-17.5 -24q0 -15 13.5 -27t87.5 -40q76 -28 118 -55t63 -63t21 -84q0 -51 -22.5 -90t-63.5 -63q36 -42 36 -108q0 -57 -28 -97.5t-81 -65
t-129 -24.5z" />
    <glyph glyph-name="dieresis" unicode="&#xa8;" 
d="M230 645q0 -38 -25 -61t-65 -23q-42 0 -65.5 23t-23.5 61t24 61t65 23q40 0 65 -23.5t25 -60.5zM448 645q0 -38 -23.5 -61t-65.5 -23q-40 0 -64.5 23t-24.5 61q0 37 24.5 60.5t64.5 23.5q41 0 65 -23t24 -61z" />
    <glyph glyph-name="copyright" unicode="&#xa9;" horiz-adv-x="818" 
d="M421 538q50 0 96 -17l-18 -99q-40 10 -64 10q-80 0 -80 -79t80 -79q30 0 64 9l17 -99q-47 -16 -95 -16q-60 0 -101 23.5t-62.5 64t-21.5 97.5t21.5 97.5t63 64t100.5 23.5zM141 350q0 -120 71 -192t197 -72t197 72t71 192q0 58 -18 106.5t-52 84t-85 54.5t-113 19
t-112.5 -19t-85 -54.5t-52.5 -84t-18 -106.5zM788 350q0 -81 -27 -148.5t-77.5 -115t-120.5 -73t-153 -25.5q-62 0 -127.5 17t-121 59t-84.5 96.5t-38 102.5t-9 87q0 81 27 148.5t77.5 115t121 73t153.5 25.5t153.5 -25.5t120.5 -73t77.5 -115t27.5 -148.5z" />
    <glyph glyph-name="ordfeminine" unicode="&#xaa;" horiz-adv-x="340" 
d="M67 582l-21 85q46 16 100 16q77 0 115.5 -31t38.5 -95v-174q-66 -32 -144 -32q-57 0 -90.5 26.5t-33.5 73.5q0 22 11 46.5t39.5 39.5t65.5 15q35 0 52 -4v1q0 24 -12.5 34.5t-45.5 10.5q-36 0 -75 -12zM170 429q15 0 30 3v51q-15 3 -29 3q-37 0 -37 -29q0 -28 36 -28z
" />
    <glyph glyph-name="guillemotleft" unicode="&#xab;" horiz-adv-x="702" 
d="M175 66q-44 49 -86 108.5t-69 116.5q27 57 69 116.5t86 108.5h205q-90 -97 -167 -225q77 -128 167 -225h-205zM467 66q-44 49 -86 108.5t-69 116.5q27 57 69 116.5t86 108.5h205q-90 -97 -167 -225q77 -128 167 -225h-205z" />
    <glyph glyph-name="logicalnot" unicode="&#xac;" horiz-adv-x="559" 
d="M40 308v146h479v-318h-155v172h-324z" />
    <glyph glyph-name="uni00AD" unicode="&#xad;" horiz-adv-x="367" 
 />
    <glyph glyph-name="registered" unicode="&#xae;" horiz-adv-x="546" 
d="M454 473q0 89 -47 136.5t-134 47.5t-133.5 -47.5t-46.5 -136.5t46.5 -136.5t133.5 -47.5t134 47.5t47 136.5zM30 473q0 54 17 98.5t49 76t77.5 48t99.5 16.5t99.5 -16.5t77.5 -48t49 -76t17 -98.5q0 -109 -66.5 -173.5t-176.5 -64.5q-55 0 -100 16.5t-77 47.5t-49 75.5
t-17 98.5zM183 355v246h89q46 0 71.5 -22.5t25.5 -60.5q0 -53 -46 -73q19 -35 63 -90h-70q-32 39 -52 82h-21v-82h-60zM272 550h-29v-64h29q20 0 30.5 6.5t10.5 25.5q0 32 -41 32z" />
    <glyph glyph-name="macron" unicode="&#xaf;" 
d="M80 583v129h336v-129h-336z" />
    <glyph glyph-name="degree" unicode="&#xb0;" horiz-adv-x="356" 
d="M30 570q0 64 41 103t107 39t107 -39t41 -103q0 -65 -41 -104.5t-107 -39.5t-107 39.5t-41 104.5zM178 619q-20 0 -32 -13t-12 -36q0 -24 12 -36.5t32 -12.5t31.5 12.5t11.5 36.5q0 23 -11.5 36t-31.5 13z" />
    <glyph glyph-name="plusminus" unicode="&#xb1;" horiz-adv-x="559" 
d="M40 10v146h479v-146h-479zM40 318v146h163v118h155v-118h161v-146h-161v-122h-155v122h-163z" />
    <glyph glyph-name="uni00B2" unicode="&#xb2;" horiz-adv-x="365" 
d="M52 358v92l46 35q55 41 70 57t15 34q0 28 -37 28q-27 0 -57 -22l-47 91q22 17 60 28t84 11q56 0 95.5 -28.5t39.5 -78.5q0 -30 -18 -64.5t-80 -83.5h109v-99h-280z" />
    <glyph glyph-name="uni00B3" unicode="&#xb3;" horiz-adv-x="365" 
d="M49 367l23 95q39 -12 74 -12q47 0 47 23q0 10 -8 17t-34 7h-35v70h18q22 0 33 4.5t11 20.5q0 21 -39 21q-28 0 -60 -14l-34 89q20 9 52 16.5t65 7.5q73 0 111 -23t38 -68q0 -55 -50 -82q65 -23 65 -80q0 -43 -27 -68t-65 -33t-70 -8q-72 0 -115 17z" />
    <glyph glyph-name="acute" unicode="&#xb4;" 
d="M203 740h183l-123 -174h-148z" />
    <glyph glyph-name="uni00B5" unicode="&#xb5;" horiz-adv-x="583" 
d="M219 -184h-164v699h170v-303q0 -40 14 -59.5t49 -19.5q34 0 70 17v365h170v-515h-165v47q-52 -59 -121 -59l-24 1l1 -113v-60z" />
    <glyph glyph-name="paragraph" unicode="&#xb6;" horiz-adv-x="608" 
d="M253 700h295v-700h-115v604h-65v-604h-115v291q-70 0 -120 26.5t-76.5 71t-26.5 105.5q0 49 17.5 88.5t48 65.5t71.5 39t86 13z" />
    <glyph glyph-name="periodcentered" unicode="&#xb7;" 
d="M35 394q0 42 25.5 66.5t70.5 24.5t70 -24.5t25 -66.5t-25 -67t-70 -25t-70.5 24.5t-25.5 67.5z" />
    <glyph glyph-name="cedilla" unicode="&#xb8;" 
d="M137 -235l19 89q22 -6 46 -6q19 0 31.5 6.5t12.5 19.5q0 11 -11.5 19.5t-37.5 8.5l-17 46l18 52h97l-17 -39q45 -6 71.5 -29.5t26.5 -61.5q0 -30 -16.5 -57.5t-57 -42.5t-86.5 -15t-79 10z" />
    <glyph glyph-name="uni00B9" unicode="&#xb9;" horiz-adv-x="365" 
d="M85 542l-51 98q60 39 125 64h124v-346h-133v222q-44 -24 -65 -38z" />
    <glyph glyph-name="ordmasculine" unicode="&#xba;" horiz-adv-x="372" 
d="M347 519q0 -74 -44 -121t-116 -47q-73 0 -117.5 47t-44.5 121q0 72 45 118t117 46q73 0 116.5 -46t43.5 -118zM140 519q0 -36 12 -56t35 -20q45 0 45 76q0 35 -11 55t-34 20t-35 -20.5t-12 -54.5z" />
    <glyph glyph-name="guillemotright" unicode="&#xbb;" horiz-adv-x="702" 
d="M527 66h-205q90 97 167 225q-77 128 -167 225h205q44 -49 86 -108.5t69 -116.5q-27 -57 -69 -116.5t-86 -108.5zM235 66h-205q90 97 167 225q-77 128 -167 225h205q44 -49 86 -108.5t69 -116.5q-27 -57 -69 -116.5t-86 -108.5z" />
    <glyph glyph-name="onequarter" unicode="&#xbc;" horiz-adv-x="842" 
d="M85 542l-51 98q60 39 125 64h124v-346h-133v222q-44 -24 -65 -38zM572 700h135l-397 -700h-135zM498 53v76q62 114 176 217h119v-203h39v-90h-39v-53h-116v53h-179zM677 143q2 69 5 100q-43 -50 -76 -100h71z" />
    <glyph glyph-name="onehalf" unicode="&#xbd;" horiz-adv-x="842" 
d="M85 542l-51 98q60 39 125 64h124v-346h-133v222q-44 -24 -65 -38zM543 700h135l-397 -700h-135zM529 0v92l46 35q55 41 70 57t15 34q0 28 -37 28q-27 0 -57 -22l-47 91q22 17 60 28t84 11q56 0 95.5 -28.5t39.5 -78.5q0 -30 -18 -64.5t-80 -83.5h109v-99h-280z" />
    <glyph glyph-name="threequarters" unicode="&#xbe;" horiz-adv-x="842" 
d="M49 367l23 95q39 -12 74 -12q47 0 47 23q0 10 -8 17t-34 7h-35v70h18q22 0 33 4.5t11 20.5q0 21 -39 21q-28 0 -60 -14l-34 89q20 9 52 16.5t65 7.5q73 0 111 -23t38 -68q0 -55 -50 -82q65 -23 65 -80q0 -43 -27 -68t-65 -33t-70 -8q-72 0 -115 17zM574 700h135
l-397 -700h-135zM498 53v76q62 114 176 217h119v-203h39v-90h-39v-53h-116v53h-179zM677 143q2 69 5 100q-43 -50 -76 -100h71z" />
    <glyph glyph-name="questiondown" unicode="&#xbf;" horiz-adv-x="462" 
d="M271 344q-45 0 -70 24.5t-25 66.5t25 67t70 25t70.5 -24.5t25.5 -67.5q0 -42 -25.5 -66.5t-70.5 -24.5zM447 -162q-37 -16 -82.5 -25.5t-85.5 -9.5q-123 0 -188.5 53.5t-65.5 147.5q0 84 64 143q3 3 9 8.5t51.5 43.5t45.5 83v6h157v-35q0 -31 -12.5 -61.5t-48.5 -59.5
q-6 -5 -33.5 -26.5t-38.5 -39.5t-11 -39q0 -35 24 -51.5t66 -16.5q46 0 115 24z" />
    <glyph glyph-name="Agrave" unicode="&#xc0;" horiz-adv-x="677" 
d="M338 511q-29 -63 -75 -232h150q-46 169 -75 232zM484 0l-32 129h-228l-32 -129h-182q47 182 112 379t124 321h184q59 -125 125 -322.5t112 -377.5h-183zM270 746l-123 174h183l88 -174h-148z" />
    <glyph glyph-name="Aacute" unicode="&#xc1;" horiz-adv-x="677" 
d="M338 511q-29 -63 -75 -232h150q-46 169 -75 232zM484 0l-32 129h-228l-32 -129h-182q47 182 112 379t124 321h184q59 -125 125 -322.5t112 -377.5h-183zM350 920h183l-123 -174h-148z" />
    <glyph glyph-name="Acircumflex" unicode="&#xc2;" horiz-adv-x="677" 
d="M338 511q-29 -63 -75 -232h150q-46 169 -75 232zM484 0l-32 129h-228l-32 -129h-182q47 182 112 379t124 321h184q59 -125 125 -322.5t112 -377.5h-183zM386 746l-48 73l-48 -73h-163l127 174h168l127 -174h-163z" />
    <glyph glyph-name="Atilde" unicode="&#xc3;" horiz-adv-x="677" 
d="M338 511q-29 -63 -75 -232h150q-46 169 -75 232zM484 0l-32 129h-228l-32 -129h-182q47 182 112 379t124 321h184q59 -125 125 -322.5t112 -377.5h-183zM388 879q27 0 27 38h110q0 -45 -13.5 -83t-36.5 -58.5t-56 -20.5q-29 0 -68.5 15t-57.5 15q-31 0 -33 -34h-110
q1 33 10.5 71t36 62t66.5 24q18 0 34.5 -4t45.5 -14.5t45 -10.5z" />
    <glyph glyph-name="Adieresis" unicode="&#xc4;" horiz-adv-x="677" 
d="M338 511q-29 -63 -75 -232h150q-46 169 -75 232zM484 0l-32 129h-228l-32 -129h-182q47 182 112 379t124 321h184q59 -125 125 -322.5t112 -377.5h-183zM317 825q0 -38 -25 -61t-65 -23q-42 0 -65.5 23t-23.5 61t24 61t65 23q40 0 65 -23.5t25 -60.5zM535 825
q0 -38 -23.5 -61t-65.5 -23q-40 0 -64.5 23t-24.5 61q0 37 24.5 60.5t64.5 23.5q41 0 65 -23t24 -61z" />
    <glyph glyph-name="Aring" unicode="&#xc5;" horiz-adv-x="677" 
d="M484 0l-32 129h-228l-32 -129h-182q47 182 112 379t124 321q-47 39 -47 105q0 60 39 98t100 38t100 -38t39 -98q0 -66 -47 -105q59 -125 125 -322.5t112 -377.5h-183zM338 846q-18 0 -28 -11.5t-10 -29.5t10 -29.5t28 -11.5t28 11.5t10 29.5t-10 29.5t-28 11.5zM338 511
q-29 -63 -75 -232h150q-46 169 -75 232z" />
    <glyph glyph-name="AE" unicode="&#xc6;" horiz-adv-x="932" 
d="M892 150v-150h-440v129h-211q-28 -64 -54 -129h-182q65 173 169 364.5t205 335.5h513v-150h-263v-122h222v-150h-222v-128h263zM452 279v256q-85 -151 -139 -256h139z" />
    <glyph glyph-name="Ccedilla" unicode="&#xc7;" horiz-adv-x="580" 
d="M227 -235l19 89q22 -6 46 -6q19 0 31.5 6.5t12.5 19.5q0 11 -11.5 19.5t-37.5 8.5l-17 46l17 48q-60 12 -107.5 42.5t-79.5 76t-48.5 104.5t-16.5 128q0 81 22.5 149t66.5 116t109 74t147 26q40 0 87.5 -11t80.5 -25l-39 -150q-37 14 -67.5 22t-59.5 8
q-85 0 -124.5 -52.5t-39.5 -155.5t38.5 -153.5t121.5 -50.5q70 0 143 40l34 -152q-34 -19 -81 -31t-94 -13l-12 -27q45 -6 71.5 -29.5t26.5 -61.5q0 -30 -16.5 -57.5t-57 -42.5t-86.5 -15t-79 10z" />
    <glyph glyph-name="Egrave" unicode="&#xc8;" horiz-adv-x="550" 
d="M510 150v-150h-450v700h450v-150h-273v-122h232v-150h-232v-128h273zM222 746l-123 174h183l88 -174h-148z" />
    <glyph glyph-name="Eacute" unicode="&#xc9;" horiz-adv-x="550" 
d="M510 150v-150h-450v700h450v-150h-273v-122h232v-150h-232v-128h273zM302 920h183l-123 -174h-148z" />
    <glyph glyph-name="Ecircumflex" unicode="&#xca;" horiz-adv-x="550" 
d="M510 150v-150h-450v700h450v-150h-273v-122h232v-150h-232v-128h273zM338 746l-48 73l-48 -73h-163l127 174h168l127 -174h-163z" />
    <glyph glyph-name="Edieresis" unicode="&#xcb;" horiz-adv-x="550" 
d="M510 150v-150h-450v700h450v-150h-273v-122h232v-150h-232v-128h273zM269 825q0 -38 -25 -61t-65 -23q-42 0 -65.5 23t-23.5 61t24 61t65 23q40 0 65 -23.5t25 -60.5zM487 825q0 -38 -23.5 -61t-65.5 -23q-40 0 -64.5 23t-24.5 61q0 37 24.5 60.5t64.5 23.5q41 0 65 -23
t24 -61z" />
    <glyph glyph-name="Igrave" unicode="&#xcc;" horiz-adv-x="297" 
d="M60 0v700h177v-700h-177zM81 746l-123 174h183l88 -174h-148z" />
    <glyph glyph-name="Iacute" unicode="&#xcd;" horiz-adv-x="297" 
d="M60 0v700h177v-700h-177zM161 920h183l-123 -174h-148z" />
    <glyph glyph-name="Icircumflex" unicode="&#xce;" horiz-adv-x="297" 
d="M60 0v700h177v-700h-177zM197 746l-48 73l-48 -73h-163l127 174h168l127 -174h-163z" />
    <glyph glyph-name="Idieresis" unicode="&#xcf;" horiz-adv-x="297" 
d="M60 0v700h177v-700h-177zM128 825q0 -38 -25 -61t-65 -23q-42 0 -65.5 23t-23.5 61t24 61t65 23q40 0 65 -23.5t25 -60.5zM346 825q0 -38 -23.5 -61t-65.5 -23q-40 0 -64.5 23t-24.5 61q0 37 24.5 60.5t64.5 23.5q41 0 65 -23t24 -61z" />
    <glyph glyph-name="Eth" unicode="&#xd0;" horiz-adv-x="703" 
d="M490 353q0 101 -43 149t-130 48h-70v-118h110v-150h-110v-132h70q87 0 130 49.5t43 153.5zM70 0v282h-70v150h70v268h252q76 0 140.5 -23.5t112 -68.5t73 -110.5t25.5 -144.5q0 -81 -25.5 -147.5t-73 -112t-112 -69.5t-140.5 -24h-252z" />
    <glyph glyph-name="Ntilde" unicode="&#xd1;" horiz-adv-x="713" 
d="M222 0h-162v700h171q108 -223 264 -453q-4 37 -4 84v369h162v-700h-172q-84 115 -142.5 202t-120.5 200q4 -41 4 -123v-279zM415 879q27 0 27 38h110q0 -45 -13.5 -83t-36.5 -58.5t-56 -20.5q-29 0 -68.5 15t-57.5 15q-31 0 -33 -34h-110q1 33 10.5 71t36 62t66.5 24
q18 0 34.5 -4t45.5 -14.5t45 -10.5z" />
    <glyph glyph-name="Ograve" unicode="&#xd2;" horiz-adv-x="723" 
d="M688 350q0 -80 -22.5 -147.5t-65.5 -115t-104 -73.5t-134 -26q-74 0 -135 26t-104 73.5t-65.5 115t-22.5 147.5t22.5 147.5t65.5 115t104 73.5t135 26q73 0 134 -26t104 -73.5t65.5 -115t22.5 -147.5zM218 350q0 -99 37.5 -152.5t106.5 -53.5t106 53.5t37 152.5
t-37 152.5t-106 53.5t-106.5 -53.5t-37.5 -152.5zM294 746l-123 174h183l88 -174h-148z" />
    <glyph glyph-name="Oacute" unicode="&#xd3;" horiz-adv-x="723" 
d="M688 350q0 -80 -22.5 -147.5t-65.5 -115t-104 -73.5t-134 -26q-74 0 -135 26t-104 73.5t-65.5 115t-22.5 147.5t22.5 147.5t65.5 115t104 73.5t135 26q73 0 134 -26t104 -73.5t65.5 -115t22.5 -147.5zM218 350q0 -99 37.5 -152.5t106.5 -53.5t106 53.5t37 152.5
t-37 152.5t-106 53.5t-106.5 -53.5t-37.5 -152.5zM374 920h183l-123 -174h-148z" />
    <glyph glyph-name="Ocircumflex" unicode="&#xd4;" horiz-adv-x="723" 
d="M688 350q0 -80 -22.5 -147.5t-65.5 -115t-104 -73.5t-134 -26q-74 0 -135 26t-104 73.5t-65.5 115t-22.5 147.5t22.5 147.5t65.5 115t104 73.5t135 26q73 0 134 -26t104 -73.5t65.5 -115t22.5 -147.5zM218 350q0 -99 37.5 -152.5t106.5 -53.5t106 53.5t37 152.5
t-37 152.5t-106 53.5t-106.5 -53.5t-37.5 -152.5zM410 746l-48 73l-48 -73h-163l127 174h168l127 -174h-163z" />
    <glyph glyph-name="Otilde" unicode="&#xd5;" horiz-adv-x="723" 
d="M688 350q0 -80 -22.5 -147.5t-65.5 -115t-104 -73.5t-134 -26q-74 0 -135 26t-104 73.5t-65.5 115t-22.5 147.5t22.5 147.5t65.5 115t104 73.5t135 26q73 0 134 -26t104 -73.5t65.5 -115t22.5 -147.5zM218 350q0 -99 37.5 -152.5t106.5 -53.5t106 53.5t37 152.5
t-37 152.5t-106 53.5t-106.5 -53.5t-37.5 -152.5zM412 879q27 0 27 38h110q0 -45 -13.5 -83t-36.5 -58.5t-56 -20.5q-29 0 -68.5 15t-57.5 15q-31 0 -33 -34h-110q1 33 10.5 71t36 62t66.5 24q18 0 34.5 -4t45.5 -14.5t45 -10.5z" />
    <glyph glyph-name="Odieresis" unicode="&#xd6;" horiz-adv-x="723" 
d="M688 350q0 -80 -22.5 -147.5t-65.5 -115t-104 -73.5t-134 -26q-74 0 -135 26t-104 73.5t-65.5 115t-22.5 147.5t22.5 147.5t65.5 115t104 73.5t135 26q73 0 134 -26t104 -73.5t65.5 -115t22.5 -147.5zM218 350q0 -99 37.5 -152.5t106.5 -53.5t106 53.5t37 152.5
t-37 152.5t-106 53.5t-106.5 -53.5t-37.5 -152.5zM341 825q0 -38 -25 -61t-65 -23q-42 0 -65.5 23t-23.5 61t24 61t65 23q40 0 65 -23.5t25 -60.5zM559 825q0 -38 -23.5 -61t-65.5 -23q-40 0 -64.5 23t-24.5 61q0 37 24.5 60.5t64.5 23.5q41 0 65 -23t24 -61z" />
    <glyph glyph-name="multiply" unicode="&#xd7;" horiz-adv-x="559" 
d="M411 106l-131 132l-132 -132l-104 103l132 132l-132 132l104 103l132 -131l131 131l104 -103l-132 -132l132 -132z" />
    <glyph glyph-name="Oslash" unicode="&#xd8;" horiz-adv-x="723" 
d="M556 700h137l-78 -105q35 -46 54 -109t19 -136q0 -80 -22.5 -147.5t-65.5 -115t-104 -73.5t-134 -26q-97 0 -171 43l-23 -31h-137l78 104q-36 46 -55 109.5t-19 136.5q0 80 22.5 147.5t65.5 115t104 73.5t135 26q98 0 170 -43zM218 350q0 -50 9 -88l206 275
q-30 19 -71 19q-69 0 -106.5 -53.5t-37.5 -152.5zM362 144q69 0 106 53.5t37 152.5q0 50 -9 87l-206 -274q29 -19 72 -19z" />
    <glyph glyph-name="Ugrave" unicode="&#xd9;" horiz-adv-x="686" 
d="M55 282v418h177v-405q0 -73 28 -112t83 -39t83 39t28 112v405h177v-418q0 -68 -19 -123t-55.5 -93t-91 -58t-122.5 -20t-122.5 20t-91 58t-55.5 93t-19 123zM276 746l-123 174h183l88 -174h-148z" />
    <glyph glyph-name="Uacute" unicode="&#xda;" horiz-adv-x="686" 
d="M55 282v418h177v-405q0 -73 28 -112t83 -39t83 39t28 112v405h177v-418q0 -68 -19 -123t-55.5 -93t-91 -58t-122.5 -20t-122.5 20t-91 58t-55.5 93t-19 123zM356 920h183l-123 -174h-148z" />
    <glyph glyph-name="Ucircumflex" unicode="&#xdb;" horiz-adv-x="686" 
d="M55 282v418h177v-405q0 -73 28 -112t83 -39t83 39t28 112v405h177v-418q0 -68 -19 -123t-55.5 -93t-91 -58t-122.5 -20t-122.5 20t-91 58t-55.5 93t-19 123zM392 746l-48 73l-48 -73h-163l127 174h168l127 -174h-163z" />
    <glyph glyph-name="Udieresis" unicode="&#xdc;" horiz-adv-x="686" 
d="M55 282v418h177v-405q0 -73 28 -112t83 -39t83 39t28 112v405h177v-418q0 -68 -19 -123t-55.5 -93t-91 -58t-122.5 -20t-122.5 20t-91 58t-55.5 93t-19 123zM323 825q0 -38 -25 -61t-65 -23q-42 0 -65.5 23t-23.5 61t24 61t65 23q40 0 65 -23.5t25 -60.5zM541 825
q0 -38 -23.5 -61t-65.5 -23q-40 0 -64.5 23t-24.5 61q0 37 24.5 60.5t64.5 23.5q41 0 65 -23t24 -61z" />
    <glyph glyph-name="Yacute" unicode="&#xdd;" horiz-adv-x="634" 
d="M228 0v273q-81 122 -138.5 226.5t-89.5 200.5h181q25 -71 56 -137t80 -145q37 60 71 126.5t65 155.5h181q-57 -171 -229 -428v-272h-177zM333 920h183l-123 -174h-148z" />
    <glyph glyph-name="Thorn" unicode="&#xde;" horiz-adv-x="613" 
d="M60 0v700h177v-100h57q131 0 207.5 -66.5t76.5 -181.5t-76.5 -181t-207.5 -66h-57v-105h-177zM395 352q0 52 -26.5 75t-78.5 23h-53v-195h53q52 0 78.5 23t26.5 74z" />
    <glyph glyph-name="germandbls" unicode="&#xdf;" horiz-adv-x="615" 
d="M50 495q0 50 15.5 93.5t46.5 76t76.5 50.5t102.5 18q53 0 96.5 -13t74 -36t46 -54.5t15.5 -66.5q0 -18 -3 -37.5t-10.5 -37.5t-27.5 -47t-20 -49q0 -5 2 -12.5t10.5 -17.5t37.5 -33t41.5 -36t21.5 -26.5t17 -35t8 -49.5q0 -87 -65.5 -140.5t-183.5 -53.5q-37 0 -85 8
l17 137q35 -6 59 -6q43 0 63.5 16t20.5 43q0 16 -9.5 31.5t-39 39.5t-42 36t-20.5 23.5t-14.5 28t-6.5 41.5q0 27 8 47t28.5 53.5t20.5 53.5q0 25 -16 39t-42 14q-40 0 -56.5 -25.5t-16.5 -72.5v-495h-170v495z" />
    <glyph glyph-name="agrave" unicode="&#xe0;" horiz-adv-x="517" 
d="M256 108q29 0 46 7v85q-27 6 -50 6q-25 0 -42 -12.5t-17 -36.5t16.5 -36.5t46.5 -12.5zM467 30q-35 -16 -96.5 -29t-132.5 -13q-65 0 -111 18.5t-74 54.5t-28 89q0 71 55 115t148 44q42 0 74 -5v8q0 75 -87 75q-32 0 -67.5 -6t-64.5 -17l-29 132q36 14 88 22.5t93 8.5
q114 0 173 -59t59 -167v-271zM180 566l-123 174h183l88 -174h-148z" />
    <glyph glyph-name="aacute" unicode="&#xe1;" horiz-adv-x="517" 
d="M256 108q29 0 46 7v85q-27 6 -50 6q-25 0 -42 -12.5t-17 -36.5t16.5 -36.5t46.5 -12.5zM467 30q-35 -16 -96.5 -29t-132.5 -13q-65 0 -111 18.5t-74 54.5t-28 89q0 71 55 115t148 44q42 0 74 -5v8q0 75 -87 75q-32 0 -67.5 -6t-64.5 -17l-29 132q36 14 88 22.5t93 8.5
q114 0 173 -59t59 -167v-271zM260 740h183l-123 -174h-148z" />
    <glyph glyph-name="acircumflex" unicode="&#xe2;" horiz-adv-x="517" 
d="M256 108q29 0 46 7v85q-27 6 -50 6q-25 0 -42 -12.5t-17 -36.5t16.5 -36.5t46.5 -12.5zM467 30q-35 -16 -96.5 -29t-132.5 -13q-65 0 -111 18.5t-74 54.5t-28 89q0 71 55 115t148 44q42 0 74 -5v8q0 75 -87 75q-32 0 -67.5 -6t-64.5 -17l-29 132q36 14 88 22.5t93 8.5
q114 0 173 -59t59 -167v-271zM296 566l-48 73l-48 -73h-163l127 174h168l127 -174h-163z" />
    <glyph glyph-name="atilde" unicode="&#xe3;" horiz-adv-x="517" 
d="M256 108q29 0 46 7v85q-27 6 -50 6q-25 0 -42 -12.5t-17 -36.5t16.5 -36.5t46.5 -12.5zM467 30q-35 -16 -96.5 -29t-132.5 -13q-65 0 -111 18.5t-74 54.5t-28 89q0 71 55 115t148 44q42 0 74 -5v8q0 75 -87 75q-32 0 -67.5 -6t-64.5 -17l-29 132q36 14 88 22.5t93 8.5
q114 0 173 -59t59 -167v-271zM298 699q27 0 27 38h110q0 -45 -13.5 -83t-36.5 -58.5t-56 -20.5q-29 0 -68.5 15t-57.5 15q-31 0 -33 -34h-110q1 33 10.5 71t36 62t66.5 24q18 0 34.5 -4t45.5 -14.5t45 -10.5z" />
    <glyph glyph-name="adieresis" unicode="&#xe4;" horiz-adv-x="517" 
d="M256 108q29 0 46 7v85q-27 6 -50 6q-25 0 -42 -12.5t-17 -36.5t16.5 -36.5t46.5 -12.5zM467 30q-35 -16 -96.5 -29t-132.5 -13q-65 0 -111 18.5t-74 54.5t-28 89q0 71 55 115t148 44q42 0 74 -5v8q0 75 -87 75q-32 0 -67.5 -6t-64.5 -17l-29 132q36 14 88 22.5t93 8.5
q114 0 173 -59t59 -167v-271zM227 645q0 -38 -25 -61t-65 -23q-42 0 -65.5 23t-23.5 61t24 61t65 23q40 0 65 -23.5t25 -60.5zM445 645q0 -38 -23.5 -61t-65.5 -23q-40 0 -64.5 23t-24.5 61q0 37 24.5 60.5t64.5 23.5q41 0 65 -23t24 -61z" />
    <glyph glyph-name="aring" unicode="&#xe5;" horiz-adv-x="517" 
d="M256 108q29 0 46 7v85q-27 6 -50 6q-25 0 -42 -12.5t-17 -36.5t16.5 -36.5t46.5 -12.5zM467 30q-35 -16 -96.5 -29t-132.5 -13q-65 0 -111 18.5t-74 54.5t-28 89q0 71 55 115t148 44q42 0 74 -5v8q0 75 -87 75q-32 0 -67.5 -6t-64.5 -17l-29 132q36 14 88 22.5t93 8.5
q114 0 173 -59t59 -167v-271zM109 699q0 60 39 98t100 38t100 -38t39 -98t-39 -98t-100 -38t-100 38t-39 98zM286 699q0 18 -10 29.5t-28 11.5t-28 -11.5t-10 -29.5t10 -29.5t28 -11.5t28 11.5t10 29.5z" />
    <glyph glyph-name="ae" unicode="&#xe6;" horiz-adv-x="802" 
d="M549 392q-31 0 -52 -21t-28 -59h141v7q0 35 -17 54t-44 19zM256 108q35 0 74 17q-17 33 -25 76l-53 5q-25 0 -42 -12.5t-17 -36.5t16.5 -36.5t46.5 -12.5zM747 22q-32 -15 -81 -24.5t-97 -9.5q-86 0 -158 46q-39 -21 -76 -33.5t-86 -12.5q-107 0 -165.5 43t-58.5 119
q0 71 54 115t147 44q19 0 76 -5v8q0 75 -87 75q-31 0 -68.5 -6t-66.5 -17l-29 132q40 13 92.5 22t91.5 9q98 0 160 -60q66 60 154 60q47 0 88.5 -16.5t71.5 -47.5t46.5 -74t16.5 -94q0 -43 -4 -83h-295q20 -82 115 -82q64 0 133 27z" />
    <glyph glyph-name="ccedilla" unicode="&#xe7;" horiz-adv-x="469" 
d="M290 527q37 0 80.5 -8.5t73.5 -22.5l-31 -133q-57 24 -108 24q-47 0 -74.5 -33.5t-27.5 -91.5q0 -68 29 -101t79 -33q22 0 51.5 6.5t54.5 17.5l26 -136q-21 -10 -55.5 -18t-69.5 -9l-12 -28q45 -6 71.5 -29.5t26.5 -61.5q0 -30 -16.5 -57.5t-57 -42.5t-86.5 -15t-79 10
l19 89q22 -6 46 -6q19 0 31.5 6.5t12.5 19.5q0 11 -11.5 19.5t-37.5 8.5l-17 46l16 47q-92 20 -143 89.5t-51 172.5q0 60 18 110t51.5 86t82.5 55t108 19z" />
    <glyph glyph-name="egrave" unicode="&#xe8;" horiz-adv-x="539" 
d="M458 157l26 -135q-32 -15 -81 -24.5t-97 -9.5q-60 0 -111 19t-88 55t-57 86.5t-20 109.5t19 109t53.5 86t81.5 55t102 19q47 0 88.5 -16.5t71.5 -47.5t46.5 -74t16.5 -94q0 -43 -4 -83h-295q20 -82 115 -82q64 0 133 27zM286 392q-31 0 -52 -21t-28 -59h141v8
q0 34 -17 53t-44 19zM214 566l-123 174h183l88 -174h-148z" />
    <glyph glyph-name="eacute" unicode="&#xe9;" horiz-adv-x="539" 
d="M458 157l26 -135q-32 -15 -81 -24.5t-97 -9.5q-60 0 -111 19t-88 55t-57 86.5t-20 109.5t19 109t53.5 86t81.5 55t102 19q47 0 88.5 -16.5t71.5 -47.5t46.5 -74t16.5 -94q0 -43 -4 -83h-295q20 -82 115 -82q64 0 133 27zM286 392q-31 0 -52 -21t-28 -59h141v8
q0 34 -17 53t-44 19zM294 740h183l-123 -174h-148z" />
    <glyph glyph-name="ecircumflex" unicode="&#xea;" horiz-adv-x="539" 
d="M458 157l26 -135q-32 -15 -81 -24.5t-97 -9.5q-60 0 -111 19t-88 55t-57 86.5t-20 109.5t19 109t53.5 86t81.5 55t102 19q47 0 88.5 -16.5t71.5 -47.5t46.5 -74t16.5 -94q0 -43 -4 -83h-295q20 -82 115 -82q64 0 133 27zM286 392q-31 0 -52 -21t-28 -59h141v8
q0 34 -17 53t-44 19zM330 566l-48 73l-48 -73h-163l127 174h168l127 -174h-163z" />
    <glyph glyph-name="edieresis" unicode="&#xeb;" horiz-adv-x="539" 
d="M458 157l26 -135q-32 -15 -81 -24.5t-97 -9.5q-60 0 -111 19t-88 55t-57 86.5t-20 109.5t19 109t53.5 86t81.5 55t102 19q47 0 88.5 -16.5t71.5 -47.5t46.5 -74t16.5 -94q0 -43 -4 -83h-295q20 -82 115 -82q64 0 133 27zM286 392q-31 0 -52 -21t-28 -59h141v8
q0 34 -17 53t-44 19zM261 645q0 -38 -25 -61t-65 -23q-42 0 -65.5 23t-23.5 61t24 61t65 23q40 0 65 -23.5t25 -60.5zM479 645q0 -38 -23.5 -61t-65.5 -23q-40 0 -64.5 23t-24.5 61q0 37 24.5 60.5t64.5 23.5q41 0 65 -23t24 -61z" />
    <glyph glyph-name="igrave" unicode="&#xec;" horiz-adv-x="280" 
d="M225 515v-515h-170v515h170zM75 566l-123 174h183l88 -174h-148z" />
    <glyph glyph-name="iacute" unicode="&#xed;" horiz-adv-x="280" 
d="M225 515v-515h-170v515h170zM155 740h183l-123 -174h-148z" />
    <glyph glyph-name="icircumflex" unicode="&#xee;" horiz-adv-x="280" 
d="M225 515v-515h-170v515h170zM191 566l-48 73l-48 -73h-163l127 174h168l127 -174h-163z" />
    <glyph glyph-name="idieresis" unicode="&#xef;" horiz-adv-x="280" 
d="M225 515v-515h-170v515h170zM122 645q0 -38 -25 -61t-65 -23q-42 0 -65.5 23t-23.5 61t24 61t65 23q40 0 65 -23.5t25 -60.5zM340 645q0 -38 -23.5 -61t-65.5 -23q-40 0 -64.5 23t-24.5 61q0 37 24.5 60.5t64.5 23.5q41 0 65 -23t24 -61z" />
    <glyph glyph-name="eth" unicode="&#xf0;" horiz-adv-x="556" 
d="M98 597l39 127q41 -6 82 -18.5t73 -28.5l66 63l54 -57l-50 -48q80 -59 122 -146.5t42 -189.5q0 -69 -16.5 -126.5t-49 -98.5t-82 -63.5t-113.5 -22.5q-52 0 -96.5 17t-76.5 48.5t-49.5 75t-17.5 93.5q0 46 14.5 86.5t42 71t68.5 47.5t92 17q57 0 103 -28q-5 13 -20 40
t-34.5 47t-34.5 31l-70 -67l-54 57l52 49q-40 17 -86 24zM264 128q53 0 77.5 40t24.5 128v1q-40 17 -87 17q-21 0 -42.5 -9t-34 -31.5t-12.5 -51.5q0 -28 11.5 -51.5t29 -33t33.5 -9.5z" />
    <glyph glyph-name="ntilde" unicode="&#xf1;" horiz-adv-x="582" 
d="M225 0h-170v486q47 18 112 29.5t121 11.5q115 0 179.5 -55.5t64.5 -160.5v-311h-170v299q0 88 -76 88q-33 0 -61 -10v-377zM343 699q27 0 27 38h110q0 -45 -13.5 -83t-36.5 -58.5t-56 -20.5q-29 0 -68.5 15t-57.5 15q-31 0 -33 -34h-110q1 33 10.5 71t36 62t66.5 24
q18 0 34.5 -4t45.5 -14.5t45 -10.5z" />
    <glyph glyph-name="ograve" unicode="&#xf2;" horiz-adv-x="579" 
d="M549 258q0 -122 -70.5 -196t-188.5 -74t-189 74t-71 196q0 121 71 195t189 74q58 0 106.5 -19t82.5 -55t52 -86t18 -109zM203 258q0 -61 23 -95.5t64 -34.5q29 0 50 19.5t28.5 50.5t7.5 60q0 28 -7.5 59t-28.5 50.5t-50 19.5q-19 0 -39.5 -11t-34 -42.5t-13.5 -75.5z
M222 566l-123 174h183l88 -174h-148z" />
    <glyph glyph-name="oacute" unicode="&#xf3;" horiz-adv-x="579" 
d="M549 258q0 -122 -70.5 -196t-188.5 -74t-189 74t-71 196q0 121 71 195t189 74q58 0 106.5 -19t82.5 -55t52 -86t18 -109zM203 258q0 -61 23 -95.5t64 -34.5q29 0 50 19.5t28.5 50.5t7.5 60q0 28 -7.5 59t-28.5 50.5t-50 19.5q-19 0 -39.5 -11t-34 -42.5t-13.5 -75.5z
M302 740h183l-123 -174h-148z" />
    <glyph glyph-name="ocircumflex" unicode="&#xf4;" horiz-adv-x="579" 
d="M549 258q0 -122 -70.5 -196t-188.5 -74t-189 74t-71 196q0 121 71 195t189 74q58 0 106.5 -19t82.5 -55t52 -86t18 -109zM203 258q0 -61 23 -95.5t64 -34.5q29 0 50 19.5t28.5 50.5t7.5 60q0 28 -7.5 59t-28.5 50.5t-50 19.5q-19 0 -39.5 -11t-34 -42.5t-13.5 -75.5z
M338 566l-48 73l-48 -73h-163l127 174h168l127 -174h-163z" />
    <glyph glyph-name="otilde" unicode="&#xf5;" horiz-adv-x="579" 
d="M549 258q0 -122 -70.5 -196t-188.5 -74t-189 74t-71 196q0 121 71 195t189 74q58 0 106.5 -19t82.5 -55t52 -86t18 -109zM203 258q0 -61 23 -95.5t64 -34.5q29 0 50 19.5t28.5 50.5t7.5 60q0 28 -7.5 59t-28.5 50.5t-50 19.5q-19 0 -39.5 -11t-34 -42.5t-13.5 -75.5z
M340 699q27 0 27 38h110q0 -45 -13.5 -83t-36.5 -58.5t-56 -20.5q-29 0 -68.5 15t-57.5 15q-31 0 -33 -34h-110q1 33 10.5 71t36 62t66.5 24q18 0 34.5 -4t45.5 -14.5t45 -10.5z" />
    <glyph glyph-name="odieresis" unicode="&#xf6;" horiz-adv-x="579" 
d="M549 258q0 -122 -70.5 -196t-188.5 -74t-189 74t-71 196q0 121 71 195t189 74q58 0 106.5 -19t82.5 -55t52 -86t18 -109zM203 258q0 -61 23 -95.5t64 -34.5q29 0 50 19.5t28.5 50.5t7.5 60q0 28 -7.5 59t-28.5 50.5t-50 19.5q-19 0 -39.5 -11t-34 -42.5t-13.5 -75.5z
M269 645q0 -38 -25 -61t-65 -23q-42 0 -65.5 23t-23.5 61t24 61t65 23q40 0 65 -23.5t25 -60.5zM487 645q0 -38 -23.5 -61t-65.5 -23q-40 0 -64.5 23t-24.5 61q0 37 24.5 60.5t64.5 23.5q41 0 65 -23t24 -61z" />
    <glyph glyph-name="divide" unicode="&#xf7;" horiz-adv-x="559" 
d="M192 144q0 37 23.5 60t64.5 23q40 0 63.5 -23t23.5 -60q0 -38 -23.5 -61t-63.5 -23q-41 0 -64.5 23t-23.5 61zM192 538q0 37 23.5 60t64.5 23q40 0 63.5 -23t23.5 -60q0 -38 -23.5 -61t-63.5 -23q-41 0 -64.5 23t-23.5 61zM40 268v146h479v-146h-479z" />
    <glyph glyph-name="oslash" unicode="&#xf8;" horiz-adv-x="579" 
d="M442 515h107l-59 -74q28 -34 43.5 -81.5t15.5 -101.5q0 -122 -70.5 -196t-188.5 -74q-36 0 -72.5 9t-63.5 24l-17 -21h-107l59 74q-28 34 -43.5 81.5t-15.5 102.5q0 121 71 195t189 74q37 0 73 -9t63 -24zM203 258q0 -21 3 -38l125 156q-19 11 -41 11q-19 0 -39.5 -11
t-34 -42.5t-13.5 -75.5zM290 128q29 0 50 19.5t28.5 50.5t7.5 60q0 21 -3 37l-124 -155q18 -12 41 -12z" />
    <glyph glyph-name="ugrave" unicode="&#xf9;" horiz-adv-x="581" 
d="M526 29q-37 -13 -103.5 -27t-130.5 -14q-50 0 -96 11t-78 37.5t-50 70.5t-18 112v296h170v-297q0 -90 77 -90q32 0 59 10v377h170v-486zM219 566l-123 174h183l88 -174h-148z" />
    <glyph glyph-name="uacute" unicode="&#xfa;" horiz-adv-x="581" 
d="M526 29q-37 -13 -103.5 -27t-130.5 -14q-50 0 -96 11t-78 37.5t-50 70.5t-18 112v296h170v-297q0 -90 77 -90q32 0 59 10v377h170v-486zM299 740h183l-123 -174h-148z" />
    <glyph glyph-name="ucircumflex" unicode="&#xfb;" horiz-adv-x="581" 
d="M526 29q-37 -13 -103.5 -27t-130.5 -14q-50 0 -96 11t-78 37.5t-50 70.5t-18 112v296h170v-297q0 -90 77 -90q32 0 59 10v377h170v-486zM335 566l-48 73l-48 -73h-163l127 174h168l127 -174h-163z" />
    <glyph glyph-name="udieresis" unicode="&#xfc;" horiz-adv-x="581" 
d="M526 29q-37 -13 -103.5 -27t-130.5 -14q-50 0 -96 11t-78 37.5t-50 70.5t-18 112v296h170v-297q0 -90 77 -90q32 0 59 10v377h170v-486zM266 645q0 -38 -25 -61t-65 -23q-42 0 -65.5 23t-23.5 61t24 61t65 23q40 0 65 -23.5t25 -60.5zM484 645q0 -38 -23.5 -61t-65.5 -23
q-40 0 -64.5 23t-24.5 61q0 37 24.5 60.5t64.5 23.5q41 0 65 -23t24 -61z" />
    <glyph glyph-name="yacute" unicode="&#xfd;" horiz-adv-x="521" 
d="M376 58q-125 -220 -312 -245l-25 144q40 4 87 28.5t65 53.5q-86 111 -127.5 220.5t-48.5 255.5h172q0 -103 22 -186.5t70 -162.5q31 73 44 149.5t13 199.5h170q-6 -124 -42 -244t-88 -213zM281 740h183l-123 -174h-148z" />
    <glyph glyph-name="thorn" unicode="&#xfe;" horiz-adv-x="578" 
d="M225 -188h-170v904l170 8v-200q21 3 56 3q59 0 108.5 -18t85 -52.5t54.5 -84t19 -109.5q0 -62 -19.5 -113.5t-55.5 -87.5t-87 -55t-112 -19l-49 2v-178zM225 135q21 -7 41 -7q57 0 83 34.5t26 94.5q0 64 -25.5 97t-83.5 33q-14 0 -41 -5v-247z" />
    <glyph glyph-name="ydieresis" unicode="&#xff;" horiz-adv-x="521" 
d="M376 58q-125 -220 -312 -245l-25 144q40 4 87 28.5t65 53.5q-86 111 -127.5 220.5t-48.5 255.5h172q0 -103 22 -186.5t70 -162.5q31 73 44 149.5t13 199.5h170q-6 -124 -42 -244t-88 -213zM248 645q0 -38 -25 -61t-65 -23q-42 0 -65.5 23t-23.5 61t24 61t65 23
q40 0 65 -23.5t25 -60.5zM466 645q0 -38 -23.5 -61t-65.5 -23q-40 0 -64.5 23t-24.5 61q0 37 24.5 60.5t64.5 23.5q41 0 65 -23t24 -61z" />
    <glyph glyph-name="Amacron" unicode="&#x100;" horiz-adv-x="677" 
d="M338 511q-29 -63 -75 -232h150q-46 169 -75 232zM484 0l-32 129h-228l-32 -129h-182q47 182 112 379t124 321h184q59 -125 125 -322.5t112 -377.5h-183zM170 763v129h336v-129h-336z" />
    <glyph glyph-name="amacron" unicode="&#x101;" horiz-adv-x="517" 
d="M256 108q29 0 46 7v85q-27 6 -50 6q-25 0 -42 -12.5t-17 -36.5t16.5 -36.5t46.5 -12.5zM467 30q-35 -16 -96.5 -29t-132.5 -13q-65 0 -111 18.5t-74 54.5t-28 89q0 71 55 115t148 44q42 0 74 -5v8q0 75 -87 75q-32 0 -67.5 -6t-64.5 -17l-29 132q36 14 88 22.5t93 8.5
q114 0 173 -59t59 -167v-271zM80 583v129h336v-129h-336z" />
    <glyph glyph-name="Abreve" unicode="&#x102;" horiz-adv-x="677" 
d="M338 511q-29 -63 -75 -232h150q-46 169 -75 232zM484 0l-32 129h-228l-32 -129h-182q47 182 112 379t124 321h184q59 -125 125 -322.5t112 -377.5h-183zM532 910q-9 -56 -34 -92.5t-64.5 -55t-95.5 -18.5t-95.5 18.5t-64.5 55t-34 92.5h141q4 -24 15.5 -37.5t37.5 -13.5
q20 0 33.5 10t19.5 41h141z" />
    <glyph glyph-name="abreve" unicode="&#x103;" horiz-adv-x="517" 
d="M256 108q29 0 46 7v85q-27 6 -50 6q-25 0 -42 -12.5t-17 -36.5t16.5 -36.5t46.5 -12.5zM467 30q-35 -16 -96.5 -29t-132.5 -13q-65 0 -111 18.5t-74 54.5t-28 89q0 71 55 115t148 44q42 0 74 -5v8q0 75 -87 75q-32 0 -67.5 -6t-64.5 -17l-29 132q36 14 88 22.5t93 8.5
q114 0 173 -59t59 -167v-271zM442 730q-9 -56 -34 -92.5t-64.5 -55t-95.5 -18.5t-95.5 18.5t-64.5 55t-34 92.5h141q4 -24 15.5 -37.5t37.5 -13.5q20 0 33.5 10t19.5 41h141z" />
    <glyph glyph-name="Aogonek" unicode="&#x104;" horiz-adv-x="677" 
d="M338 511q-29 -63 -75 -232h150q-46 169 -75 232zM654 -218q-42 -17 -97 -17q-63 0 -100 29t-37 80q0 33 18.5 66.5t45.5 59.5l-32 129h-228l-32 -129h-182q47 182 112 379t124 321h184q59 -125 125 -322.5t112 -377.5h-17q-41 -19 -66 -45t-25 -53q0 -31 37 -31
q22 0 41 9z" />
    <glyph glyph-name="aogonek" unicode="&#x105;" horiz-adv-x="517" 
d="M471 -218q-42 -17 -97 -17q-63 0 -100 29t-37 80q0 56 51 116l-50 -2q-65 0 -111 18.5t-74 54.5t-28 89q0 71 55 115t148 44q42 0 74 -5v8q0 75 -87 75q-32 0 -67.5 -6t-64.5 -17l-29 132q36 14 88 22.5t93 8.5q114 0 173 -59t59 -167v-272q-41 -25 -66 -59t-25 -68
q0 -31 37 -31q22 0 41 9zM193 157q0 -24 16.5 -36.5t46.5 -12.5q29 0 46 7v85q-27 6 -50 6q-25 0 -42 -12.5t-17 -36.5z" />
    <glyph glyph-name="Cacute" unicode="&#x106;" horiz-adv-x="580" 
d="M370 -12q-79 0 -142 25.5t-106 73t-65 114t-22 146.5q0 81 22.5 149t66.5 116t109 74t147 26q40 0 87.5 -11t80.5 -25l-39 -150q-37 14 -67.5 22t-59.5 8q-85 0 -124.5 -52.5t-39.5 -155.5t38.5 -153.5t121.5 -50.5q70 0 143 40l34 -152q-35 -20 -85.5 -32t-99.5 -12z
M358 920h183l-123 -174h-148z" />
    <glyph glyph-name="cacute" unicode="&#x107;" horiz-adv-x="469" 
d="M290 527q37 0 80.5 -8.5t73.5 -22.5l-31 -133q-57 24 -108 24q-47 0 -74.5 -33.5t-27.5 -91.5q0 -68 29 -101t79 -33q22 0 51.5 6.5t54.5 17.5l26 -136q-58 -28 -147 -28q-124 0 -195 73.5t-71 195.5q0 60 18 110t51.5 86t82.5 55t108 19zM293 740h183l-123 -174h-148z
" />
    <glyph glyph-name="Ccircumflex" unicode="&#x108;" horiz-adv-x="580" 
d="M370 -12q-79 0 -142 25.5t-106 73t-65 114t-22 146.5q0 81 22.5 149t66.5 116t109 74t147 26q40 0 87.5 -11t80.5 -25l-39 -150q-37 14 -67.5 22t-59.5 8q-85 0 -124.5 -52.5t-39.5 -155.5t38.5 -153.5t121.5 -50.5q70 0 143 40l34 -152q-35 -20 -85.5 -32t-99.5 -12z
M394 746l-48 73l-48 -73h-163l127 174h168l127 -174h-163z" />
    <glyph glyph-name="ccircumflex" unicode="&#x109;" horiz-adv-x="469" 
d="M290 527q37 0 80.5 -8.5t73.5 -22.5l-31 -133q-57 24 -108 24q-47 0 -74.5 -33.5t-27.5 -91.5q0 -68 29 -101t79 -33q22 0 51.5 6.5t54.5 17.5l26 -136q-58 -28 -147 -28q-124 0 -195 73.5t-71 195.5q0 60 18 110t51.5 86t82.5 55t108 19zM329 566l-48 73l-48 -73h-163
l127 174h168l127 -174h-163z" />
    <glyph glyph-name="Cdotaccent" unicode="&#x10a;" horiz-adv-x="580" 
d="M370 -12q-79 0 -142 25.5t-106 73t-65 114t-22 146.5q0 81 22.5 149t66.5 116t109 74t147 26q40 0 87.5 -11t80.5 -25l-39 -150q-37 14 -67.5 22t-59.5 8q-85 0 -124.5 -52.5t-39.5 -155.5t38.5 -153.5t121.5 -50.5q70 0 143 40l34 -152q-35 -20 -85.5 -32t-99.5 -12z
M249 836q0 41 25.5 66t70.5 25q44 0 69.5 -25t25.5 -66q0 -42 -25.5 -67t-69.5 -25q-45 0 -70.5 25t-25.5 67z" />
    <glyph glyph-name="cdotaccent" unicode="&#x10b;" horiz-adv-x="469" 
d="M290 527q37 0 80.5 -8.5t73.5 -22.5l-31 -133q-57 24 -108 24q-47 0 -74.5 -33.5t-27.5 -91.5q0 -68 29 -101t79 -33q22 0 51.5 6.5t54.5 17.5l26 -136q-58 -28 -147 -28q-124 0 -195 73.5t-71 195.5q0 60 18 110t51.5 86t82.5 55t108 19zM184 656q0 41 25.5 66t70.5 25
q44 0 69.5 -25t25.5 -66q0 -42 -25.5 -67t-69.5 -25q-45 0 -70.5 25t-25.5 67z" />
    <glyph glyph-name="Ccaron" unicode="&#x10c;" horiz-adv-x="580" 
d="M370 -12q-79 0 -142 25.5t-106 73t-65 114t-22 146.5q0 81 22.5 149t66.5 116t109 74t147 26q40 0 87.5 -11t80.5 -25l-39 -150q-37 14 -67.5 22t-59.5 8q-85 0 -124.5 -52.5t-39.5 -155.5t38.5 -153.5t121.5 -50.5q70 0 143 40l34 -152q-35 -20 -85.5 -32t-99.5 -12z
M298 920l48 -73l48 73h163l-127 -174h-168l-127 174h163z" />
    <glyph glyph-name="ccaron" unicode="&#x10d;" horiz-adv-x="469" 
d="M290 527q37 0 80.5 -8.5t73.5 -22.5l-31 -133q-57 24 -108 24q-47 0 -74.5 -33.5t-27.5 -91.5q0 -68 29 -101t79 -33q22 0 51.5 6.5t54.5 17.5l26 -136q-58 -28 -147 -28q-124 0 -195 73.5t-71 195.5q0 60 18 110t51.5 86t82.5 55t108 19zM233 740l48 -73l48 73h163
l-127 -174h-168l-127 174h163z" />
    <glyph glyph-name="Dcaron" unicode="&#x10e;" horiz-adv-x="693" 
d="M480 353q0 101 -43 149t-130 48h-70v-400h70q87 0 130 49.5t43 153.5zM60 0v700h252q76 0 140.5 -23.5t112 -68.5t73 -110.5t25.5 -144.5q0 -81 -25.5 -147.5t-73 -112t-112 -69.5t-140.5 -24h-252zM269 920l48 -73l48 73h163l-127 -174h-168l-127 174h163z" />
    <glyph glyph-name="dcaron" unicode="&#x10f;" horiz-adv-x="578" 
d="M523 28q-41 -17 -99.5 -28.5t-111.5 -11.5q-65 0 -118 18.5t-89.5 52.5t-55.5 82.5t-19 106.5q0 61 20 113t57.5 89t88.5 57t111 20q24 0 46 -3v192l170 8v-696zM203 257q0 -64 28.5 -96.5t79.5 -32.5q25 0 42 7v247q-22 5 -36 5q-55 0 -84.5 -32.5t-29.5 -97.5zM594 720
h148q-5 -69 -30.5 -136t-59.5 -108h-101q18 54 29.5 119t13.5 125z" />
    <glyph glyph-name="Dcroat" unicode="&#x110;" horiz-adv-x="703" 
d="M490 353q0 101 -43 149t-130 48h-70v-118h110v-150h-110v-132h70q87 0 130 49.5t43 153.5zM70 0v282h-70v150h70v268h252q76 0 140.5 -23.5t112 -68.5t73 -110.5t25.5 -144.5q0 -81 -25.5 -147.5t-73 -112t-112 -69.5t-140.5 -24h-252z" />
    <glyph glyph-name="dcroat" unicode="&#x111;" horiz-adv-x="578" 
d="M199 666h154v50l170 8v-58h50v-105h-50v-533q-41 -17 -99.5 -28.5t-111.5 -11.5q-65 0 -118 18.5t-89.5 52.5t-55.5 82.5t-19 106.5q0 61 20 113t57.5 89t88.5 57t111 20q24 0 46 -3v37h-154v105zM203 257q0 -64 28.5 -96.5t79.5 -32.5q25 0 42 7v247q-22 5 -36 5
q-55 0 -84.5 -32.5t-29.5 -97.5z" />
    <glyph glyph-name="Emacron" unicode="&#x112;" horiz-adv-x="550" 
d="M510 150v-150h-450v700h450v-150h-273v-122h232v-150h-232v-128h273zM122 763v129h336v-129h-336z" />
    <glyph glyph-name="emacron" unicode="&#x113;" horiz-adv-x="539" 
d="M458 157l26 -135q-32 -15 -81 -24.5t-97 -9.5q-60 0 -111 19t-88 55t-57 86.5t-20 109.5t19 109t53.5 86t81.5 55t102 19q47 0 88.5 -16.5t71.5 -47.5t46.5 -74t16.5 -94q0 -43 -4 -83h-295q20 -82 115 -82q64 0 133 27zM286 392q-31 0 -52 -21t-28 -59h141v8
q0 34 -17 53t-44 19zM114 583v129h336v-129h-336z" />
    <glyph glyph-name="Ebreve" unicode="&#x114;" horiz-adv-x="550" 
d="M510 150v-150h-450v700h450v-150h-273v-122h232v-150h-232v-128h273zM484 910q-9 -56 -34 -92.5t-64.5 -55t-95.5 -18.5t-95.5 18.5t-64.5 55t-34 92.5h141q4 -24 15.5 -37.5t37.5 -13.5q20 0 33.5 10t19.5 41h141z" />
    <glyph glyph-name="ebreve" unicode="&#x115;" horiz-adv-x="539" 
d="M458 157l26 -135q-32 -15 -81 -24.5t-97 -9.5q-60 0 -111 19t-88 55t-57 86.5t-20 109.5t19 109t53.5 86t81.5 55t102 19q47 0 88.5 -16.5t71.5 -47.5t46.5 -74t16.5 -94q0 -43 -4 -83h-295q20 -82 115 -82q64 0 133 27zM286 392q-31 0 -52 -21t-28 -59h141v8
q0 34 -17 53t-44 19zM476 730q-9 -56 -34 -92.5t-64.5 -55t-95.5 -18.5t-95.5 18.5t-64.5 55t-34 92.5h141q4 -24 15.5 -37.5t37.5 -13.5q20 0 33.5 10t19.5 41h141z" />
    <glyph glyph-name="Edotaccent" unicode="&#x116;" horiz-adv-x="550" 
d="M510 150v-150h-450v700h450v-150h-273v-122h232v-150h-232v-128h273zM193 836q0 41 25.5 66t70.5 25q44 0 69.5 -25t25.5 -66q0 -42 -25.5 -67t-69.5 -25q-45 0 -70.5 25t-25.5 67z" />
    <glyph glyph-name="edotaccent" unicode="&#x117;" horiz-adv-x="539" 
d="M458 157l26 -135q-32 -15 -81 -24.5t-97 -9.5q-60 0 -111 19t-88 55t-57 86.5t-20 109.5t19 109t53.5 86t81.5 55t102 19q47 0 88.5 -16.5t71.5 -47.5t46.5 -74t16.5 -94q0 -43 -4 -83h-295q20 -82 115 -82q64 0 133 27zM286 392q-31 0 -52 -21t-28 -59h141v8
q0 34 -17 53t-44 19zM185 656q0 41 25.5 66t70.5 25q44 0 69.5 -25t25.5 -66q0 -42 -25.5 -67t-69.5 -25q-45 0 -70.5 25t-25.5 67z" />
    <glyph glyph-name="Eogonek" unicode="&#x118;" horiz-adv-x="550" 
d="M514 -218q-42 -17 -97 -17q-63 0 -100 29t-37 80q0 16 6.5 38t22.5 46t35 42h-284v700h450v-150h-273v-122h232v-150h-232v-128h273v-150q-41 -19 -66 -45t-25 -53q0 -31 37 -31q22 0 41 9z" />
    <glyph glyph-name="eogonek" unicode="&#x119;" horiz-adv-x="539" 
d="M286 392q-31 0 -52 -21t-28 -59h141v8q0 34 -17 53t-44 19zM404 -218q-42 -17 -97 -17q-63 0 -100 29t-37 80q0 32 17.5 64.5t42.5 57.5q-91 22 -145.5 92t-54.5 170q0 59 19 109t53.5 86t81.5 55t102 19q47 0 88.5 -16.5t71.5 -47.5t46.5 -74t16.5 -94q0 -43 -4 -83
h-295q20 -82 115 -82q64 0 133 27l26 -135q-40 -18 -94 -27q-37 -18 -59 -43t-22 -50q0 -31 37 -31q22 0 41 9z" />
    <glyph glyph-name="Ecaron" unicode="&#x11a;" horiz-adv-x="550" 
d="M510 150v-150h-450v700h450v-150h-273v-122h232v-150h-232v-128h273zM338 746l-48 73l-48 -73h-163l127 174h168l127 -174h-163z" />
    <glyph glyph-name="ecaron" unicode="&#x11b;" horiz-adv-x="539" 
d="M458 157l26 -135q-32 -15 -81 -24.5t-97 -9.5q-60 0 -111 19t-88 55t-57 86.5t-20 109.5t19 109t53.5 86t81.5 55t102 19q47 0 88.5 -16.5t71.5 -47.5t46.5 -74t16.5 -94q0 -43 -4 -83h-295q20 -82 115 -82q64 0 133 27zM286 392q-31 0 -52 -21t-28 -59h141v8
q0 34 -17 53t-44 19zM234 740l48 -73l48 73h163l-127 -174h-168l-127 174h163z" />
    <glyph glyph-name="Gcircumflex" unicode="&#x11c;" horiz-adv-x="657" 
d="M612 48q-111 -60 -233 -60q-78 0 -142.5 25t-109.5 71.5t-68.5 112t-23.5 143.5q0 82 25 151.5t72 118.5t114.5 75.5t148.5 26.5q41 0 94.5 -8.5t93.5 -25.5l-38 -148q-34 13 -73 19.5t-74 6.5q-89 0 -134.5 -55t-45.5 -161q0 -96 43.5 -146t126.5 -50q36 0 64 6v117h-98
v145h258v-364zM406 746l-48 73l-48 -73h-163l127 174h168l127 -174h-163z" />
    <glyph glyph-name="gcircumflex" unicode="&#x11d;" horiz-adv-x="578" 
d="M523 49q0 -111 -73.5 -174.5t-199.5 -63.5q-44 0 -86.5 5.5t-95.5 26.5l35 134q27 -12 64.5 -19t71.5 -7q52 0 83 20t31 59v6q-36 -12 -79 -12q-114 0 -179 63t-65 175q0 59 20.5 108.5t57.5 84.5t89 53.5t113 18.5q57 0 114 -12.5t99 -28.5v-437zM203 277
q0 -51 26.5 -81t73.5 -30q24 0 50 8v207q-22 6 -42 6q-51 0 -79.5 -30.5t-28.5 -79.5zM358 566l-48 73l-48 -73h-163l127 174h168l127 -174h-163z" />
    <glyph glyph-name="Gbreve" unicode="&#x11e;" horiz-adv-x="657" 
d="M612 48q-111 -60 -233 -60q-78 0 -142.5 25t-109.5 71.5t-68.5 112t-23.5 143.5q0 82 25 151.5t72 118.5t114.5 75.5t148.5 26.5q41 0 94.5 -8.5t93.5 -25.5l-38 -148q-34 13 -73 19.5t-74 6.5q-89 0 -134.5 -55t-45.5 -161q0 -96 43.5 -146t126.5 -50q36 0 64 6v117h-98
v145h258v-364zM552 910q-9 -56 -34 -92.5t-64.5 -55t-95.5 -18.5t-95.5 18.5t-64.5 55t-34 92.5h141q4 -24 15.5 -37.5t37.5 -13.5q20 0 33.5 10t19.5 41h141z" />
    <glyph glyph-name="gbreve" unicode="&#x11f;" horiz-adv-x="578" 
d="M523 49q0 -111 -73.5 -174.5t-199.5 -63.5q-44 0 -86.5 5.5t-95.5 26.5l35 134q27 -12 64.5 -19t71.5 -7q52 0 83 20t31 59v6q-36 -12 -79 -12q-114 0 -179 63t-65 175q0 59 20.5 108.5t57.5 84.5t89 53.5t113 18.5q57 0 114 -12.5t99 -28.5v-437zM203 277
q0 -51 26.5 -81t73.5 -30q24 0 50 8v207q-22 6 -42 6q-51 0 -79.5 -30.5t-28.5 -79.5zM504 730q-9 -56 -34 -92.5t-64.5 -55t-95.5 -18.5t-95.5 18.5t-64.5 55t-34 92.5h141q4 -24 15.5 -37.5t37.5 -13.5q20 0 33.5 10t19.5 41h141z" />
    <glyph glyph-name="Gdotaccent" unicode="&#x120;" horiz-adv-x="657" 
d="M612 48q-111 -60 -233 -60q-78 0 -142.5 25t-109.5 71.5t-68.5 112t-23.5 143.5q0 82 25 151.5t72 118.5t114.5 75.5t148.5 26.5q41 0 94.5 -8.5t93.5 -25.5l-38 -148q-34 13 -73 19.5t-74 6.5q-89 0 -134.5 -55t-45.5 -161q0 -96 43.5 -146t126.5 -50q36 0 64 6v117h-98
v145h258v-364zM261 836q0 41 25.5 66t70.5 25q44 0 69.5 -25t25.5 -66q0 -42 -25.5 -67t-69.5 -25q-45 0 -70.5 25t-25.5 67z" />
    <glyph glyph-name="gdotaccent" unicode="&#x121;" horiz-adv-x="578" 
d="M523 49q0 -111 -73.5 -174.5t-199.5 -63.5q-44 0 -86.5 5.5t-95.5 26.5l35 134q27 -12 64.5 -19t71.5 -7q52 0 83 20t31 59v6q-36 -12 -79 -12q-114 0 -179 63t-65 175q0 59 20.5 108.5t57.5 84.5t89 53.5t113 18.5q57 0 114 -12.5t99 -28.5v-437zM203 277
q0 -51 26.5 -81t73.5 -30q24 0 50 8v207q-22 6 -42 6q-51 0 -79.5 -30.5t-28.5 -79.5zM213 656q0 41 25.5 66t70.5 25q44 0 69.5 -25t25.5 -66q0 -42 -25.5 -67t-69.5 -25q-45 0 -70.5 25t-25.5 67z" />
    <glyph glyph-name="Gcommaaccent" unicode="&#x122;" horiz-adv-x="657" 
d="M612 48q-111 -60 -233 -60q-78 0 -142.5 25t-109.5 71.5t-68.5 112t-23.5 143.5q0 82 25 151.5t72 118.5t114.5 75.5t148.5 26.5q41 0 94.5 -8.5t93.5 -25.5l-38 -148q-34 13 -73 19.5t-74 6.5q-89 0 -134.5 -55t-45.5 -161q0 -96 43.5 -146t126.5 -50q36 0 64 6v117h-98
v145h258v-364zM299 -53h153q-5 -54 -30 -106t-60 -86h-103q42 89 40 192z" />
    <glyph glyph-name="gcommaaccent" unicode="&#x123;" horiz-adv-x="578" 
d="M523 49q0 -111 -73.5 -174.5t-199.5 -63.5q-44 0 -86.5 5.5t-95.5 26.5l35 134q27 -12 64.5 -19t71.5 -7q52 0 83 20t31 59v6q-36 -12 -79 -12q-114 0 -179 63t-65 175q0 59 20.5 108.5t57.5 84.5t89 53.5t113 18.5q57 0 114 -12.5t99 -28.5v-437zM203 277
q0 -51 26.5 -81t73.5 -30q24 0 50 8v207q-22 6 -42 6q-51 0 -79.5 -30.5t-28.5 -79.5zM388 575h-147q5 57 31 112.5t61 91.5h103q-16 -36 -31 -89.5t-17 -114.5z" />
    <glyph glyph-name="Hcircumflex" unicode="&#x124;" horiz-adv-x="704" 
d="M644 0h-177v279h-230v-279h-177v700h177v-271h230v271h177v-700zM400 746l-48 73l-48 -73h-163l127 174h168l127 -174h-163z" />
    <glyph glyph-name="hcircumflex" unicode="&#x125;" horiz-adv-x="582" 
d="M225 0h-170v718l170 8v-211q32 12 83 12q49 0 90 -14t71 -41.5t46.5 -68.5t16.5 -92v-311h-170v297q0 88 -83 88q-29 0 -54 -10v-375zM318 762l-48 73l-48 -73h-163l127 174h168l127 -174h-163z" />
    <glyph glyph-name="Hbar" unicode="&#x126;" horiz-adv-x="724" 
d="M477 0v279h-230v-279h-177v492h-70v140h70v68h177v-68h230v68h177v-68h70v-140h-70v-492h-177zM477 429v63h-230v-63h230z" />
    <glyph glyph-name="hbar" unicode="&#x127;" horiz-adv-x="582" 
d="M225 515q32 12 83 12q48 0 89.5 -15.5t71.5 -45t46.5 -71.5t16.5 -94v-301h-170v287q0 47 -22.5 72.5t-60.5 25.5q-29 0 -54 -10v-375h-170v561h-60v105h60v52l170 8v-60h144v-105h-144v-46z" />
    <glyph glyph-name="Itilde" unicode="&#x128;" horiz-adv-x="297" 
d="M60 0v700h177v-700h-177zM199 879q27 0 27 38h110q0 -45 -13.5 -83t-36.5 -58.5t-56 -20.5q-29 0 -68.5 15t-57.5 15q-31 0 -33 -34h-110q1 33 10.5 71t36 62t66.5 24q18 0 34.5 -4t45.5 -14.5t45 -10.5z" />
    <glyph glyph-name="itilde" unicode="&#x129;" horiz-adv-x="280" 
d="M225 515v-515h-170v515h170zM193 699q27 0 27 38h110q0 -45 -13.5 -83t-36.5 -58.5t-56 -20.5q-29 0 -68.5 15t-57.5 15q-31 0 -33 -34h-110q1 33 10.5 71t36 62t66.5 24q18 0 34.5 -4t45.5 -14.5t45 -10.5z" />
    <glyph glyph-name="Imacron" unicode="&#x12a;" horiz-adv-x="297" 
d="M60 0v700h177v-700h-177zM-19 763v129h336v-129h-336z" />
    <glyph glyph-name="imacron" unicode="&#x12b;" horiz-adv-x="280" 
d="M225 515v-515h-170v515h170zM-25 583v129h336v-129h-336z" />
    <glyph glyph-name="Ibreve" unicode="&#x12c;" horiz-adv-x="297" 
d="M60 0v700h177v-700h-177zM343 910q-9 -56 -34 -92.5t-64.5 -55t-95.5 -18.5t-95.5 18.5t-64.5 55t-34 92.5h141q4 -24 15.5 -37.5t37.5 -13.5q20 0 33.5 10t19.5 41h141z" />
    <glyph glyph-name="ibreve" unicode="&#x12d;" horiz-adv-x="280" 
d="M225 515v-515h-170v515h170zM337 730q-9 -56 -34 -92.5t-64.5 -55t-95.5 -18.5t-95.5 18.5t-64.5 55t-34 92.5h141q4 -24 15.5 -37.5t37.5 -13.5q20 0 33.5 10t19.5 41h141z" />
    <glyph glyph-name="Iogonek" unicode="&#x12e;" horiz-adv-x="297" 
d="M230 -218q-42 -17 -97 -17q-63 0 -100 29t-37 80q0 33 18.5 66.5t45.5 59.5v700h177v-700h-11q-41 -19 -66 -45t-25 -53q0 -31 37 -31q22 0 41 9z" />
    <glyph glyph-name="iogonek" unicode="&#x12f;" horiz-adv-x="280" 
d="M140 564q-45 0 -70.5 25t-25.5 67q0 41 25.5 66t70.5 25q44 0 69.5 -25t25.5 -66q0 -42 -25.5 -67t-69.5 -25zM225 -218q-42 -17 -97 -17q-63 0 -100 29t-37 80q0 33 18.5 66.5t45.5 59.5v515h170v-515h-4q-41 -19 -66 -45t-25 -53q0 -31 37 -31q22 0 41 9z" />
    <glyph glyph-name="Idotaccent" unicode="&#x130;" horiz-adv-x="297" 
d="M60 0v700h177v-700h-177zM52 836q0 41 25.5 66t70.5 25q44 0 69.5 -25t25.5 -66q0 -42 -25.5 -67t-69.5 -25q-45 0 -70.5 25t-25.5 67z" />
    <glyph glyph-name="dotlessi" unicode="&#x131;" horiz-adv-x="280" 
d="M225 515v-515h-170v515h170z" />
    <glyph glyph-name="IJ" unicode="&#x132;" horiz-adv-x="594" 
d="M60 0v700h177v-700h-177zM282 -94q34 51 54.5 119.5t20.5 143.5v531h177v-541q0 -75 -13 -139.5t-37 -112t-48 -80.5z" />
    <glyph glyph-name="ij" unicode="&#x133;" horiz-adv-x="560" 
d="M225 515v-515h-170v515h170zM140 564q-45 0 -70.5 25t-25.5 67q0 41 25.5 66t70.5 25q44 0 69.5 -25t25.5 -66q0 -42 -25.5 -67t-69.5 -25zM505 54q0 -89 -44 -147t-141 -89l-49 139q33 17 48.5 40.5t15.5 66.5v451h170v-461zM515 656q0 -42 -25.5 -67t-69.5 -25
q-45 0 -70.5 25t-25.5 67q0 41 25.5 66t70.5 25q44 0 69.5 -25t25.5 -66z" />
    <glyph glyph-name="Jcircumflex" unicode="&#x134;" horiz-adv-x="297" 
d="M-15 -94q34 51 54.5 119.5t20.5 143.5v531h177v-541q0 -75 -13 -139.5t-37 -112t-48 -80.5zM197 746l-48 73l-48 -73h-163l127 174h168l127 -174h-163z" />
    <glyph glyph-name="jcircumflex" unicode="&#x135;" horiz-adv-x="280" 
d="M-9 -43q33 17 48.5 40.5t15.5 66.5v451h170v-461q0 -89 -44 -147t-141 -89zM189 566l-48 73l-48 -73h-163l127 174h168l127 -174h-163z" />
    <glyph glyph-name="Kcommaaccent" unicode="&#x136;" horiz-adv-x="657" 
d="M619 700q-45 -202 -196 -346l235 -354h-201l-163 255l-57 -33v-222h-177v700h177v-300q81 56 133 132t72 168h177zM264 -53h153q-5 -54 -30 -106t-60 -86h-103q42 89 40 192z" />
    <glyph glyph-name="kcommaaccent" unicode="&#x137;" horiz-adv-x="555" 
d="M516 515q0 -120 -120 -237l159 -278h-184l-97 179l-49 -33v-146h-170v716l170 8v-413q100 76 121 204h170zM225 -53h153q-5 -54 -30 -106t-60 -86h-103q42 89 40 192z" />
    <glyph glyph-name="Lacute" unicode="&#x139;" horiz-adv-x="527" 
d="M60 0v700h177v-550h260v-150h-437zM157 920h183l-123 -174h-148z" />
    <glyph glyph-name="lacute" unicode="&#x13a;" horiz-adv-x="320" 
d="M220 726v-521q0 -77 48 -77q14 0 30 3l12 -134q-41 -9 -83 -9q-58 0 -96.5 23.5t-59.5 70t-21 121.5v513zM150 939h183l-123 -174h-148z" />
    <glyph glyph-name="Lcommaaccent" unicode="&#x13b;" horiz-adv-x="527" 
d="M60 0v700h177v-550h260v-150h-437zM195 -53h153q-5 -54 -30 -106t-60 -86h-103q42 89 40 192z" />
    <glyph glyph-name="lcommaaccent" unicode="&#x13c;" horiz-adv-x="320" 
d="M220 726v-521q0 -77 48 -77q14 0 30 3l12 -134q-41 -9 -83 -9q-58 0 -96.5 23.5t-59.5 70t-21 121.5v513zM107 -53h153q-5 -54 -30 -106t-60 -86h-103q42 89 40 192z" />
    <glyph glyph-name="Lcaron" unicode="&#x13d;" horiz-adv-x="527" 
d="M60 0v700h177v-550h260v-150h-437zM338 700h148q-5 -69 -30.5 -136t-59.5 -108h-101q18 54 29.5 119t13.5 125z" />
    <glyph glyph-name="lcaron" unicode="&#x13e;" horiz-adv-x="320" 
d="M220 726v-521q0 -77 48 -77q14 0 30 3l12 -134q-41 -9 -83 -9q-58 0 -96.5 23.5t-59.5 70t-21 121.5v513zM299 722h148q-5 -69 -30.5 -136t-59.5 -108h-101q18 54 29.5 119t13.5 125z" />
    <glyph glyph-name="Ldot" unicode="&#x13f;" horiz-adv-x="527" 
d="M60 0v700h177v-550h260v-150h-437zM318 390q0 42 25.5 66.5t70.5 24.5t70 -24.5t25 -66.5t-25 -67t-70 -25t-70.5 24.5t-25.5 67.5z" />
    <glyph glyph-name="ldot" unicode="&#x140;" horiz-adv-x="437" 
d="M220 726v-521q0 -77 48 -77q14 0 30 3l12 -134q-41 -9 -83 -9q-58 0 -96.5 23.5t-59.5 70t-21 121.5v513zM258 394q0 42 25.5 66.5t70.5 24.5t70 -24.5t25 -66.5t-25 -67t-70 -25t-70.5 24.5t-25.5 67.5z" />
    <glyph glyph-name="Lslash" unicode="&#x141;" horiz-adv-x="527" 
d="M60 0v242l-77 -31v144l77 31v314h177v-242l124 50v-144l-124 -50v-164h260v-150h-437z" />
    <glyph glyph-name="lslash" unicode="&#x142;" horiz-adv-x="320" 
d="M-14 273v129l64 25v289l170 10v-234l89 34v-129l-89 -34v-158q0 -77 48 -77q14 0 30 3l12 -134q-41 -9 -83 -9q-58 0 -96.5 23.5t-59.5 70t-21 121.5v95z" />
    <glyph glyph-name="Nacute" unicode="&#x143;" horiz-adv-x="713" 
d="M222 0h-162v700h171q108 -223 264 -453q-4 37 -4 84v369h162v-700h-172q-84 115 -142.5 202t-120.5 200q4 -41 4 -123v-279zM377 920h183l-123 -174h-148z" />
    <glyph glyph-name="nacute" unicode="&#x144;" horiz-adv-x="582" 
d="M225 0h-170v486q47 18 112 29.5t121 11.5q115 0 179.5 -55.5t64.5 -160.5v-311h-170v299q0 88 -76 88q-33 0 -61 -10v-377zM305 740h183l-123 -174h-148z" />
    <glyph glyph-name="Ncommaaccent" unicode="&#x145;" horiz-adv-x="713" 
d="M222 0h-162v700h171q108 -223 264 -453q-4 37 -4 84v369h162v-700h-172q-84 115 -142.5 202t-120.5 200q4 -41 4 -123v-279zM289 -53h153q-5 -54 -30 -106t-60 -86h-103q42 89 40 192z" />
    <glyph glyph-name="ncommaaccent" unicode="&#x146;" horiz-adv-x="582" 
d="M225 0h-170v486q47 18 112 29.5t121 11.5q115 0 179.5 -55.5t64.5 -160.5v-311h-170v299q0 88 -76 88q-33 0 -61 -10v-377zM217 -53h153q-5 -54 -30 -106t-60 -86h-103q42 89 40 192z" />
    <glyph glyph-name="Ncaron" unicode="&#x147;" horiz-adv-x="713" 
d="M222 0h-162v700h171q108 -223 264 -453q-4 37 -4 84v369h162v-700h-172q-84 115 -142.5 202t-120.5 200q4 -41 4 -123v-279zM317 920l48 -73l48 73h163l-127 -174h-168l-127 174h163z" />
    <glyph glyph-name="ncaron" unicode="&#x148;" horiz-adv-x="582" 
d="M225 0h-170v486q47 18 112 29.5t121 11.5q115 0 179.5 -55.5t64.5 -160.5v-311h-170v299q0 88 -76 88q-33 0 -61 -10v-377zM245 740l48 -73l48 73h163l-127 -174h-168l-127 174h163z" />
    <glyph glyph-name="Omacron" unicode="&#x14c;" horiz-adv-x="723" 
d="M688 350q0 -80 -22.5 -147.5t-65.5 -115t-104 -73.5t-134 -26q-74 0 -135 26t-104 73.5t-65.5 115t-22.5 147.5t22.5 147.5t65.5 115t104 73.5t135 26q73 0 134 -26t104 -73.5t65.5 -115t22.5 -147.5zM218 350q0 -99 37.5 -152.5t106.5 -53.5t106 53.5t37 152.5
t-37 152.5t-106 53.5t-106.5 -53.5t-37.5 -152.5zM194 763v129h336v-129h-336z" />
    <glyph glyph-name="omacron" unicode="&#x14d;" horiz-adv-x="579" 
d="M549 258q0 -122 -70.5 -196t-188.5 -74t-189 74t-71 196q0 121 71 195t189 74q58 0 106.5 -19t82.5 -55t52 -86t18 -109zM203 258q0 -61 23 -95.5t64 -34.5q29 0 50 19.5t28.5 50.5t7.5 60q0 28 -7.5 59t-28.5 50.5t-50 19.5q-19 0 -39.5 -11t-34 -42.5t-13.5 -75.5z
M122 583v129h336v-129h-336z" />
    <glyph glyph-name="Obreve" unicode="&#x14e;" horiz-adv-x="723" 
d="M688 350q0 -80 -22.5 -147.5t-65.5 -115t-104 -73.5t-134 -26q-74 0 -135 26t-104 73.5t-65.5 115t-22.5 147.5t22.5 147.5t65.5 115t104 73.5t135 26q73 0 134 -26t104 -73.5t65.5 -115t22.5 -147.5zM218 350q0 -99 37.5 -152.5t106.5 -53.5t106 53.5t37 152.5
t-37 152.5t-106 53.5t-106.5 -53.5t-37.5 -152.5zM556 910q-9 -56 -34 -92.5t-64.5 -55t-95.5 -18.5t-95.5 18.5t-64.5 55t-34 92.5h141q4 -24 15.5 -37.5t37.5 -13.5q20 0 33.5 10t19.5 41h141z" />
    <glyph glyph-name="obreve" unicode="&#x14f;" horiz-adv-x="579" 
d="M549 258q0 -122 -70.5 -196t-188.5 -74t-189 74t-71 196q0 121 71 195t189 74q58 0 106.5 -19t82.5 -55t52 -86t18 -109zM203 258q0 -61 23 -95.5t64 -34.5q29 0 50 19.5t28.5 50.5t7.5 60q0 28 -7.5 59t-28.5 50.5t-50 19.5q-19 0 -39.5 -11t-34 -42.5t-13.5 -75.5z
M484 730q-9 -56 -34 -92.5t-64.5 -55t-95.5 -18.5t-95.5 18.5t-64.5 55t-34 92.5h141q4 -24 15.5 -37.5t37.5 -13.5q20 0 33.5 10t19.5 41h141z" />
    <glyph glyph-name="Ohungarumlaut" unicode="&#x150;" horiz-adv-x="723" 
d="M688 350q0 -80 -22.5 -147.5t-65.5 -115t-104 -73.5t-134 -26q-74 0 -135 26t-104 73.5t-65.5 115t-22.5 147.5t22.5 147.5t65.5 115t104 73.5t135 26q73 0 134 -26t104 -73.5t65.5 -115t22.5 -147.5zM218 350q0 -99 37.5 -152.5t106.5 -53.5t106 53.5t37 152.5
t-37 152.5t-106 53.5t-106.5 -53.5t-37.5 -152.5zM490 920h175l-123 -174h-140zM275 920h175l-123 -174h-140z" />
    <glyph glyph-name="ohungarumlaut" unicode="&#x151;" horiz-adv-x="579" 
d="M549 258q0 -122 -70.5 -196t-188.5 -74t-189 74t-71 196q0 121 71 195t189 74q58 0 106.5 -19t82.5 -55t52 -86t18 -109zM203 258q0 -61 23 -95.5t64 -34.5q29 0 50 19.5t28.5 50.5t7.5 60q0 28 -7.5 59t-28.5 50.5t-50 19.5q-19 0 -39.5 -11t-34 -42.5t-13.5 -75.5z
M418 740h175l-123 -174h-140zM203 740h175l-123 -174h-140z" />
    <glyph glyph-name="OE" unicode="&#x152;" horiz-adv-x="990" 
d="M950 150v-150h-445v36q-68 -48 -158 -48q-71 0 -130 26t-99 73.5t-61.5 115t-21.5 147.5t21.5 147.5t61.5 115t99 73.5t130 26q90 0 158 -48v36h445v-150h-273v-122h232v-150h-232v-128h273zM218 350q0 -99 37.5 -152.5t106.5 -53.5t106 53.5t37 152.5t-37 152.5
t-106 53.5t-106.5 -53.5t-37.5 -152.5z" />
    <glyph glyph-name="oe" unicode="&#x153;" horiz-adv-x="879" 
d="M203 258q0 -61 23 -95.5t64 -34.5q29 0 50 19.5t28.5 50.5t7.5 60q0 28 -7.5 59t-28.5 50.5t-50 19.5q-19 0 -39.5 -11t-34 -42.5t-13.5 -75.5zM626 392q-31 0 -52 -21t-28 -59h141v8q0 34 -17 53t-44 19zM824 22q-34 -15 -82.5 -24.5t-88.5 -9.5q-105 0 -189 70
q-73 -70 -179 -70q-58 0 -106 19t-81 55t-50.5 86t-17.5 110q0 59 17.5 109.5t51 86t81.5 54.5t106 19q99 0 175 -67q72 67 165 67q47 0 88.5 -16.5t71.5 -47.5t46.5 -74t16.5 -94q0 -43 -4 -83h-295q20 -82 115 -82q64 0 133 27z" />
    <glyph glyph-name="Racute" unicode="&#x154;" horiz-adv-x="628" 
d="M276 550h-38v-158h38q107 0 107 79q0 44 -27 61.5t-80 17.5zM610 0h-188l-82 194q-20 49 -75 49h-27v-243h-178v700h224q131 0 206 -57t75 -156q0 -73 -30 -118t-93 -69q50 -20 81 -94zM288 920h183l-123 -174h-148z" />
    <glyph glyph-name="racute" unicode="&#x155;" horiz-adv-x="381" 
d="M55 486q39 18 99 29.5t111 11.5q12 0 47 -2t59 -10l-24 -138q-27 10 -67 10q-32 0 -55 -9v-378h-170v486zM223 740h183l-123 -174h-148z" />
    <glyph glyph-name="Rcommaaccent" unicode="&#x156;" horiz-adv-x="628" 
d="M276 550h-38v-158h38q107 0 107 79q0 44 -27 61.5t-80 17.5zM610 0h-188l-82 194q-20 49 -75 49h-27v-243h-178v700h224q131 0 206 -57t75 -156q0 -73 -30 -118t-93 -69q50 -20 81 -94zM257 -53h153q-5 -54 -30 -106t-60 -86h-103q42 89 40 192z" />
    <glyph glyph-name="rcommaaccent" unicode="&#x157;" horiz-adv-x="381" 
d="M55 486q39 18 99 29.5t111 11.5q12 0 47 -2t59 -10l-24 -138q-27 10 -67 10q-32 0 -55 -9v-378h-170v486zM56 -53h153q-5 -54 -30 -106t-60 -86h-103q42 89 40 192z" />
    <glyph glyph-name="Rcaron" unicode="&#x158;" horiz-adv-x="628" 
d="M276 550h-38v-158h38q107 0 107 79q0 44 -27 61.5t-80 17.5zM610 0h-188l-82 194q-20 49 -75 49h-27v-243h-178v700h224q131 0 206 -57t75 -156q0 -73 -30 -118t-93 -69q50 -20 81 -94zM228 920l48 -73l48 73h163l-127 -174h-168l-127 174h163z" />
    <glyph glyph-name="rcaron" unicode="&#x159;" horiz-adv-x="381" 
d="M55 486q39 18 99 29.5t111 11.5q12 0 47 -2t59 -10l-24 -138q-27 10 -67 10q-32 0 -55 -9v-378h-170v486zM163 740l48 -73l48 73h163l-127 -174h-168l-127 174h163z" />
    <glyph glyph-name="Sacute" unicode="&#x15a;" horiz-adv-x="533" 
d="M30 30l32 149q39 -16 87.5 -27t93.5 -11q46 0 68.5 15.5t22.5 42.5q0 25 -14.5 40.5t-40.5 26t-60 22.5q-104 36 -146 87.5t-42 125.5q0 100 64.5 155.5t184.5 55.5q43 0 97.5 -9t99.5 -30l-34 -146q-77 32 -153 32q-80 0 -80 -52q0 -22 14 -38.5t82 -41.5
q91 -33 132 -65t58 -72.5t17 -89.5q0 -99 -70.5 -155.5t-191.5 -56.5q-46 0 -108 9.5t-113 32.5zM294 920h183l-123 -174h-148z" />
    <glyph glyph-name="sacute" unicode="&#x15b;" horiz-adv-x="444" 
d="M407 496l-17 -138q-95 29 -145 29q-24 0 -38 -5.5t-14 -16.5q0 -13 13 -20t57 -19q58 -15 94 -34t56.5 -50t20.5 -84q0 -82 -60.5 -126t-161.5 -44q-44 0 -95.5 9t-91.5 26l22 138q33 -14 78 -23.5t84 -9.5q26 0 42.5 7t16.5 19q0 13 -10.5 21.5t-83.5 27.5
q-75 19 -111 56.5t-36 101.5q0 79 54 122.5t150 43.5q39 0 89 -8.5t87 -22.5zM244 740h183l-123 -174h-148z" />
    <glyph glyph-name="Scircumflex" unicode="&#x15c;" horiz-adv-x="533" 
d="M30 30l32 149q39 -16 87.5 -27t93.5 -11q46 0 68.5 15.5t22.5 42.5q0 25 -14.5 40.5t-40.5 26t-60 22.5q-104 36 -146 87.5t-42 125.5q0 100 64.5 155.5t184.5 55.5q43 0 97.5 -9t99.5 -30l-34 -146q-77 32 -153 32q-80 0 -80 -52q0 -22 14 -38.5t82 -41.5
q91 -33 132 -65t58 -72.5t17 -89.5q0 -99 -70.5 -155.5t-191.5 -56.5q-46 0 -108 9.5t-113 32.5zM330 746l-48 73l-48 -73h-163l127 174h168l127 -174h-163z" />
    <glyph glyph-name="scircumflex" unicode="&#x15d;" horiz-adv-x="444" 
d="M407 496l-17 -138q-95 29 -145 29q-24 0 -38 -5.5t-14 -16.5q0 -13 13 -20t57 -19q58 -15 94 -34t56.5 -50t20.5 -84q0 -82 -60.5 -126t-161.5 -44q-44 0 -95.5 9t-91.5 26l22 138q33 -14 78 -23.5t84 -9.5q26 0 42.5 7t16.5 19q0 13 -10.5 21.5t-83.5 27.5
q-75 19 -111 56.5t-36 101.5q0 79 54 122.5t150 43.5q39 0 89 -8.5t87 -22.5zM280 566l-48 73l-48 -73h-163l127 174h168l127 -174h-163z" />
    <glyph glyph-name="Scedilla" unicode="&#x15e;" horiz-adv-x="533" 
d="M30 30l32 149q39 -16 87.5 -27t93.5 -11q46 0 68.5 14t22.5 44q0 25 -14.5 40.5t-40.5 26t-60 22.5q-69 24 -108 52t-59.5 67t-20.5 94q0 100 64.5 155.5t184.5 55.5q99 0 196 -39l-28 -149q-85 35 -158 35q-80 0 -80 -52q0 -22 14 -38.5t82 -41.5q78 -28 119.5 -55.5
t64.5 -68.5t23 -103q0 -85 -52.5 -139t-145.5 -68l-14 -32q45 -6 71.5 -29.5t26.5 -61.5q0 -30 -16.5 -57.5t-57 -42.5t-86.5 -15t-79 10l19 89q22 -6 46 -6q19 0 31.5 6.5t12.5 19.5q0 11 -11.5 19.5t-37.5 8.5l-17 46l14 41q-97 5 -187 41z" />
    <glyph glyph-name="scedilla" unicode="&#x15f;" horiz-adv-x="444" 
d="M407 496l-17 -138q-95 29 -145 29q-24 0 -38 -5.5t-14 -16.5q0 -13 13 -20t57 -19q58 -15 94 -34t56.5 -50t20.5 -84q0 -71 -46.5 -114t-126.5 -53l-13 -30q45 -6 71.5 -29.5t26.5 -61.5q0 -30 -16.5 -57.5t-57 -42.5t-86.5 -15t-79 10l19 89q22 -6 46 -6q19 0 31.5 6.5
t12.5 19.5q0 11 -11.5 19.5t-37.5 8.5l-17 46l15 42q-35 3 -73.5 12t-66.5 21l22 138q33 -14 78 -23.5t84 -9.5q26 0 42.5 7t16.5 19q0 13 -10.5 21.5t-83.5 27.5q-75 19 -111 56.5t-36 101.5q0 79 54 122.5t150 43.5q39 0 89 -8.5t87 -22.5z" />
    <glyph glyph-name="Scaron" unicode="&#x160;" horiz-adv-x="533" 
d="M30 30l32 149q39 -16 87.5 -27t93.5 -11q46 0 68.5 15.5t22.5 42.5q0 25 -14.5 40.5t-40.5 26t-60 22.5q-104 36 -146 87.5t-42 125.5q0 100 64.5 155.5t184.5 55.5q43 0 97.5 -9t99.5 -30l-34 -146q-77 32 -153 32q-80 0 -80 -52q0 -22 14 -38.5t82 -41.5
q91 -33 132 -65t58 -72.5t17 -89.5q0 -99 -70.5 -155.5t-191.5 -56.5q-46 0 -108 9.5t-113 32.5zM234 920l48 -73l48 73h163l-127 -174h-168l-127 174h163z" />
    <glyph glyph-name="scaron" unicode="&#x161;" horiz-adv-x="444" 
d="M407 496l-17 -138q-95 29 -145 29q-24 0 -38 -5.5t-14 -16.5q0 -13 13 -20t57 -19q58 -15 94 -34t56.5 -50t20.5 -84q0 -82 -60.5 -126t-161.5 -44q-44 0 -95.5 9t-91.5 26l22 138q33 -14 78 -23.5t84 -9.5q26 0 42.5 7t16.5 19q0 13 -10.5 21.5t-83.5 27.5
q-75 19 -111 56.5t-36 101.5q0 79 54 122.5t150 43.5q39 0 89 -8.5t87 -22.5zM184 740l48 -73l48 73h163l-127 -174h-168l-127 174h163z" />
    <glyph glyph-name="Tcommaaccent" unicode="&#x162;" horiz-adv-x="563" 
d="M193 0v550h-173v150h523v-150h-173v-550h-45l-17 -39q45 -6 71.5 -29.5t26.5 -61.5q0 -30 -16.5 -57.5t-57 -42.5t-86.5 -15t-79 10l19 89q22 -6 46 -6q19 0 31.5 6.5t12.5 19.5q0 11 -11.5 19.5t-37.5 8.5l-17 46l18 52h-35z" />
    <glyph glyph-name="tcommaaccent" unicode="&#x163;" horiz-adv-x="379" 
d="M90 -235l19 89q22 -6 46 -6q19 0 31.5 6.5t12.5 19.5q0 11 -11.5 19.5t-37.5 8.5l-17 46l23 67q-81 49 -81 188v177h-65v135h65v107l170 8v-115h99v-135h-99v-175q0 -37 16 -57t45 -20t49 4l9 -136q-40 -8 -94 -8l-27 1l-12 -28q45 -6 71.5 -29.5t26.5 -61.5
q0 -30 -16.5 -57.5t-57 -42.5t-86.5 -15t-79 10z" />
    <glyph glyph-name="Tcaron" unicode="&#x164;" horiz-adv-x="563" 
d="M193 0v550h-173v150h523v-150h-173v-550h-177zM231 920l48 -73l48 73h163l-127 -174h-168l-127 174h163z" />
    <glyph glyph-name="tcaron" unicode="&#x165;" horiz-adv-x="379" 
d="M364 -4q-40 -8 -94 -8q-195 0 -195 215v177h-65v135h65v107l170 8v-115h99v-135h-99v-175q0 -37 16 -57t45 -20t49 4zM309 785h148q-5 -69 -30.5 -136t-59.5 -108h-101q18 54 29.5 119t13.5 125z" />
    <glyph glyph-name="Tbar" unicode="&#x166;" horiz-adv-x="563" 
d="M193 0v251h-113v150h113v149h-173v150h523v-150h-173v-149h113v-150h-113v-251h-177z" />
    <glyph glyph-name="tbar" unicode="&#x167;" horiz-adv-x="379" 
d="M344 515v-135h-99v-45h99v-135h-99q1 -35 17 -53.5t44 -18.5q29 0 49 4l9 -136q-40 -8 -94 -8q-195 0 -195 212h-65v135h65v45h-65v135h65v107l170 8v-115h99z" />
    <glyph glyph-name="Utilde" unicode="&#x168;" horiz-adv-x="686" 
d="M55 282v418h177v-405q0 -73 28 -112t83 -39t83 39t28 112v405h177v-418q0 -68 -19 -123t-55.5 -93t-91 -58t-122.5 -20t-122.5 20t-91 58t-55.5 93t-19 123zM394 879q27 0 27 38h110q0 -45 -13.5 -83t-36.5 -58.5t-56 -20.5q-29 0 -68.5 15t-57.5 15q-31 0 -33 -34h-110
q1 33 10.5 71t36 62t66.5 24q18 0 34.5 -4t45.5 -14.5t45 -10.5z" />
    <glyph glyph-name="utilde" unicode="&#x169;" horiz-adv-x="581" 
d="M526 29q-37 -13 -103.5 -27t-130.5 -14q-50 0 -96 11t-78 37.5t-50 70.5t-18 112v296h170v-297q0 -90 77 -90q32 0 59 10v377h170v-486zM337 699q27 0 27 38h110q0 -45 -13.5 -83t-36.5 -58.5t-56 -20.5q-29 0 -68.5 15t-57.5 15q-31 0 -33 -34h-110q1 33 10.5 71t36 62
t66.5 24q18 0 34.5 -4t45.5 -14.5t45 -10.5z" />
    <glyph glyph-name="Umacron" unicode="&#x16a;" horiz-adv-x="686" 
d="M55 282v418h177v-405q0 -73 28 -112t83 -39t83 39t28 112v405h177v-418q0 -68 -19 -123t-55.5 -93t-91 -58t-122.5 -20t-122.5 20t-91 58t-55.5 93t-19 123zM176 763v129h336v-129h-336z" />
    <glyph glyph-name="umacron" unicode="&#x16b;" horiz-adv-x="581" 
d="M526 29q-37 -13 -103.5 -27t-130.5 -14q-50 0 -96 11t-78 37.5t-50 70.5t-18 112v296h170v-297q0 -90 77 -90q32 0 59 10v377h170v-486zM119 583v129h336v-129h-336z" />
    <glyph glyph-name="Ubreve" unicode="&#x16c;" horiz-adv-x="686" 
d="M55 282v418h177v-405q0 -73 28 -112t83 -39t83 39t28 112v405h177v-418q0 -68 -19 -123t-55.5 -93t-91 -58t-122.5 -20t-122.5 20t-91 58t-55.5 93t-19 123zM538 910q-9 -56 -34 -92.5t-64.5 -55t-95.5 -18.5t-95.5 18.5t-64.5 55t-34 92.5h141q4 -24 15.5 -37.5
t37.5 -13.5q20 0 33.5 10t19.5 41h141z" />
    <glyph glyph-name="ubreve" unicode="&#x16d;" horiz-adv-x="581" 
d="M526 29q-37 -13 -103.5 -27t-130.5 -14q-50 0 -96 11t-78 37.5t-50 70.5t-18 112v296h170v-297q0 -90 77 -90q32 0 59 10v377h170v-486zM481 730q-9 -56 -34 -92.5t-64.5 -55t-95.5 -18.5t-95.5 18.5t-64.5 55t-34 92.5h141q4 -24 15.5 -37.5t37.5 -13.5q20 0 33.5 10
t19.5 41h141z" />
    <glyph glyph-name="Uring" unicode="&#x16e;" horiz-adv-x="686" 
d="M55 282v418h177v-405q0 -73 28 -112t83 -39t83 39t28 112v405h177v-418q0 -68 -19 -123t-55.5 -93t-91 -58t-122.5 -20t-122.5 20t-91 58t-55.5 93t-19 123zM205 879q0 60 39 98t100 38t100 -38t39 -98t-39 -98t-100 -38t-100 38t-39 98zM382 879q0 18 -10 29.5t-28 11.5
t-28 -11.5t-10 -29.5t10 -29.5t28 -11.5t28 11.5t10 29.5z" />
    <glyph glyph-name="uring" unicode="&#x16f;" horiz-adv-x="581" 
d="M526 29q-37 -13 -103.5 -27t-130.5 -14q-50 0 -96 11t-78 37.5t-50 70.5t-18 112v296h170v-297q0 -90 77 -90q32 0 59 10v377h170v-486zM148 699q0 60 39 98t100 38t100 -38t39 -98t-39 -98t-100 -38t-100 38t-39 98zM325 699q0 18 -10 29.5t-28 11.5t-28 -11.5
t-10 -29.5t10 -29.5t28 -11.5t28 11.5t10 29.5z" />
    <glyph glyph-name="Uhungarumlaut" unicode="&#x170;" horiz-adv-x="686" 
d="M55 282v418h177v-405q0 -73 28 -112t83 -39t83 39t28 112v405h177v-418q0 -68 -19 -123t-55.5 -93t-91 -58t-122.5 -20t-122.5 20t-91 58t-55.5 93t-19 123zM472 920h175l-123 -174h-140zM257 920h175l-123 -174h-140z" />
    <glyph glyph-name="uhungarumlaut" unicode="&#x171;" horiz-adv-x="581" 
d="M526 29q-37 -13 -103.5 -27t-130.5 -14q-50 0 -96 11t-78 37.5t-50 70.5t-18 112v296h170v-297q0 -90 77 -90q32 0 59 10v377h170v-486zM415 740h175l-123 -174h-140zM200 740h175l-123 -174h-140z" />
    <glyph glyph-name="Uogonek" unicode="&#x172;" horiz-adv-x="686" 
d="M55 282v418h177v-405q0 -73 28 -112t83 -39t83 39t28 112v405h177v-418q0 -114 -51.5 -187.5t-147.5 -96.5q-39 -19 -62.5 -44.5t-23.5 -51.5q0 -31 37 -31q22 0 41 9l17 -98q-42 -17 -97 -17q-63 0 -100 29t-37 80q0 23 13.5 55t45.5 66q-102 20 -156.5 94.5
t-54.5 192.5z" />
    <glyph glyph-name="uogonek" unicode="&#x173;" horiz-adv-x="581" 
d="M526 29q-41 -25 -66 -59t-25 -68q0 -31 37 -31q22 0 41 9l17 -98q-42 -17 -97 -17q-63 0 -100 29t-37 80q0 56 52 117q-28 -3 -56 -3q-50 0 -96 11t-78 37.5t-50 70.5t-18 112v296h170v-297q0 -90 77 -90q32 0 59 10v377h170v-486z" />
    <glyph glyph-name="Wcircumflex" unicode="&#x174;" horiz-adv-x="1004" 
d="M703 168q26 82 58 240.5t48 291.5h180q-25 -177 -75 -376.5t-106 -323.5h-194q-60 159 -112 369q-52 -210 -112 -369h-194q-54 128 -105.5 330.5t-75.5 369.5h180q16 -133 48 -291.5t58 -240.5q34 93 71.5 247t52.5 285h155q8 -67 25 -157.5t44 -195t54 -179.5zM546 746
l-48 73l-48 -73h-163l127 174h168l127 -174h-163z" />
    <glyph glyph-name="wcircumflex" unicode="&#x175;" horiz-adv-x="813" 
d="M480 515q6 -220 69 -385q37 76 56 169t20 216h168q-11 -158 -43 -270t-109 -245h-169q-47 91 -71 150q-27 -79 -66 -150h-163q-33 50 -57 97.5t-42 97.5t-32 122.5t-21 197.5h168q2 -60 9 -129t24.5 -134t42.5 -122q28 55 46 130.5t22 142.5q-7 47 -10 112h158zM454 566
l-48 73l-48 -73h-163l127 174h168l127 -174h-163z" />
    <glyph glyph-name="Ycircumflex" unicode="&#x176;" horiz-adv-x="634" 
d="M228 0v273q-81 122 -138.5 226.5t-89.5 200.5h181q25 -71 56 -137t80 -145q37 60 71 126.5t65 155.5h181q-57 -171 -229 -428v-272h-177zM369 746l-48 73l-48 -73h-163l127 174h168l127 -174h-163z" />
    <glyph glyph-name="ycircumflex" unicode="&#x177;" horiz-adv-x="521" 
d="M376 58q-125 -220 -312 -245l-25 144q40 4 87 28.5t65 53.5q-86 111 -127.5 220.5t-48.5 255.5h172q0 -103 22 -186.5t70 -162.5q31 73 44 149.5t13 199.5h170q-6 -124 -42 -244t-88 -213zM317 566l-48 73l-48 -73h-163l127 174h168l127 -174h-163z" />
    <glyph glyph-name="Ydieresis" unicode="&#x178;" horiz-adv-x="634" 
d="M228 0v273q-81 122 -138.5 226.5t-89.5 200.5h181q25 -71 56 -137t80 -145q37 60 71 126.5t65 155.5h181q-57 -171 -229 -428v-272h-177zM300 825q0 -38 -25 -61t-65 -23q-42 0 -65.5 23t-23.5 61t24 61t65 23q40 0 65 -23.5t25 -60.5zM518 825q0 -38 -23.5 -61
t-65.5 -23q-40 0 -64.5 23t-24.5 61q0 37 24.5 60.5t64.5 23.5q41 0 65 -23t24 -61z" />
    <glyph glyph-name="Zacute" unicode="&#x179;" horiz-adv-x="567" 
d="M517 568q-92 -209 -268 -418h293v-150h-507v135q208 238 297 415h-286v150h471v-132zM298 920h183l-123 -174h-148z" />
    <glyph glyph-name="zacute" unicode="&#x17a;" horiz-adv-x="468" 
d="M38 515h389v-114q-42 -80 -85.5 -142t-102.5 -124h204v-135h-413v114q65 65 124.5 137.5t90.5 128.5h-207v135zM249 740h183l-123 -174h-148z" />
    <glyph glyph-name="Zdotaccent" unicode="&#x17b;" horiz-adv-x="567" 
d="M517 568q-92 -209 -268 -418h293v-150h-507v135q208 238 297 415h-286v150h471v-132zM189 836q0 41 25.5 66t70.5 25q44 0 69.5 -25t25.5 -66q0 -42 -25.5 -67t-69.5 -25q-45 0 -70.5 25t-25.5 67z" />
    <glyph glyph-name="zdotaccent" unicode="&#x17c;" horiz-adv-x="468" 
d="M38 515h389v-114q-42 -80 -85.5 -142t-102.5 -124h204v-135h-413v114q65 65 124.5 137.5t90.5 128.5h-207v135zM140 656q0 41 25.5 66t70.5 25q44 0 69.5 -25t25.5 -66q0 -42 -25.5 -67t-69.5 -25q-45 0 -70.5 25t-25.5 67z" />
    <glyph glyph-name="Zcaron" unicode="&#x17d;" horiz-adv-x="567" 
d="M517 568q-92 -209 -268 -418h293v-150h-507v135q208 238 297 415h-286v150h471v-132zM238 920l48 -73l48 73h163l-127 -174h-168l-127 174h163z" />
    <glyph glyph-name="zcaron" unicode="&#x17e;" horiz-adv-x="468" 
d="M38 515h389v-114q-42 -80 -85.5 -142t-102.5 -124h204v-135h-413v114q65 65 124.5 137.5t90.5 128.5h-207v135zM189 740l48 -73l48 73h163l-127 -174h-168l-127 174h163z" />
    <glyph glyph-name="florin" unicode="&#x192;" horiz-adv-x="488" 
d="M74 515h65v3q0 98 51.5 156.5t145.5 58.5q53 0 112 -13l-26 -132q-27 5 -52 5q-61 0 -61 -71v-7h108v-135h-108v-354q0 -98 -51.5 -156.5t-145.5 -58.5q-53 0 -112 13l26 132q27 -5 52 -5q61 0 61 71v358h-65v135z" />
    <glyph glyph-name="Scommaaccent" unicode="&#x218;" horiz-adv-x="533" 
d="M30 30l32 149q39 -16 87.5 -27t93.5 -11q46 0 68.5 15.5t22.5 42.5q0 25 -14.5 40.5t-40.5 26t-60 22.5q-104 36 -146 87.5t-42 125.5q0 100 64.5 155.5t184.5 55.5q43 0 97.5 -9t99.5 -30l-34 -146q-77 32 -153 32q-80 0 -80 -52q0 -22 14 -38.5t82 -41.5
q91 -33 132 -65t58 -72.5t17 -89.5q0 -99 -70.5 -155.5t-191.5 -56.5q-46 0 -108 9.5t-113 32.5zM202 -53h153q-5 -54 -30 -106t-60 -86h-103q42 89 40 192z" />
    <glyph glyph-name="scommaaccent" unicode="&#x219;" horiz-adv-x="444" 
d="M407 496l-17 -138q-95 29 -145 29q-24 0 -38 -5.5t-14 -16.5q0 -13 13 -20t57 -19q58 -15 94 -34t56.5 -50t20.5 -84q0 -82 -60.5 -126t-161.5 -44q-44 0 -95.5 9t-91.5 26l22 138q33 -14 78 -23.5t84 -9.5q26 0 42.5 7t16.5 19q0 13 -10.5 21.5t-83.5 27.5
q-75 19 -111 56.5t-36 101.5q0 79 54 122.5t150 43.5q39 0 89 -8.5t87 -22.5zM151 -53h153q-5 -54 -30 -106t-60 -86h-103q42 89 40 192z" />
    <glyph glyph-name="uni021A" unicode="&#x21a;" horiz-adv-x="563" 
d="M193 0v550h-173v150h523v-150h-173v-550h-177zM209 -53h153q-5 -54 -30 -106t-60 -86h-103q42 89 40 192z" />
    <glyph glyph-name="uni021B" unicode="&#x21b;" horiz-adv-x="379" 
d="M364 -4q-40 -8 -94 -8q-195 0 -195 215v177h-65v135h65v107l170 8v-115h99v-135h-99v-175q0 -37 16 -57t45 -20t49 4zM132 -53h153q-5 -54 -30 -106t-60 -86h-103q42 89 40 192z" />
    <glyph glyph-name="uni0237" unicode="&#x237;" horiz-adv-x="280" 
d="M-9 -43q33 17 48.5 40.5t15.5 66.5v451h170v-461q0 -89 -44 -147t-141 -89z" />
    <glyph glyph-name="circumflex" unicode="&#x2c6;" 
d="M289 566l-48 73l-48 -73h-163l127 174h168l127 -174h-163z" />
    <glyph glyph-name="caron" unicode="&#x2c7;" 
d="M203 740l48 -73l48 73h163l-127 -174h-168l-127 174h163z" />
    <glyph glyph-name="breve" unicode="&#x2d8;" 
d="M445 730q-9 -56 -34 -92.5t-64.5 -55t-95.5 -18.5t-95.5 18.5t-64.5 55t-34 92.5h141q4 -24 15.5 -37.5t37.5 -13.5q20 0 33.5 10t19.5 41h141z" />
    <glyph glyph-name="dotaccent" unicode="&#x2d9;" 
d="M156 656q0 41 25.5 66t70.5 25q44 0 69.5 -25t25.5 -66q0 -42 -25.5 -67t-69.5 -25q-45 0 -70.5 25t-25.5 67z" />
    <glyph glyph-name="ring" unicode="&#x2da;" 
d="M111 699q0 60 39 98t100 38t100 -38t39 -98t-39 -98t-100 -38t-100 38t-39 98zM288 699q0 18 -10 29.5t-28 11.5t-28 -11.5t-10 -29.5t10 -29.5t28 -11.5t28 11.5t10 29.5z" />
    <glyph glyph-name="ogonek" unicode="&#x2db;" 
d="M360 -218q-42 -17 -97 -17q-63 0 -100 29t-37 80q0 38 25 77t56 64l149 -15q-41 -19 -66 -45t-25 -53q0 -31 37 -31q22 0 41 9z" />
    <glyph glyph-name="tilde" unicode="&#x2dc;" 
d="M300 699q27 0 27 38h110q0 -45 -13.5 -83t-36.5 -58.5t-56 -20.5q-29 0 -68.5 15t-57.5 15q-31 0 -33 -34h-110q1 33 10.5 71t36 62t66.5 24q18 0 34.5 -4t45.5 -14.5t45 -10.5z" />
    <glyph glyph-name="hungarumlaut" unicode="&#x2dd;" 
d="M348 740h175l-123 -174h-140zM133 740h175l-123 -174h-140z" />
    <glyph glyph-name="uni0326" unicode="&#x326;" horiz-adv-x="0" 
d="M-76 -53h153q-5 -54 -30 -106t-60 -86h-103q42 89 40 192z" />
    <glyph glyph-name="pi" unicode="&#x3c0;" horiz-adv-x="637" 
d="M610 -3q-43 -9 -91 -9q-174 0 -174 184v208h-95v-380h-170v380h-60v135h587v-135h-92v-203q0 -27 13 -37.5t40 -10.5q20 0 42 5v-137z" />
    <glyph glyph-name="Wgrave" unicode="&#x1e80;" horiz-adv-x="1004" 
d="M703 168q26 82 58 240.5t48 291.5h180q-25 -177 -75 -376.5t-106 -323.5h-194q-60 159 -112 369q-52 -210 -112 -369h-194q-54 128 -105.5 330.5t-75.5 369.5h180q16 -133 48 -291.5t58 -240.5q34 93 71.5 247t52.5 285h155q8 -67 25 -157.5t44 -195t54 -179.5zM430 746
l-123 174h183l88 -174h-148z" />
    <glyph glyph-name="wgrave" unicode="&#x1e81;" horiz-adv-x="813" 
d="M480 515q6 -220 69 -385q37 76 56 169t20 216h168q-11 -158 -43 -270t-109 -245h-169q-47 91 -71 150q-27 -79 -66 -150h-163q-33 50 -57 97.5t-42 97.5t-32 122.5t-21 197.5h168q2 -60 9 -129t24.5 -134t42.5 -122q28 55 46 130.5t22 142.5q-7 47 -10 112h158zM338 566
l-123 174h183l88 -174h-148z" />
    <glyph glyph-name="Wacute" unicode="&#x1e82;" horiz-adv-x="1004" 
d="M703 168q26 82 58 240.5t48 291.5h180q-25 -177 -75 -376.5t-106 -323.5h-194q-60 159 -112 369q-52 -210 -112 -369h-194q-54 128 -105.5 330.5t-75.5 369.5h180q16 -133 48 -291.5t58 -240.5q34 93 71.5 247t52.5 285h155q8 -67 25 -157.5t44 -195t54 -179.5zM510 920
h183l-123 -174h-148z" />
    <glyph glyph-name="wacute" unicode="&#x1e83;" horiz-adv-x="813" 
d="M480 515q6 -220 69 -385q37 76 56 169t20 216h168q-11 -158 -43 -270t-109 -245h-169q-47 91 -71 150q-27 -79 -66 -150h-163q-33 50 -57 97.5t-42 97.5t-32 122.5t-21 197.5h168q2 -60 9 -129t24.5 -134t42.5 -122q28 55 46 130.5t22 142.5q-7 47 -10 112h158zM418 740
h183l-123 -174h-148z" />
    <glyph glyph-name="Wdieresis" unicode="&#x1e84;" horiz-adv-x="1004" 
d="M703 168q26 82 58 240.5t48 291.5h180q-25 -177 -75 -376.5t-106 -323.5h-194q-60 159 -112 369q-52 -210 -112 -369h-194q-54 128 -105.5 330.5t-75.5 369.5h180q16 -133 48 -291.5t58 -240.5q34 93 71.5 247t52.5 285h155q8 -67 25 -157.5t44 -195t54 -179.5zM477 825
q0 -38 -25 -61t-65 -23q-42 0 -65.5 23t-23.5 61t24 61t65 23q40 0 65 -23.5t25 -60.5zM695 825q0 -38 -23.5 -61t-65.5 -23q-40 0 -64.5 23t-24.5 61q0 37 24.5 60.5t64.5 23.5q41 0 65 -23t24 -61z" />
    <glyph glyph-name="wdieresis" unicode="&#x1e85;" horiz-adv-x="813" 
d="M480 515q6 -220 69 -385q37 76 56 169t20 216h168q-11 -158 -43 -270t-109 -245h-169q-47 91 -71 150q-27 -79 -66 -150h-163q-33 50 -57 97.5t-42 97.5t-32 122.5t-21 197.5h168q2 -60 9 -129t24.5 -134t42.5 -122q28 55 46 130.5t22 142.5q-7 47 -10 112h158zM385 645
q0 -38 -25 -61t-65 -23q-42 0 -65.5 23t-23.5 61t24 61t65 23q40 0 65 -23.5t25 -60.5zM603 645q0 -38 -23.5 -61t-65.5 -23q-40 0 -64.5 23t-24.5 61q0 37 24.5 60.5t64.5 23.5q41 0 65 -23t24 -61z" />
    <glyph glyph-name="Ygrave" unicode="&#x1ef2;" horiz-adv-x="634" 
d="M228 0v273q-81 122 -138.5 226.5t-89.5 200.5h181q25 -71 56 -137t80 -145q37 60 71 126.5t65 155.5h181q-57 -171 -229 -428v-272h-177zM253 746l-123 174h183l88 -174h-148z" />
    <glyph glyph-name="ygrave" unicode="&#x1ef3;" horiz-adv-x="521" 
d="M376 58q-125 -220 -312 -245l-25 144q40 4 87 28.5t65 53.5q-86 111 -127.5 220.5t-48.5 255.5h172q0 -103 22 -186.5t70 -162.5q31 73 44 149.5t13 199.5h170q-6 -124 -42 -244t-88 -213zM201 566l-123 174h183l88 -174h-148z" />
    <glyph glyph-name="endash" unicode="&#x2013;" 
d="M30 267v143h440v-143h-440z" />
    <glyph glyph-name="emdash" unicode="&#x2014;" horiz-adv-x="1000" 
d="M30 267v143h940v-143h-940z" />
    <glyph glyph-name="quoteleft" unicode="&#x2018;" horiz-adv-x="281" 
d="M200 431h-163q0 41 14.5 91.5t45 103.5t65.5 94h89q-25 -72 -38 -147.5t-13 -141.5z" />
    <glyph glyph-name="quoteright" unicode="&#x2019;" horiz-adv-x="281" 
d="M79 720h163q0 -41 -14.5 -91.5t-45 -103.5t-65.5 -94h-89q51 149 51 289z" />
    <glyph glyph-name="quotesinglbase" unicode="&#x201a;" horiz-adv-x="281" 
d="M69 156h163q0 -41 -14.5 -91.5t-45 -103.5t-65.5 -94h-89q51 149 51 289z" />
    <glyph glyph-name="quotedblleft" unicode="&#x201c;" horiz-adv-x="501" 
d="M420 431h-163q0 41 14.5 91.5t45 103.5t65.5 94h89q-25 -72 -38 -147.5t-13 -141.5zM200 431h-163q0 41 14.5 91.5t45 103.5t65.5 94h89q-25 -72 -38 -147.5t-13 -141.5z" />
    <glyph glyph-name="quotedblright" unicode="&#x201d;" horiz-adv-x="501" 
d="M79 720h163q0 -41 -14.5 -91.5t-45 -103.5t-65.5 -94h-89q51 149 51 289zM299 720h163q0 -41 -14.5 -91.5t-45 -103.5t-65.5 -94h-89q51 149 51 289z" />
    <glyph glyph-name="quotedblbase" unicode="&#x201e;" horiz-adv-x="501" 
d="M69 156h163q0 -41 -14.5 -91.5t-45 -103.5t-65.5 -94h-89q51 149 51 289zM289 156h163q0 -41 -14.5 -91.5t-45 -103.5t-65.5 -94h-89q51 149 51 289z" />
    <glyph glyph-name="dagger" unicode="&#x2020;" horiz-adv-x="550" 
d="M40 389v139q20 0 46 -1.5t69.5 -5t55.5 -4.5q-11 90 -11 129q0 42 5 95h140q5 -53 5 -95q0 -39 -11 -129q10 1 68 6t103 5v-139q-44 0 -102.5 5t-68.5 6q11 -90 11 -130v-470h-150v470q0 40 11 130q-12 -1 -55.5 -4.5t-69.5 -5t-46 -1.5z" />
    <glyph glyph-name="daggerdbl" unicode="&#x2021;" horiz-adv-x="550" 
d="M40 389v139q20 0 46 -1.5t69.5 -5t55.5 -4.5q-11 90 -11 129q0 42 5 95h140q5 -53 5 -95q0 -39 -11 -129q10 1 68 6t103 5v-139q-44 0 -102.5 5t-68.5 6q11 -90 11 -130q0 -41 -11 -133q8 1 67 6t104 5v-139q-45 0 -103.5 5t-66.5 6q9 -85 9.5 -98t0.5 -28q0 -42 -5 -95
h-140q-5 53 -5 95q0 15 0.5 28t9.5 98q-12 -1 -54.5 -4.5t-69 -5t-46.5 -1.5v139q20 0 46 -1.5t69.5 -5t55.5 -4.5q-11 92 -11 133q0 40 11 130q-12 -1 -55.5 -4.5t-69.5 -5t-46 -1.5z" />
    <glyph glyph-name="bullet" unicode="&#x2022;" horiz-adv-x="390" 
d="M335 357q0 -63 -37 -101t-102 -38q-67 0 -104 38t-37 101q0 62 37 100t104 38q40 0 73.5 -17t49.5 -50t16 -71z" />
    <glyph glyph-name="ellipsis" unicode="&#x2026;" horiz-adv-x="913" 
d="M60 80q0 42 25.5 66.5t70.5 24.5t70 -24.5t25 -66.5t-25 -67t-70 -25t-70.5 24.5t-25.5 67.5zM361 80q0 42 25.5 66.5t70.5 24.5t70 -24.5t25 -66.5t-25 -67t-70 -25t-70.5 24.5t-25.5 67.5zM662 80q0 42 25.5 66.5t70.5 24.5t70 -24.5t25 -66.5t-25 -67t-70 -25
t-70.5 24.5t-25.5 67.5z" />
    <glyph glyph-name="perthousand" unicode="&#x2030;" horiz-adv-x="1284" 
d="M375 508q0 -83 -47.5 -130t-124.5 -47t-125 47t-48 130q0 81 48 128t125 47t124.5 -47t47.5 -128zM161 508q0 -70 42 -70q41 0 41 70q0 69 -41 69q-21 0 -31.5 -18.5t-10.5 -50.5zM565 671h127l-371 -671h-127zM856 165q0 -83 -47.5 -130t-124.5 -47t-125 47t-48 130
q0 81 48 128t125 47t124.5 -47t47.5 -128zM642 165q0 -70 42 -70q41 0 41 70q0 69 -41 69q-21 0 -31.5 -18.5t-10.5 -50.5zM1254 165q0 -83 -47.5 -130t-124.5 -47t-125 47t-48 130q0 81 48 128t125 47t124.5 -47t47.5 -128zM1040 165q0 -70 42 -70q41 0 41 70q0 69 -41 69
q-21 0 -31.5 -18.5t-10.5 -50.5z" />
    <glyph glyph-name="guilsinglleft" unicode="&#x2039;" horiz-adv-x="410" 
d="M175 66q-44 49 -86 108.5t-69 116.5q27 57 69 116.5t86 108.5h205q-90 -97 -167 -225q77 -128 167 -225h-205z" />
    <glyph glyph-name="guilsinglright" unicode="&#x203a;" horiz-adv-x="410" 
d="M235 66h-205q90 97 167 225q-77 128 -167 225h205q44 -49 86 -108.5t69 -116.5q-27 -57 -69 -116.5t-86 -108.5z" />
    <glyph glyph-name="fraction" unicode="&#x2044;" horiz-adv-x="112" 
d="M187 700h135l-397 -700h-135z" />
    <glyph glyph-name="uni2070" unicode="&#x2070;" horiz-adv-x="365" 
d="M355 532q0 -84 -47.5 -133t-124.5 -49q-47 0 -88.5 21.5t-63 65t-21.5 95.5q0 82 48.5 131t124.5 49t124 -49t48 -131zM141 532q0 -33 10.5 -54t31.5 -21t31 21t10 54t-10 53.5t-31 20.5t-31.5 -20.5t-10.5 -53.5z" />
    <glyph glyph-name="uni2074" unicode="&#x2074;" horiz-adv-x="365" 
d="M21 411v76q62 114 176 217h119v-203h39v-90h-39v-53h-116v53h-179zM200 501q2 69 5 100q-43 -50 -76 -100h71z" />
    <glyph glyph-name="Euro" unicode="&#x20ac;" horiz-adv-x="615" 
d="M434 -12q-120 0 -200.5 53.5t-111.5 155.5h-92v112h75l-1 26v20h-74v112h92q31 105 112 160.5t195 55.5q90 0 148 -18l-34 -139q-54 12 -91 12q-112 0 -148 -71h191l-11 -112h-204v-20l1 -26h200l-9 -112h-163q39 -64 137 -64q59 0 113 15l26 -138q-29 -11 -72 -16.5
t-79 -5.5z" />
    <glyph glyph-name="uni20B9" unicode="&#x20b9;" horiz-adv-x="536" 
d="M45 556v115h451v-115h-107q12 -29 16 -50h91v-115h-83q-7 -72 -48.5 -120.5t-113.5 -69.5l192 -201h-216l-181 185h-1v129h80q61 0 90 18.5t36 58.5h-206v115h198q-5 22 -18 50h-180z" />
    <glyph glyph-name="afii61289" unicode="&#x2113;" horiz-adv-x="550" 
d="M64 67l-64 125l74 40q-8 50 -8 100q0 94 21 167t57 120t81.5 70t93.5 23q93 0 144.5 -50t51.5 -147q0 -98 -55.5 -181t-188.5 -155q30 -43 106 -43q47 0 89 14v-147q-51 -15 -107 -15q-77 0 -137 29t-97 83zM239 343v-19q59 39 84.5 84t25.5 97q0 61 -35 61t-55 -61
t-20 -162z" />
    <glyph glyph-name="trademark" unicode="&#x2122;" horiz-adv-x="785" 
d="M106 366v246h-81v88h269v-88h-80v-246h-108zM329 700h111q45 -108 92 -175q39 55 87 175h111v-334h-97v132l4 53q-32 -59 -71 -120h-72q-31 46 -73 121l5 -54v-132h-97v334z" />
    <glyph glyph-name="uni2126" unicode="&#x2126;" horiz-adv-x="723" 
d="M45 0v150h82q-92 97 -92 225q0 71 23 133.5t65.5 108.5t104 71t134.5 25t134 -25.5t104 -71t65.5 -108t22.5 -134.5q0 -129 -90 -224h80v-150h-257v138q39 34 61.5 91t22.5 121q0 99 -37 152.5t-106 53.5t-106.5 -53.5t-37.5 -152.5q0 -36 9 -78.5t30 -78.5t45 -55v-138
h-257z" />
    <glyph glyph-name="estimated" unicode="&#x212e;" horiz-adv-x="712" 
d="M550 276v151q0 4 -2.5 10t-5.5 9q-35 36 -83.5 57t-101.5 21t-102.5 -21.5t-84.5 -59.5q-8 -6 -8 -19v-148q0 -4 4 -4h381q3 1 3 4zM662 257h-496q-3 0 -4 -3v-150q0 -10 7 -18q36 -37 85 -58.5t103 -21.5q58 0 109.5 24t87.5 66h44q-43 -49 -106.5 -78t-135.5 -29
q-29 0 -67.5 7t-78 26t-76 52.5t-60.5 84t-24 105.5t24 106t66 89.5t98.5 60t117.5 21.5t117.5 -21.5t98.5 -60t66 -89.5t24 -106v-7z" />
    <glyph glyph-name="partialdiff" unicode="&#x2202;" horiz-adv-x="589" 
d="M256 -12q-106 0 -166 60.5t-60 168.5q0 65 21.5 122.5t59 99.5t86.5 65t101 23q24 0 49 -7q-39 53 -97 100.5t-113 75.5l208 13q66 -41 112.5 -98t71.5 -122.5t25 -138.5q0 -80 -20.5 -147.5t-59 -115t-94.5 -73.5t-124 -26zM205 223q0 -45 18.5 -70t52.5 -25
q28 0 51.5 21.5t39.5 60t16 83.5q0 44 -18.5 69t-52.5 25q-22 0 -46.5 -16.5t-42.5 -58.5t-18 -89z" />
    <glyph glyph-name="uni2206" unicode="&#x2206;" horiz-adv-x="690" 
d="M20 0v134l239 566h170l241 -566v-134h-650zM478 148l-134 356l-140 -356h274z" />
    <glyph glyph-name="product" unicode="&#x220f;" horiz-adv-x="775" 
d="M755 550h-100v-680h-177v680h-181v-680h-177v680h-100v150h735v-150z" />
    <glyph glyph-name="summation" unicode="&#x2211;" horiz-adv-x="568" 
d="M553 -130h-538v140l244 284l-222 266v140h483v-150h-261l157 -192v-138l-181 -200h318v-150z" />
    <glyph glyph-name="minus" unicode="&#x2212;" horiz-adv-x="559" 
d="M40 268v146h479v-146h-479z" />
    <glyph glyph-name="uni2215" unicode="&#x2215;" horiz-adv-x="112" 
d="M187 700h135l-397 -700h-135z" />
    <glyph glyph-name="radical" unicode="&#x221a;" horiz-adv-x="540" 
d="M152 0l-78 184h-74v150h180l56 -154l136 520h168l-211 -700h-177z" />
    <glyph glyph-name="infinity" unicode="&#x221e;" horiz-adv-x="859" 
d="M30 321q0 36 10.5 73t38 70.5t68.5 49t81 15.5q30 0 67 -10.5t73.5 -38t65.5 -65.5q32 40 67 67t71 37.5t67 10.5q56 0 99.5 -28.5t67 -74t23.5 -106.5q0 -60 -26.5 -110.5t-73 -75.5t-93.5 -25q-51 0 -104.5 23t-110.5 93q-44 -59 -90 -87t-110 -28q-55 0 -99 28.5
t-68 74.5t-24 107zM240 391q-30 0 -47.5 -19t-17.5 -53q0 -33 18.5 -51.5t51.5 -18.5q21 0 42.5 11t56.5 55q-37 49 -60 62.5t-44 13.5zM508 323q27 -37 52 -55.5t54 -18.5q35 0 53 18t18 52q0 36 -19 55.5t-51 19.5q-22 0 -47.5 -13t-59.5 -58z" />
    <glyph glyph-name="integral" unicode="&#x222b;" horiz-adv-x="488" 
d="M442 588q-27 5 -52 5q-61 0 -61 -71v-496q0 -98 -51.5 -156.5t-145.5 -58.5q-53 0 -112 13l26 132q27 -5 52 -5q61 0 61 71v496q0 98 51.5 156.5t145.5 58.5q53 0 112 -13z" />
    <glyph glyph-name="approxequal" unicode="&#x2248;" horiz-adv-x="559" 
d="M519 483q-6 -53 -28 -86.5t-50 -45t-52 -11.5q-6 0 -22 1t-32 5t-59.5 20t-74.5 16q-46 0 -67 -36l-94 66q9 42 32 73.5t52 43t54 11.5q38 0 92 -20t88 -20q21 0 39 8t29 35zM519 273q-6 -53 -28 -86.5t-50 -45t-52 -11.5q-6 0 -22 1t-32 5t-59.5 20t-74.5 16
q-46 0 -67 -36l-94 66q9 42 32 73.5t52 43t54 11.5q38 0 92 -20t88 -20q21 0 39 8t29 35z" />
    <glyph glyph-name="notequal" unicode="&#x2260;" horiz-adv-x="559" 
d="M324 639h165l-55 -130h85v-146h-148l-18 -44h166v-146h-229l-55 -130h-165l55 130h-85v146h148l18 44h-166v146h229z" />
    <glyph glyph-name="lessequal" unicode="&#x2264;" horiz-adv-x="559" 
d="M40 10v146h479v-146h-479zM519 177l-479 137v163l479 137v-165l-279 -53l279 -54v-165z" />
    <glyph glyph-name="greaterequal" unicode="&#x2265;" horiz-adv-x="559" 
d="M519 10h-479v146h479v-146zM40 177v165l279 54l-279 53v165l479 -137v-163z" />
    <glyph glyph-name="lozenge" unicode="&#x25ca;" horiz-adv-x="532" 
d="M266 136l90 161l-90 162l-90 -162zM180 0l-175 297l175 298h172l175 -298l-175 -297h-172z" />
    <glyph glyph-name="glyph379" horiz-adv-x="1639" 
d="M60 0v700h216v-700h-216zM321 496v204h216v-204h-216zM581 0v700h217v-700h-217zM842 496v204h216v-204h-216zM1102 0v700h217v-700h-217zM1363 496v204h216v-204h-216zM1363 247v205h216v-205h-216z" />
    <glyph glyph-name="glyph380" 
d="M132 710h148q-5 -69 -30.5 -136t-59.5 -108h-101q18 54 29.5 119t13.5 125z" />
    <glyph glyph-name="glyph381" horiz-adv-x="0" 
d="M78 575h-147q5 57 31 112.5t61 91.5h103q-16 -36 -31 -89.5t-17 -114.5z" />
    </font>
</defs>
</svg>
